<?xml version="1.0" encoding="UTF-8"?>
<svg version="1.1" xmlns="http://www.w3.org/2000/svg" width="1536" height="1024">
<path d="M0 0 C506.88 0 1013.76 0 1536 0 C1536 337.92 1536 675.84 1536 1024 C1029.12 1024 522.24 1024 0 1024 C0 686.08 0 348.16 0 0 Z " fill="#FDFDFD" transform="translate(0,0)"/>
<path d="M0 0 C19.78666483 17.83929535 33.27490164 42.33027438 41.15307617 67.56518555 C41.42345703 68.42128418 41.69383789 69.27738281 41.97241211 70.15942383 C46.32077847 85.01496442 47.72270533 100.11132833 47.60668945 115.52954102 C47.59053343 118.07191182 47.60669793 120.61270434 47.62573242 123.1550293 C47.64541232 137.72825572 45.58017572 151.49746686 41.46557617 165.50268555 C41.08260376 166.81946289 41.08260376 166.81946289 40.69189453 168.1628418 C38.20948547 176.41604596 35.0222119 184.21581734 31.21557617 191.94018555 C30.64838867 193.09131836 30.08120117 194.24245117 29.49682617 195.4284668 C23.09447168 207.81120242 14.76277084 217.92526088 5.21557617 227.94018555 C4.4859668 228.73424805 3.75635742 229.52831055 3.00463867 230.34643555 C-11.53066443 245.69225741 -30.60448941 255.37475521 -50.78442383 260.94018555 C-51.75919678 261.21016357 -52.73396973 261.4801416 -53.73828125 261.75830078 C-61.84747497 263.82845867 -69.49401472 264.44804361 -77.84692383 264.37768555 C-79.10827148 264.3708374 -80.36961914 264.36398926 -81.66918945 264.35693359 C-107.16061617 263.92396852 -129.6908906 255.77567088 -149.78442383 239.94018555 C-150.57381348 239.32119385 -150.57381348 239.32119385 -151.37915039 238.68969727 C-159.212523 232.49153544 -165.82068064 226.01724032 -171.78442383 217.94018555 C-172.51016602 216.97854492 -173.2359082 216.0169043 -173.98364258 215.02612305 C-185.13788772 199.64766989 -192.4863834 183.12221682 -197.78442383 164.94018555 C-198.1787561 163.61724487 -198.1787561 163.61724487 -198.58105469 162.26757812 C-205.39501291 138.56731205 -205.36329097 113.44931068 -201.19018555 89.31665039 C-200.81826789 87.13840344 -200.48483727 84.95836014 -200.16333008 82.7722168 C-195.94997081 56.68079328 -183.48936139 29.44670493 -165.06958008 10.31518555 C-163.09300212 8.26089598 -161.3188796 6.15845638 -159.53442383 3.94018555 C-143.14789842 -14.7818026 -116.63289921 -27.83234902 -91.94848633 -29.89575195 C-57.18630645 -31.69823535 -26.48344786 -23.13834455 0 0 Z " fill="#FCFCFD" transform="translate(440.784423828125,397.059814453125)"/>
<path d="M0 0 C2.68728941 1.17568912 3.43047628 2.38151502 5 4.875 C5.90045482 7.38789718 6.64559199 9.79960893 7.3125 12.375 C7.51979736 13.16890137 7.72709473 13.96280273 7.94067383 14.78076172 C10.15598892 23.76477688 11.66832514 32.87812521 13.1875 42 C13.37706772 43.13272339 13.37706772 43.13272339 13.57046509 44.28833008 C15.36904818 55.11826805 16.80427017 65.96256438 18 76.875 C30.14745988 71.14877876 41.10657228 64.82719709 51.328125 56.05078125 C51.86276367 55.5923584 52.39740234 55.13393555 52.94824219 54.66162109 C54.40683798 53.39349644 55.84482595 52.10177888 57.28125 50.80859375 C60.29628843 48.66427763 62.33248462 48.09104616 66 47.875 C66.33 48.205 66.66 48.535 67 48.875 C66.60465059 54.45225063 65.0238167 58.62702313 62.5 63.5 C62.14252686 64.19730225 61.78505371 64.89460449 61.41674805 65.61303711 C56.18923861 75.57176625 49.66807327 84.29955534 42.375 92.8125 C41.8488208 93.42746338 41.3226416 94.04242676 40.78051758 94.67602539 C37.62570208 98.27150418 34.33379123 101.42749026 30.60009766 104.42016602 C28.71512058 106.13401686 27.30731364 107.67902829 26 109.875 C25.95638068 112.1144645 25.95638068 112.1144645 26.62109375 114.4296875 C26.83233887 115.31108398 27.04358398 116.19248047 27.26123047 117.10058594 C27.50502441 118.01614258 27.74881836 118.93169922 28 119.875 C28.22703613 120.75704102 28.45407227 121.63908203 28.68798828 122.54785156 C33.79862344 141.72569142 40.02820254 160.7551964 49.125 178.4375 C49.50825439 179.19264893 49.89150879 179.94779785 50.28637695 180.72583008 C53.26986846 186.26857532 57.22991797 191.98995899 63 194.875 C69.47445495 195.63798291 74.73436668 195.45658906 80.09375 191.546875 C90.34118499 182.55937054 94.97015095 173.22689925 97.2265625 159.87890625 C98.00331082 156.86214131 98.46389984 155.62882051 101 153.875 C103.99332855 153.94983321 105.45441402 154.3529645 107.62890625 156.43359375 C109.5479746 159.85073825 109.49056934 163.05653432 109.4375 166.875 C109.42614014 168.01122803 109.42614014 168.01122803 109.41455078 169.17041016 C109.21824489 175.93794823 107.80007924 181.69040131 105 187.875 C104.57589844 188.81988281 104.15179688 189.76476562 103.71484375 190.73828125 C97.67548543 202.90111151 87.95352455 211.04462638 75.08984375 215.54296875 C65.69211566 217.03606574 55.22600902 217.05640806 47 211.875 C22.22378475 193.47088247 14.87070498 157.12668842 7 128.875 C0.16062061 134.67726038 -5.68468139 140.6516183 -11 147.875 C-11.68449219 148.79410156 -12.36898437 149.71320313 -13.07421875 150.66015625 C-25.95932339 168.58826415 -39.93125632 188.98603624 -38 211.875 C-25.13937595 210.18836078 -17.06302015 201.31046551 -8.47802734 192.33129883 C-4.38406782 188.0826096 -0.12963535 183.8651251 5 180.875 C8 181 8 181 10 181.875 C10.32315768 188.66131122 9.46139039 193.58360129 7 199.875 C6.7215625 200.69097656 6.443125 201.50695312 6.15625 202.34765625 C1.73475685 214.67828585 -7.07753078 223.07532327 -18 229.875 C-19.423125 230.803125 -19.423125 230.803125 -20.875 231.75 C-28.00976025 234.31851369 -35.95686243 233.34009815 -43 230.875 C-48.96124882 227.7477875 -52.51336503 223.58096862 -54.56640625 217.08203125 C-55.1512492 214.10512793 -55.35072039 211.15042295 -55.5625 208.125 C-55.64628906 206.95453125 -55.73007812 205.7840625 -55.81640625 204.578125 C-55.87699219 203.68609375 -55.93757813 202.7940625 -56 201.875 C-56.65226562 202.48988281 -57.30453125 203.10476563 -57.9765625 203.73828125 C-58.85054688 204.54652344 -59.72453125 205.35476563 -60.625 206.1875 C-61.48351562 206.98800781 -62.34203125 207.78851562 -63.2265625 208.61328125 C-68.27446056 212.72980657 -72.79723201 214.70290065 -79.28515625 214.46875 C-88.18957957 212.52130778 -94.39481413 204.8999048 -99.27734375 197.69140625 C-103.78554894 190.32084856 -107.12865921 183.98197339 -107.1875 175.25 C-107.20167969 174.28835938 -107.21585938 173.32671875 -107.23046875 172.3359375 C-107 169.875 -107 169.875 -105 167.875 C-102.625 167.5 -102.625 167.5 -100 167.875 C-96.41925532 170.76117462 -95.4156355 173.04016065 -94.5625 177.5 C-92.91741236 184.74369236 -90.57892378 191.76855798 -85.125 197.0625 C-82.11253953 199.11351165 -82.11253953 199.11351165 -78.625 199.125 C-70.15828063 196.2054416 -65.41956854 189.30387274 -61 181.875 C-60.38382812 180.87855469 -59.76765625 179.88210938 -59.1328125 178.85546875 C-53.3976081 169.27075945 -49.10255617 159.24807664 -45 148.875 C-44.71882324 148.17052734 -44.43764648 147.46605469 -44.14794922 146.74023438 C-38.22393656 131.80671123 -34.04605504 116.40371405 -30 100.875 C-31.45019531 100.92720703 -31.45019531 100.92720703 -32.9296875 100.98046875 C-47.0509851 101.27407989 -57.45744707 98.5483107 -68.2265625 88.875 C-74.2964419 82.50045484 -80.66542498 74.00863544 -81.25 65.0390625 C-81 61.875 -81 61.875 -80 60.875 C-76.6875 60.5 -76.6875 60.5 -73 60.875 C-69.73869911 64.28682246 -67.8447581 68.02491033 -65.8125 72.25 C-61.81152791 79.79127788 -56.97141452 84.4688065 -49.0625 87.75 C-41.70925995 89.89798948 -33.60430149 89.63710923 -26 89.875 C-25.90074219 88.67746094 -25.80148437 87.47992188 -25.69921875 86.24609375 C-24.96643818 79.68687636 -23.35608256 73.34487043 -21.8125 66.9375 C-21.49706014 65.61130315 -21.18220922 64.28496608 -20.86791992 62.95849609 C-20.38634322 60.92640889 -19.9043638 58.89442671 -19.42036438 56.86291504 C-18.10657345 51.34652926 -16.8311833 45.8217837 -15.56640625 40.29394531 C-13.68712006 32.08302262 -11.80159975 23.87262103 -9.8125 15.6875 C-9.38904297 13.93373047 -9.38904297 13.93373047 -8.95703125 12.14453125 C-5.30512576 -0.33157036 -5.30512576 -0.33157036 0 0 Z " fill="#0462BB" transform="translate(363,379.125)"/>
<path d="M0 0 C27.37213394 24.80599638 48.52159364 60.71040583 50.82861328 98.26782227 C50.99712448 102.68064818 51.03356067 107.09114326 51.03125 111.50683594 C51.03165283 112.29646729 51.03205566 113.08609863 51.0324707 113.8996582 C50.96775852 136.03345646 47.12955719 156.37458899 37.59375 176.44433594 C37.23764648 177.19537598 36.88154297 177.94641602 36.51464844 178.72021484 C29.05459653 194.14727988 19.46406055 207.1538374 7.59375 219.44433594 C6.84351563 220.24613281 6.09328125 221.04792969 5.3203125 221.87402344 C-19.04945111 247.29951688 -57.19523061 264.12615024 -92.421875 264.87792969 C-95.50065749 264.91480306 -98.57739914 264.90631309 -101.65625 264.88183594 C-102.46096741 264.87912689 -103.26568481 264.87641785 -104.0947876 264.87362671 C-116.87081206 264.80859951 -129.05636393 263.95650488 -141.40625 260.44433594 C-142.08155762 260.25709961 -142.75686523 260.06986328 -143.45263672 259.87695312 C-182.9255315 248.6101027 -216.42959437 221.42880771 -236.73486328 185.87304688 C-248.68612177 163.96339484 -254.82702292 139.1880786 -254.71875 114.31933594 C-254.71551727 113.30253754 -254.71551727 113.30253754 -254.71221924 112.26519775 C-254.65539008 101.0803647 -253.99770506 90.34102029 -251.40625 79.44433594 C-251.20757324 78.60257812 -251.00889648 77.76082031 -250.80419922 76.89355469 C-243.70784255 47.84899075 -228.40922709 21.79575784 -206.40625 1.44433594 C-205.84292969 0.91066406 -205.27960938 0.37699219 -204.69921875 -0.17285156 C-198.40919267 -5.91994907 -191.43182154 -10.76322062 -184.40625 -15.55566406 C-183.375 -16.26078125 -182.34375 -16.96589844 -181.28125 -17.69238281 C-125.30626659 -54.03328403 -48.66201918 -43.54431884 0 0 Z M-186.59375 3.75683594 C-216.73444503 38.14751552 -229.05094781 83.26800025 -226.22021484 128.41113281 C-223.53706016 161.48333678 -211.52792486 192.82944046 -190.40625 218.44433594 C-189.81199219 219.19199219 -189.21773437 219.93964844 -188.60546875 220.70996094 C-183.88377034 226.43459768 -178.2567324 230.91698716 -172.40625 235.44433594 C-171.56320312 236.11464844 -170.72015625 236.78496094 -169.8515625 237.47558594 C-145.00960479 256.50346844 -114.29611903 263.13761715 -83.36425781 259.04150391 C-77.55985392 257.9756192 -71.98026517 256.36706658 -66.40625 254.44433594 C-65.72433594 254.21439941 -65.04242188 253.98446289 -64.33984375 253.74755859 C-32.71436962 242.81634652 -7.75000085 218.78450415 7.59375 189.44433594 C7.90054688 188.85813477 8.20734375 188.27193359 8.5234375 187.66796875 C16.35485632 172.43184304 20.91381894 156.31440554 23.59375 139.44433594 C23.76575928 138.56261719 23.93776855 137.68089844 24.11499023 136.77246094 C24.69357364 132.75040641 24.77488834 128.834339 24.796875 124.77636719 C24.80257507 123.94207687 24.80827515 123.10778656 24.81414795 122.24821472 C24.82356929 120.48067477 24.8301205 118.71311748 24.83398438 116.94555664 C24.84355674 114.31004617 24.87454984 111.67536239 24.90625 109.04003906 C25.00530925 93.40793938 23.29491997 78.1607458 18.59375 63.19433594 C18.29960205 62.24816406 18.0054541 61.30199219 17.70239258 60.32714844 C6.0104966 24.41949728 -16.61090516 -5.51409098 -50.15625 -23.30566406 C-97.53038588 -45.94889511 -151.11526949 -33.9321418 -186.59375 3.75683594 Z " fill="#0461BA" transform="translate(463.40625,401.5556640625)"/>
<path d="M0 0 C-0.57621094 0.42539062 -1.15242187 0.85078125 -1.74609375 1.2890625 C-10.45423905 7.89940503 -15.17667173 13.07373365 -17 24 C-17.27500961 27.46819283 -17.30389167 30.91946524 -17.30639648 34.39746094 C-17.31888176 35.89431175 -17.31888176 35.89431175 -17.33161926 37.42140198 C-17.35555314 40.69243352 -17.3644674 43.96326544 -17.37109375 47.234375 C-17.38006693 49.51881975 -17.3891889 51.80326393 -17.39845276 54.08770752 C-17.41489591 58.86203436 -17.42263537 63.63629141 -17.42553711 68.41064453 C-17.43094131 74.52972786 -17.46872574 80.64815747 -17.51428127 86.76705551 C-17.5439949 91.47849951 -17.5512593 96.18978421 -17.55226326 100.90131378 C-17.55647048 103.15799226 -17.56892476 105.414671 -17.58978081 107.67125702 C-17.61659909 110.82137263 -17.61189964 113.96994621 -17.59936523 117.12011719 C-17.61419952 118.05112747 -17.62903381 118.98213776 -17.64431763 119.94136047 C-17.59330858 124.43707514 -17.46503356 126.38804243 -14.66957092 130.06671143 C-11.68886185 132.22532454 -9.64023554 132.74603008 -6 133 C-6 133.66 -6 134.32 -6 135 C-21.84 135 -37.68 135 -54 135 C-54 134.34 -54 133.68 -54 133 C-53.38511719 132.84144531 -52.77023437 132.68289063 -52.13671875 132.51953125 C-51.32847656 132.28621094 -50.52023437 132.05289063 -49.6875 131.8125 C-48.88699219 131.59207031 -48.08648438 131.37164063 -47.26171875 131.14453125 C-44.12064806 129.55500843 -43.47006865 128.22093694 -42 125 C-41.53473855 121.70468976 -41.51127137 118.42983957 -41.48828125 115.10546875 C-41.47164429 114.26520142 -41.45500732 113.42493408 -41.43786621 112.5592041 C-41.38025301 109.43555451 -41.34786064 106.31148074 -41.3125 103.1875 C-41.209375 96.195625 -41.10625 89.20375 -41 82 C-58.16 82 -75.32 82 -93 82 C-92.96058621 95.70094806 -92.96058621 95.70094806 -92.90991211 109.40185547 C-92.90698703 111.14029885 -92.90443988 112.87874292 -92.90234375 114.6171875 C-92.89722778 115.4944751 -92.89211182 116.3717627 -92.88684082 117.27563477 C-92.88506055 130.11853047 -94.05731246 142.78509773 -103.328125 152.60546875 C-106.2571091 155.04856998 -109.48680077 156.57170513 -113 158 C-113.72445312 158.36222656 -114.44890625 158.72445312 -115.1953125 159.09765625 C-119.10313377 160.35490794 -122.73763815 160.21380671 -126.8125 160.125 C-127.60076172 160.11597656 -128.38902344 160.10695313 -129.20117188 160.09765625 C-131.13424666 160.07422504 -133.0671638 160.03835838 -135 160 C-132.86253728 157.72936203 -130.647862 156.04434518 -128.0625 154.3125 C-120.78409214 148.8470289 -118.8303087 140.84144452 -117.28621674 132.13476562 C-116.21500271 124.1450481 -116.5743969 115.94865712 -116.6015625 107.90625 C-116.599538 105.7844635 -116.59662344 103.66267769 -116.59286499 101.54089355 C-116.58846705 97.11996762 -116.59479582 92.69922481 -116.60888672 88.27832031 C-116.62606124 82.61461243 -116.61606926 76.95132853 -116.59816933 71.2876358 C-116.58733444 66.91761063 -116.59077505 62.54768627 -116.5985527 58.17765808 C-116.60055118 56.08847503 -116.59810784 53.99928277 -116.59111404 51.91011047 C-116.5834953 48.9977685 -116.59510615 46.08611852 -116.61181641 43.17382812 C-116.60574371 42.31455719 -116.59967102 41.45528625 -116.59341431 40.56997681 C-116.64300655 35.90446859 -116.94485009 32.77510418 -120 29 C-122.22857246 27.77828284 -122.22857246 27.77828284 -124.6875 27.1875 C-125.49574219 26.95417969 -126.30398438 26.72085937 -127.13671875 26.48046875 C-128.05904297 26.24263672 -128.05904297 26.24263672 -129 26 C-129 25.34 -129 24.68 -129 24 C-113.16 24 -97.32 24 -81 24 C-81 24.66 -81 25.32 -81 26 C-82.98567708 26.42317708 -84.97135417 26.84635417 -86.95703125 27.26953125 C-89.38666499 28.13825307 -90.38022838 28.99970825 -92 31 C-92.46918962 33.07033904 -92.46918962 33.07033904 -92.43237305 35.37963867 C-92.45231323 36.27259644 -92.47225342 37.1655542 -92.49279785 38.08557129 C-92.49904175 39.02026245 -92.50528564 39.95495361 -92.51171875 40.91796875 C-92.52835571 41.77990845 -92.54499268 42.64184814 -92.56213379 43.52990723 C-92.61995584 46.74885675 -92.65219116 49.96822482 -92.6875 53.1875 C-92.790625 60.385625 -92.89375 67.58375 -93 75 C-75.84 75 -58.68 75 -41 75 C-41.0787836 61.34403428 -41.0787836 61.34403428 -41.18017578 47.68823242 C-41.32282847 19.6894729 -41.32282847 19.6894729 -31.2265625 9.1484375 C-29.54262088 7.65568576 -27.82967444 6.30815204 -26 5 C-24.824375 4.13375 -24.824375 4.13375 -23.625 3.25 C-16.04960495 -0.35733098 -8.24582235 -0.2511418 0 0 Z " fill="#046BC4" transform="translate(895,408)"/>
<path d="M0 0 C22.25577425 14.22217007 29.78556613 41.84357016 38.95776367 65.13647461 C40.70874612 69.57966223 42.47999005 74.0143796 44.26171875 78.4453125 C44.68662598 79.50564697 45.1115332 80.56598145 45.54931641 81.65844727 C58.8626167 118.73684878 58.8626167 118.73684878 87.19921875 143.8203125 C92.14772272 145.63813028 97.01667012 146.22211894 102.26171875 146.4453125 C97.39258421 151.31444704 88.84898236 150.7271686 82.32421875 150.8203125 C75.19662519 150.79927431 69.53805473 150.05635512 63.26171875 146.4453125 C62.38515625 145.9709375 61.50859375 145.4965625 60.60546875 145.0078125 C40.254434 133.11732029 30.82635042 112.89170684 23.26171875 91.4453125 C22.93171875 89.7953125 22.60171875 88.1453125 22.26171875 86.4453125 C9.06171875 86.4453125 -4.13828125 86.4453125 -17.73828125 86.4453125 C-18.72828125 89.4153125 -19.71828125 92.3853125 -20.73828125 95.4453125 C-21.45998741 97.32319675 -22.18789087 99.19872846 -22.92578125 101.0703125 C-24.52609977 105.48200139 -25.51514633 108.78412205 -24.73828125 113.4453125 C-22.14954183 116.32168963 -19.49913984 116.92297103 -15.73828125 117.4453125 C-15.73828125 118.1053125 -15.73828125 118.7653125 -15.73828125 119.4453125 C-27.61828125 119.4453125 -39.49828125 119.4453125 -51.73828125 119.4453125 C-51.73828125 118.7853125 -51.73828125 118.1253125 -51.73828125 117.4453125 C-51.14660156 117.29835938 -50.55492187 117.15140625 -49.9453125 117 C-49.15511719 116.77570313 -48.36492188 116.55140625 -47.55078125 116.3203125 C-46.38482422 116.00707031 -46.38482422 116.00707031 -45.1953125 115.6875 C-39.16341471 112.63798728 -36.60526364 106.63088408 -34.11328125 100.6953125 C-33.77756104 99.91857178 -33.44184082 99.14183105 -33.09594727 98.34155273 C-31.96495856 95.71433625 -30.85052684 93.08051499 -29.73828125 90.4453125 C-28.92719819 88.53510748 -28.11599622 86.62495294 -27.3046875 84.71484375 C-25.97160212 81.57285864 -24.6428965 78.42927297 -23.32470703 75.28100586 C-20.84566517 69.36928039 -18.32448042 63.48254853 -15.72169495 57.62440491 C-14.31487015 54.45566464 -12.9205063 51.28149873 -11.52639771 48.10714722 C-10.8386989 46.55083369 -10.14497936 44.99716558 -9.44503784 43.44631958 C-8.45950428 41.26110607 -7.49549626 39.06747205 -6.53515625 36.87109375 C-6.08762749 35.9007016 -6.08762749 35.9007016 -5.63105774 34.91070557 C-3.67920499 30.3694109 -3.61915743 27.22935604 -4.73828125 22.4453125 C-8.12394534 15.2288105 -14.14397747 8.37339289 -21.55859375 5.26171875 C-25.04200878 4.3673284 -28.02317387 4.247045 -31.61328125 4.3203125 C-32.76570312 4.33835937 -33.918125 4.35640625 -35.10546875 4.375 C-35.97429688 4.39820313 -36.843125 4.42140625 -37.73828125 4.4453125 C-37.73828125 3.7853125 -37.73828125 3.1253125 -37.73828125 2.4453125 C-26.12971211 -3.20755595 -12.17169283 -5.9101938 0 0 Z " fill="#0467C0" transform="translate(581.73828125,423.5546875)"/>
<path d="M0 0 C0.75410156 0.00322266 1.50820312 0.00644531 2.28515625 0.00976562 C3.06246094 0.01814453 3.83976562 0.02652344 4.640625 0.03515625 C5.43339844 0.03966797 6.22617188 0.04417969 7.04296875 0.04882812 C8.99222008 0.0605706 10.94143238 0.07850479 12.890625 0.09765625 C12.890625 0.75765625 12.890625 1.41765625 12.890625 2.09765625 C12.06820313 2.18402344 11.24578125 2.27039063 10.3984375 2.359375 C-2.4055397 3.97096105 -11.36277914 8.48318111 -20.109375 18.09765625 C-24.91780346 24.36129466 -28.83156494 30.89038725 -32.296875 37.97265625 C-32.99224365 39.3793457 -32.99224365 39.3793457 -33.70166016 40.81445312 C-39.0560821 51.80652389 -43.77154571 63.07085214 -48.51513672 74.3359375 C-51.57292173 81.57297244 -54.7272212 88.76892346 -57.86297607 95.97241211 C-60.47472411 101.97455851 -63.07134614 107.97954182 -65.56640625 114.03125 C-68.51362034 121.14163271 -71.68856771 128.14769173 -74.859375 135.16015625 C-75.74373404 137.1167946 -76.62756168 139.07366323 -77.50958252 141.03135681 C-78.29893164 142.78333702 -79.09032255 144.53439689 -79.88183594 146.28540039 C-81.15849438 149.09552046 -81.15849438 149.09552046 -82.109375 152.09765625 C-83.099375 152.09765625 -84.089375 152.09765625 -85.109375 152.09765625 C-85.41415771 151.4327417 -85.71894043 150.76782715 -86.03295898 150.08276367 C-93.07315059 134.75341902 -100.29137808 119.52327655 -107.69915771 104.36813354 C-113.20236288 93.10473844 -118.53180972 81.7752447 -123.76269531 70.38305664 C-127.17019714 63.0035967 -130.7723553 55.79266861 -134.71875 48.6875 C-136.109375 46.09765625 -136.109375 46.09765625 -137.109375 43.09765625 C-139.43828596 42.07065181 -139.43828596 42.07065181 -142.171875 41.41015625 C-143.55052734 41.03310547 -143.55052734 41.03310547 -144.95703125 40.6484375 C-145.66730469 40.46667969 -146.37757813 40.28492188 -147.109375 40.09765625 C-147.109375 39.43765625 -147.109375 38.77765625 -147.109375 38.09765625 C-131.599375 38.09765625 -116.089375 38.09765625 -100.109375 38.09765625 C-100.109375 38.75765625 -100.109375 39.41765625 -100.109375 40.09765625 C-101.07875 40.40703125 -102.048125 40.71640625 -103.046875 41.03515625 C-105.95003292 41.79288967 -105.95003292 41.79288967 -107.109375 43.09765625 C-107.86835552 49.01957835 -105.51184152 53.38806736 -103.046875 58.59765625 C-102.67626953 59.4071875 -102.30566406 60.21671875 -101.92382812 61.05078125 C-99.63900577 65.99674964 -97.2235904 70.86850595 -94.765625 75.73046875 C-90.82822101 83.53740668 -87.24199214 91.49272592 -83.671875 99.47265625 C-83.02956563 100.90246451 -82.38698866 102.33215259 -81.74414062 103.76171875 C-80.19614753 107.20566132 -78.65172475 110.65118288 -77.109375 114.09765625 C-74.58017144 111.56845269 -73.58417512 108.76094921 -72.265625 105.50390625 C-71.98436768 104.82142822 -71.70311035 104.1389502 -71.41333008 103.43579102 C-70.79887516 101.94425797 -70.18649947 100.4518671 -69.57592773 98.95874023 C-67.91256875 94.89550589 -66.22864402 90.84079718 -64.546875 86.78515625 C-64.01398865 85.49877258 -64.01398865 85.49877258 -63.47033691 84.18640137 C-59.61520372 74.8882739 -55.71718015 65.60867809 -51.77661133 56.34643555 C-51.00646751 54.53278794 -50.23931121 52.71786843 -49.4753418 50.90161133 C-41.02083889 30.8112432 -31.48814156 10.76271328 -10.15234375 1.82421875 C-6.70998594 0.59997678 -3.65969725 -0.02772498 0 0 Z " fill="#0673CB" transform="translate(1107.109375,393.90234375)"/>
<path d="M0 0 C0 8.25 0 16.5 0 25 C-0.66 25 -1.32 25 -2 25 C-2.08636719 24.41992188 -2.17273437 23.83984375 -2.26171875 23.2421875 C-3.31047473 17.4114891 -4.68681845 14.11256846 -9 10 C-16.04795871 6.86947474 -16.04795871 6.86947474 -33 7 C-33 22.84 -33 38.68 -33 55 C-28.17375 54.9175 -23.3475 54.835 -18.375 54.75 C-16.10761963 54.72631348 -16.10761963 54.72631348 -13.79443359 54.70214844 C-11.98966553 54.65622559 -11.98966553 54.65622559 -10.1484375 54.609375 C-8.92302246 54.58842773 -7.69760742 54.56748047 -6.43505859 54.54589844 C-2.38664952 53.90252653 -0.19017183 52.52810515 3 50 C4.50518123 47.93923226 4.50518123 47.93923226 5.375 45.75 C5.85066406 44.69039063 5.85066406 44.69039063 6.3359375 43.609375 C6.55507812 43.07828125 6.77421875 42.5471875 7 42 C7.66 42 8.32 42 9 42 C9 52.89 9 63.78 9 75 C8.34 75 7.68 75 7 75 C6.81824219 74.45730469 6.63648438 73.91460937 6.44921875 73.35546875 C6.19785156 72.64003906 5.94648437 71.92460937 5.6875 71.1875 C5.44386719 70.47980469 5.20023438 69.77210938 4.94921875 69.04296875 C3.35706353 65.61623139 1.84076023 64.33094971 -1.69116211 62.94067383 C-5.15328108 61.95642352 -8.11843224 61.68481379 -11.7109375 61.5859375 C-12.83290527 61.55032715 -13.95487305 61.5147168 -15.11083984 61.47802734 C-16.5180127 61.44402832 -17.92518555 61.4100293 -19.375 61.375 C-23.87125 61.25125 -28.3675 61.1275 -33 61 C-33 75.52 -33 90.04 -33 105 C-23.409375 104.87625 -23.409375 104.87625 -13.625 104.75 C-11.62775879 104.73420898 -9.63051758 104.71841797 -7.57275391 104.70214844 C8.01898191 104.53509268 8.01898191 104.53509268 20.8125 96.375 C24.30982711 91.98262235 26.7269675 87.11170443 29 82 C29.66 82 30.32 82 31 82 C29.84194871 88.91783272 28.43979346 95.77503081 26.9375 102.625 C26.67598145 103.83422119 26.67598145 103.83422119 26.40917969 105.06787109 C25.11903918 110.88096082 25.11903918 110.88096082 24 112 C21.13908182 112.09522418 18.30236379 112.12553326 15.44116211 112.11352539 C14.54368759 112.11367142 13.64621307 112.11381744 12.72154236 112.1139679 C9.74011866 112.11326842 6.7587566 112.10547441 3.77734375 112.09765625 C1.71611058 112.09579219 -0.34512304 112.09436823 -2.40635681 112.09336853 C-7.8430401 112.08954237 -13.27969686 112.07971126 -18.71636963 112.06866455 C-24.25947714 112.05845253 -29.80258892 112.05387136 -35.34570312 112.04882812 C-46.23048043 112.03808908 -57.11523802 112.02101149 -68 112 C-68 111.34 -68 110.68 -68 110 C-67.37351562 109.81824219 -66.74703125 109.63648438 -66.1015625 109.44921875 C-65.28429688 109.19785156 -64.46703125 108.94648437 -63.625 108.6875 C-62.81289062 108.44386719 -62.00078125 108.20023438 -61.1640625 107.94921875 C-58.66815371 107.08631815 -58.66815371 107.08631815 -57 104 C-56.7994885 100.9349027 -56.71673187 97.9604007 -56.7253418 94.89453125 C-56.72023087 93.96256927 -56.71511993 93.0306073 -56.70985413 92.07040405 C-56.69593379 88.98437104 -56.69691656 85.89856071 -56.69921875 82.8125 C-56.69533352 80.67163001 -56.69099921 78.53076079 -56.68623352 76.38989258 C-56.67876631 71.90085349 -56.67906649 67.41189305 -56.68432617 62.92285156 C-56.69012521 57.16227457 -56.67318162 51.40201863 -56.6499815 45.64149475 C-56.63527126 41.22007354 -56.6343687 36.79873016 -56.63749123 32.37728882 C-56.63697677 30.25295373 -56.6317159 28.12861442 -56.62167931 26.00430298 C-56.60938307 23.03781065 -56.6160653 20.07195048 -56.62768555 17.10546875 C-56.62004181 16.22329681 -56.61239807 15.34112488 -56.60452271 14.43222046 C-56.61153702 13.62467316 -56.61855133 12.81712585 -56.6257782 11.98510742 C-56.62561046 11.28383224 -56.62544271 10.58255707 -56.62526989 9.86003113 C-57.11577622 7.42532677 -58.09298343 6.54124188 -60 5 C-62.03341887 4.22186348 -62.03341887 4.22186348 -64.1875 3.8125 C-65.445625 3.544375 -66.70375 3.27625 -68 3 C-68 2.34 -68 1.68 -68 1 C-60.31515065 0.86881892 -52.6302891 0.73837411 -44.94541168 0.60884857 C-41.37636204 0.54867097 -37.80731692 0.48824736 -34.23828125 0.42724609 C-30.78884346 0.36829828 -27.33939498 0.31001686 -23.88993835 0.25218201 C-21.94472494 0.21939844 -19.99952296 0.18593895 -18.05432129 0.15246582 C-16.85368042 0.13244507 -15.65303955 0.11242432 -14.41601562 0.09179688 C-13.36788696 0.07403198 -12.3197583 0.05626709 -11.23986816 0.03796387 C-7.49348126 -0.00593524 -3.74664409 0 0 0 Z " fill="#0673CB" transform="translate(1261,431)"/>
<path d="M0 0 C0.95458649 8.35263176 1.11039334 16.59784035 1 25 C0.34 25 -0.32 25 -1 25 C-1.15855469 24.33613281 -1.31710937 23.67226563 -1.48046875 22.98828125 C-2.95286557 17.41595074 -4.15653376 13.5225209 -9 10 C-17.19848148 7.39238359 -17.19848148 7.39238359 -31 7 C-31 22.84 -31 38.68 -31 55 C-26.524375 54.896875 -22.04875 54.79375 -17.4375 54.6875 C-16.03943115 54.66260498 -14.6413623 54.63770996 -13.20092773 54.61206055 C-4.18290588 54.37335645 -4.18290588 54.37335645 4 51 C6.35322796 48.09587454 6.35322796 48.09587454 8 45 C8.66 44.01 9.32 43.02 10 42 C10 52.89 10 63.78 10 75 C9.34 73.68 8.68 72.36 8 71 C5.71415705 66.85161835 3.83602556 64.39113027 -0.61694336 62.60913086 C-6.08256161 61.21206934 -11.82822645 61.41238276 -17.4375 61.3125 C-24.1509375 61.1578125 -24.1509375 61.1578125 -31 61 C-31 75.52 -31 90.04 -31 105 C-21.409375 104.87625 -21.409375 104.87625 -11.625 104.75 C-9.62775879 104.73420898 -7.63051758 104.71841797 -5.57275391 104.70214844 C10.06051725 104.52267876 10.06051725 104.52267876 22.875 96.3125 C26.11622676 92.24372598 28.19090272 87.85422376 30 83 C30.66 83 31.32 83 32 83 C31 92 31 92 26 112 C-4.36 112 -34.72 112 -66 112 C-66 111.34 -66 110.68 -66 110 C-64.046875 109.64192708 -62.09375 109.28385417 -60.140625 108.92578125 C-56.96292157 107.5514825 -55.85180457 105.92965752 -54 103 C-53.42916561 100.01877585 -53.4733785 97.094225 -53.51416016 94.06640625 C-53.51036346 93.17637909 -53.50656677 92.28635193 -53.50265503 91.36935425 C-53.4952581 88.43337531 -53.5166201 85.49839069 -53.5390625 82.5625 C-53.54144756 80.51896277 -53.54235212 78.47542332 -53.5418396 76.43188477 C-53.54496615 72.15139008 -53.56152041 67.87123066 -53.58837891 63.59082031 C-53.62235833 58.10629757 -53.63000735 52.62214314 -53.62848854 47.13752747 C-53.62903263 42.91846201 -53.64000603 38.69947693 -53.65449142 34.48043823 C-53.6608519 32.45824797 -53.66479656 30.4360486 -53.66627884 28.41384888 C-53.67061977 25.58693969 -53.688138 22.76041925 -53.70947266 19.93359375 C-53.7081131 18.68193924 -53.7081131 18.68193924 -53.70672607 17.40499878 C-53.75296222 13.21093822 -53.89212785 9.75278952 -56 6 C-58.37877435 4.75607124 -58.37877435 4.75607124 -61.125 4.1875 C-62.49011719 3.83751953 -62.49011719 3.83751953 -63.8828125 3.48046875 C-64.58148437 3.32191406 -65.28015625 3.16335938 -66 3 C-66 2.34 -66 1.68 -66 1 C-58.42826242 0.86890865 -50.85651383 0.73846962 -43.28475094 0.60884857 C-39.76836031 0.54863128 -36.25197374 0.48819473 -32.7355957 0.42724609 C-28.68702295 0.35708287 -24.63843405 0.28789312 -20.58984375 0.21875 C-19.33541977 0.19687622 -18.08099579 0.17500244 -16.78855896 0.15246582 C-11.19159654 0.05755957 -5.59779452 -0.02887321 0 0 Z " fill="#036FC9" transform="translate(1154,431)"/>
<path d="M0 0 C2.56640625 0.88671875 2.56640625 0.88671875 4.2265625 3.1171875 C13.84118499 23.39091793 13.84118499 23.39091793 12.56640625 32.88671875 C10.66015625 35.08984375 10.66015625 35.08984375 8.06640625 37.13671875 C2.7765368 41.6007436 -1.33943709 46.32286483 -5.43359375 51.88671875 C-6.11808594 52.80582031 -6.80257812 53.72492187 -7.5078125 54.671875 C-20.39291714 72.5999829 -34.36485007 92.99775499 -32.43359375 115.88671875 C-19.5729697 114.20007953 -11.4966139 105.32218426 -2.91162109 96.34301758 C1.18233843 92.09432835 5.4367709 87.87684385 10.56640625 84.88671875 C13.56640625 85.01171875 13.56640625 85.01171875 15.56640625 85.88671875 C15.88956393 92.67302997 15.02779664 97.59532004 12.56640625 103.88671875 C12.28796875 104.70269531 12.00953125 105.51867187 11.72265625 106.359375 C7.3011631 118.6900046 -1.51112453 127.08704202 -12.43359375 133.88671875 C-13.38234375 134.50546875 -14.33109375 135.12421875 -15.30859375 135.76171875 C-22.443354 138.33023244 -30.39045618 137.3518169 -37.43359375 134.88671875 C-43.38938736 131.762368 -46.95687502 127.5937597 -48.99609375 121.09375 C-51.56555418 108.13173977 -48.34426143 100.42529395 -41.51855469 89.6484375 C-35.81664992 80.38989907 -32.40490171 69.46442658 -28.4230957 59.38183594 C-27.4075104 56.82094725 -26.37776512 54.26601383 -25.34765625 51.7109375 C-23.763876 47.75515573 -22.28409884 43.781555 -20.87109375 39.76171875 C-19.11648297 34.77977469 -17.29843566 29.82800689 -15.43359375 24.88671875 C-15.15974854 24.15275879 -14.88590332 23.41879883 -14.60375977 22.66259766 C-13.74262143 20.35916957 -12.87016252 18.06026766 -11.99609375 15.76171875 C-11.70927734 14.98957031 -11.42246094 14.21742188 -11.12695312 13.421875 C-5.88887627 -0.27412105 -5.88887627 -0.27412105 0 0 Z " fill="#DF2529" transform="translate(357.43359375,475.11328125)"/>
<path d="M0 0 C0.81796555 0.32498978 1.63593109 0.64997955 2.47868347 0.9848175 C6.50206066 2.14474223 10.19587482 2.27360609 14.34106445 2.24291992 C15.15653748 2.24481827 15.9720105 2.24671661 16.81219482 2.24867249 C19.49598954 2.25236333 22.17951074 2.24169669 24.86328125 2.23046875 C26.73886585 2.22927543 28.61445105 2.22882411 30.49003601 2.2290802 C34.41811881 2.22751803 38.34611014 2.21925108 42.27416992 2.20581055 C47.29074482 2.18885649 52.30721897 2.18499547 57.32381916 2.18575573 C61.19731088 2.18548272 65.0707809 2.17998003 68.94426537 2.17275429 C70.79289778 2.16958798 72.64153264 2.16760502 74.49016762 2.16686058 C77.08373754 2.16467322 79.67720448 2.15587705 82.27075195 2.14526367 C83.40029549 2.14594345 83.40029549 2.14594345 84.55265808 2.14663696 C91.83131767 2.10345545 98.82237494 1.19627084 106 0 C106 8.58 106 17.16 106 26 C105.34 26 104.68 26 104 26 C103.82984375 25.32453125 103.6596875 24.6490625 103.484375 23.953125 C101.75679558 17.03492851 101.75679558 17.03492851 97 12 C92.81656766 10.37232405 89.20259055 9.71888883 84.7265625 9.5859375 C83.57285156 9.54726563 82.41914062 9.50859375 81.23046875 9.46875 C80.04066406 9.4378125 78.85085938 9.406875 77.625 9.375 C76.41199219 9.33632813 75.19898438 9.29765625 73.94921875 9.2578125 C70.96629479 9.16386214 67.98337175 9.07819193 65 9 C65.0611662 21.57829133 65.13824005 34.15637439 65.23571491 46.73443985 C65.28047298 52.57473628 65.31971719 58.41496207 65.34643555 64.25537109 C65.37241416 69.89000568 65.4127781 75.52436921 65.46318626 81.15883636 C65.47989182 83.31021508 65.49138306 85.46164071 65.49761391 87.61307526 C65.5072148 90.62287419 65.53522629 93.63197387 65.56762695 96.64160156 C65.56619186 97.5342421 65.56475677 98.42688263 65.5632782 99.34657288 C65.62832213 104.14195543 65.62832213 104.14195543 67.38566589 108.53314209 C69.4321509 110.3926721 70.97862773 110.77889178 73.6875 111.25 C74.49574219 111.39953125 75.30398438 111.5490625 76.13671875 111.703125 C76.75160156 111.80109375 77.36648438 111.8990625 78 112 C78 112.66 78 113.32 78 114 C61.83 114 45.66 114 29 114 C29 113.34 29 112.68 29 112 C29.69867187 111.81824219 30.39734375 111.63648438 31.1171875 111.44921875 C32.02726563 111.19785156 32.93734375 110.94648437 33.875 110.6875 C34.77992188 110.44386719 35.68484375 110.20023438 36.6171875 109.94921875 C39.32113319 109.13330148 39.32113319 109.13330148 41 106 C41.30876873 104.07652207 41.30876873 104.07652207 41.2784729 101.95674133 C41.28963638 101.1364444 41.30079987 100.31614746 41.31230164 99.47099304 C41.31446182 98.57475723 41.31662201 97.67852142 41.31884766 96.75512695 C41.33391609 95.33532532 41.33391609 95.33532532 41.34928894 93.88684082 C41.38021307 90.75399389 41.39718177 87.62123276 41.4140625 84.48828125 C41.43276672 82.31779741 41.45233956 80.1473209 41.4727478 77.97685242 C41.52415381 72.26077589 41.56373422 66.54467576 41.60089111 60.82849121 C41.64087769 54.99692914 41.69199439 49.16546595 41.7421875 43.33398438 C41.83904706 31.88939229 41.92341973 20.44474448 42 9 C37.83663329 9.04434808 33.67470135 9.11437952 29.51220703 9.20751953 C28.09826552 9.23562392 26.68416998 9.25689067 25.27001953 9.27099609 C23.22869616 9.29257456 21.18920401 9.33929086 19.1484375 9.390625 C17.31031494 9.4220459 17.31031494 9.4220459 15.43505859 9.45410156 C11.38951172 10.09701861 9.19149558 11.47935839 6 14 C4.52847817 15.92267149 4.52847817 15.92267149 3.6875 18 C3.38199219 18.66 3.07648437 19.32 2.76171875 20 C2.00691478 21.98184428 1.46603392 23.93283962 1 26 C0.34 26 -0.32 26 -1 26 C-1.0291544 22.60418484 -1.04685068 19.20840214 -1.0625 15.8125 C-1.07087891 14.85279297 -1.07925781 13.89308594 -1.08789062 12.90429688 C-1.09111328 11.97294922 -1.09433594 11.04160156 -1.09765625 10.08203125 C-1.10289307 9.22843018 -1.10812988 8.3748291 -1.11352539 7.49536133 C-0.99579323 4.90753253 -0.57107044 2.52338047 0 0 Z " fill="#056CC5" transform="translate(649,429)"/>
<path d="M0 0 C0 0.66 0 1.32 0 2 C-0.78375 2.268125 -1.5675 2.53625 -2.375 2.8125 C-5.28114923 3.84814432 -5.28114923 3.84814432 -7 7 C-7.30710784 8.90859294 -7.30710784 8.90859294 -7.27415466 11.00961304 C-7.28412979 11.82268417 -7.29410492 12.63575531 -7.30438232 13.47346497 C-7.30537933 14.80603584 -7.30537933 14.80603584 -7.30639648 16.16552734 C-7.31472 17.1040303 -7.32304352 18.04253326 -7.33161926 19.00947571 C-7.35575548 22.11833825 -7.36449573 25.22699114 -7.37109375 28.3359375 C-7.38005714 30.49443628 -7.38917893 32.65293441 -7.39845276 34.81143188 C-7.41495504 39.33914705 -7.42264517 43.86678815 -7.42553711 48.39453125 C-7.43092291 54.19768182 -7.46860632 60.00013696 -7.51428127 65.80309105 C-7.54401609 70.26234482 -7.55125989 74.72143039 -7.55226326 79.18077469 C-7.55647246 81.3202292 -7.56893466 83.4596839 -7.58978081 85.59904099 C-7.61662111 88.59177615 -7.6118914 91.58288974 -7.59936523 94.57568359 C-7.61419952 95.46001572 -7.62903381 96.34434784 -7.64431763 97.25547791 C-7.59197614 101.64446923 -7.42168533 103.45023832 -4.66957092 107.03823853 C-1.68731394 109.22978054 0.34091466 109.74471498 4 110 C4 110.66 4 111.32 4 112 C-11.18 112 -26.36 112 -42 112 C-42 111.34 -42 110.68 -42 110 C-41.44570313 109.82984375 -40.89140625 109.6596875 -40.3203125 109.484375 C-39.59585938 109.24203125 -38.87140625 108.9996875 -38.125 108.75 C-37.40570312 108.51796875 -36.68640625 108.2859375 -35.9453125 108.046875 C-33.4574529 106.70802686 -33.05741357 105.58789166 -32 103 C-31.69457009 100.99063407 -31.69457009 100.99063407 -31.7215271 98.87445068 C-31.71036362 98.06119324 -31.69920013 97.24793579 -31.68769836 96.41003418 C-31.68553818 95.52674438 -31.68337799 94.64345459 -31.68115234 93.73339844 C-31.66608391 92.32800812 -31.66608391 92.32800812 -31.65071106 90.89422607 C-31.61983568 87.79928192 -31.6028317 84.70442445 -31.5859375 81.609375 C-31.56722937 79.4627406 -31.54765623 77.31611358 -31.5272522 75.16949463 C-31.47588758 69.52083687 -31.43628494 63.87215526 -31.39910889 58.22338867 C-31.35909645 52.45876138 -31.3079915 46.69423368 -31.2578125 40.9296875 C-31.1610019 29.61986159 -31.07661347 18.3099795 -31 7 C-33.71037002 7.2565495 -36.41734615 7.52971049 -39.125 7.8125 C-39.88554688 7.88275391 -40.64609375 7.95300781 -41.4296875 8.02539062 C-47.4163914 8.67050958 -51.90463067 10.06581293 -56.4375 14.25 C-58.27880622 16.98019867 -58.27880622 16.98019867 -58.0625 20.5 C-56.80066208 24.65664255 -55.42034408 26.35700685 -52 29 C-49.32209104 29.87238858 -49.32209104 29.87238858 -47 30 C-47 30.66 -47 31.32 -47 32 C-51.64631139 32.37170491 -55.0821665 32.42492292 -59.375 30.4375 C-63.29957561 26.79325122 -64.68717992 23.18974056 -65.4375 17.9375 C-64.54442225 11.94112084 -60.81718066 8.5276094 -56.171875 5.078125 C-48.30173233 1.17136353 -39.6451109 1.60525529 -31.0625 1.4375 C-20.70753165 1.19974548 -10.32367474 -0.21965265 0 0 Z " fill="#046CC6" transform="translate(954,431)"/>
<path d="M0 0 C-0.51570579 5.54383727 -1.94891904 9.69938138 -4.5 14.625 C-4.85747314 15.32230225 -5.21494629 16.01960449 -5.58325195 16.73803711 C-10.81076139 26.69676625 -17.33192673 35.42455534 -24.625 43.9375 C-25.1511792 44.55246338 -25.6773584 45.16742676 -26.21948242 45.80102539 C-29.40387012 49.43020701 -32.7364577 52.61295778 -36.49755859 55.64282227 C-38.25874823 57.12204351 -38.25874823 57.12204351 -40 60 C-40.99 60 -41.98 60 -43 60 C-43.84681389 56.16951846 -44.67497971 52.33522945 -45.5 48.5 C-45.73847656 47.42234375 -45.97695313 46.3446875 -46.22265625 45.234375 C-47.47692438 39.35723292 -48.29171123 34.0092513 -48 28 C-47.07960938 27.53851563 -46.15921875 27.07703125 -45.2109375 26.6015625 C-32.01571695 19.8554247 -20.56182089 11.56033047 -9.328125 1.93359375 C-5.72100035 -1.06225642 -4.48228641 -1.06159415 0 0 Z " fill="#E1262A" transform="translate(430,428)"/>
<path d="M0 0 C0.99 0 1.98 0 3 0 C3.27150879 0.79994385 3.54301758 1.5998877 3.82275391 2.42407227 C10.89990209 23.40221833 10.89990209 23.40221833 19 44 C21.97 44.33 24.94 44.66 28 45 C28.0538854 41.89560214 28.09361739 38.79213693 28.125 35.6875 C28.14175781 34.80642578 28.15851562 33.92535156 28.17578125 33.01757812 C28.18222656 32.17001953 28.18867187 31.32246094 28.1953125 30.44921875 C28.20578613 29.66893311 28.21625977 28.88864746 28.22705078 28.0847168 C28.12880859 25.6934152 28.12880859 25.6934152 26 23 C28.97 22.01 31.94 21.02 35 20 C35.495 21.485 35.495 21.485 36 23 C36.37125 22.505 36.7425 22.01 37.125 21.5 C39.79160885 19.36671292 41.67893663 19.64669539 45 20 C45.99 20.99 45.99 20.99 47 22 C46.625 24.125 46.625 24.125 46 26 C45.04287109 25.98259766 45.04287109 25.98259766 44.06640625 25.96484375 C43.24011719 25.95582031 42.41382813 25.94679688 41.5625 25.9375 C40.73878906 25.92589844 39.91507813 25.91429687 39.06640625 25.90234375 C37.00836062 25.76732652 37.00836062 25.76732652 36 27 C35.84417697 28.34015221 35.74955858 29.68758903 35.68359375 31.03515625 C35.62075195 32.24848633 35.62075195 32.24848633 35.55664062 33.48632812 C35.51732422 34.33646484 35.47800781 35.18660156 35.4375 36.0625 C35.37272461 37.34350586 35.37272461 37.34350586 35.30664062 38.65039062 C35.20023298 40.76672037 35.09958269 42.88333813 35 45 C36.65 45.33 38.3 45.66 40 46 C40 46.33 40 46.66 40 47 C27.79 47 15.58 47 3 47 C3 46.34 3 45.68 3 45 C5.475 44.505 5.475 44.505 8 44 C7.52434492 39.87765597 6.95571265 36.65066361 5 33 C5 32.01 5 31.02 5 30 C0.38 30 -4.24 30 -9 30 C-10.7239698 36.91819583 -10.7239698 36.91819583 -11 44 C-9.35 44.66 -7.7 45.32 -6 46 C-6 46.33 -6 46.66 -6 47 C-11.28 47 -16.56 47 -22 47 C-22 46.34 -22 45.68 -22 45 C-21.22398437 44.74992188 -20.44796875 44.49984375 -19.6484375 44.2421875 C-14.42235446 41.79101581 -13.09090048 35.94646901 -11.17871094 30.78173828 C-9.64962031 26.52334901 -8.17611664 22.24690022 -6.71484375 17.96484375 C-4.6432271 11.9101524 -2.35602984 5.94978963 0 0 Z " fill="#DA1E28" transform="translate(559,595)"/>
<path d="M0 0 C1.9996441 0.03772913 4.00054061 0.04649906 6 0 C6 1.32 6 2.64 6 4 C4.35 4 2.7 4 1 4 C1.12375 5.5778125 1.12375 5.5778125 1.25 7.1875 C0.95996417 11.61054645 0.13119118 12.95578635 -3 16 C-5.92620792 17.74208565 -8.37240857 18.32697723 -11.75 18.625 C-12.54921875 18.69976563 -13.3484375 18.77453125 -14.171875 18.8515625 C-14.77515625 18.90054688 -15.3784375 18.94953125 -16 19 C-16 19.99 -16 20.98 -16 22 C-14.98679687 22.01417969 -13.97359375 22.02835938 -12.9296875 22.04296875 C-0.73693413 22.39823015 -0.73693413 22.39823015 2.9375 25.125 C5 28 5 28 5.6875 31.4375 C4.82060604 35.92958687 3.2880651 37.85807112 0 41 C-3.73435671 42.86400827 -6.84634058 43.2966059 -11 43.3125 C-12.010625 43.32925781 -13.02125 43.34601562 -14.0625 43.36328125 C-17.43784485 42.94585163 -19.29722971 42.03910072 -22 40 C-23.125 37.1875 -23.125 37.1875 -23 34 C-21.55189461 31.66075284 -19.94324573 29.99064196 -18 28 C-18.99 27.67 -19.98 27.34 -21 27 C-21.36923077 20.6 -21.36923077 20.6 -19.5 17.5625 C-19.005 17.046875 -18.51 16.53125 -18 16 C-18.495 15.484375 -18.99 14.96875 -19.5 14.4375 C-21.57700386 11.06236872 -21.47919182 8.90199054 -21 5 C-15.86937043 -2.86696534 -8.46962711 -1.88213936 0 0 Z " fill="#DD2630" transform="translate(863,616)"/>
<path d="M0 0 C0.00879936 0.82019119 0.00879936 0.82019119 0.01777649 1.6569519 C0.08158104 7.33463519 0.16596575 13.01174479 0.26245117 18.68896484 C0.2957596 20.80933074 0.3237729 22.92978657 0.34643555 25.05029297 C0.37987303 28.09381535 0.43218253 31.13650912 0.48828125 34.1796875 C0.49467117 35.13181122 0.5010611 36.08393494 0.50764465 37.06491089 C0.53733589 38.38605392 0.53733589 38.38605392 0.56762695 39.73388672 C0.57873001 40.51110077 0.58983307 41.28831482 0.60127258 42.08908081 C0.85203989 44.40778655 0.85203989 44.40778655 4 46 C0.7 46.99 -2.6 47.98 -6 49 C-6 48.34 -6 47.68 -6 47 C-6.83724609 47.23589844 -6.83724609 47.23589844 -7.69140625 47.4765625 C-11.80381091 48.40898589 -15.82245847 48.60259513 -20 48 C-23.76041161 45.2580332 -25.8213751 42.50020417 -27 38 C-27.62530499 32.26803759 -26.56920127 29.48699588 -23 25 C-20.83229916 22.38069482 -19.37480301 21.46872264 -16 21 C-12.30493178 20.87034848 -9.51784183 20.82738606 -6 22 C-6.0867572 19.37335097 -6.19357981 16.75021918 -6.3125 14.125 C-6.33505859 13.37863281 -6.35761719 12.63226562 -6.38085938 11.86328125 C-6.47811945 9.900396 -6.73042294 7.94671678 -7 6 C-7.99 5.34 -8.98 4.68 -10 4 C-10 3.34 -10 2.68 -10 2 C-8.7090864 1.66376204 -7.41723903 1.33110751 -6.125 1 C-5.40570312 0.814375 -4.68640625 0.62875 -3.9453125 0.4375 C-2 0 -2 0 0 0 Z " fill="#DE2D37" transform="translate(1115,594)"/>
<path d="M0 0 C0.33 0.66 0.66 1.32 1 2 C1.99 1.34 2.98 0.68 4 0 C7.7411579 -0.67697143 11.43405275 -0.82922523 14.8515625 0.98046875 C17.66843807 3.23535683 20.00488044 5.51708153 21 9 C21.45042231 14.58523668 21.25122574 18.23153558 18 23 C13.55241656 27.1221505 9.96640433 27.40509346 4.171875 27.23828125 C2 27 2 27 0 26 C0.06002758 28.44012105 0.14700204 30.87413526 0.25 33.3125 C0.26417969 34.00279297 0.27835938 34.69308594 0.29296875 35.40429688 C0.36309412 37.69686723 0.36309412 37.69686723 1 41 C2.32 41.99 3.64 42.98 5 44 C-0.28 44 -5.56 44 -11 44 C-9.68 43.01 -8.36 42.02 -7 41 C-6.60647347 38.25010174 -6.46221825 35.90485502 -6.50390625 33.15625 C-6.50245102 32.39074829 -6.50099579 31.62524658 -6.49949646 30.83654785 C-6.50115527 29.21928092 -6.51271477 27.60199817 -6.53344727 25.98486328 C-6.5623976 23.50875836 -6.55405862 21.03479499 -6.54101562 18.55859375 C-6.54725334 16.98696876 -6.55564455 15.41535053 -6.56640625 13.84375 C-6.56347061 13.10306274 -6.56053497 12.36237549 -6.55751038 11.59924316 C-6.61171797 7.51032939 -6.61171797 7.51032939 -8.52709961 4.00976562 C-9.01315674 3.67654297 -9.49921387 3.34332031 -10 3 C-6.27034861 0.96564469 -4.33094958 0 0 0 Z " fill="#DA2631" transform="translate(1258,615)"/>
<path d="M0 0 C3.6875 0.375 3.6875 0.375 5.71875 2.5 C7.76451097 5.48746047 9.30646629 8.48899906 10.875 11.75 C14.88859699 19.31507406 19.73651574 23.99592922 27.6875 27.25 C34.72706862 29.3026828 42.40699247 29.13259504 49.6875 29.375 C48.6875 36.80357143 48.6875 36.80357143 47.6875 40.375 C32.16390192 40.89502128 20.54453307 39.22903672 8.4609375 28.375 C2.3910581 22.00045484 -3.97792498 13.50863544 -4.5625 4.5390625 C-4.24180005 0.48020378 -4.24180005 0.48020378 0 0 Z " fill="#E12528" transform="translate(286.3125,439.625)"/>
<path d="M0 0 C1.58490928 2.37736391 2.64914318 4.32781694 3.734375 6.921875 C4.22067383 8.07901001 4.22067383 8.07901001 4.71679688 9.25952148 C5.22823242 10.49230835 5.22823242 10.49230835 5.75 11.75 C6.10126953 12.59312744 6.45253906 13.43625488 6.81445312 14.30493164 C7.53248837 16.03274467 8.24863196 17.76134501 8.96289062 19.49072266 C9.62521807 21.09321829 10.29030646 22.69457743 10.95898438 24.29443359 C11.8133862 26.33915988 12.658317 28.38751134 13.5 30.4375 C14.22703125 32.19900391 14.22703125 32.19900391 14.96875 33.99609375 C16 37 16 37 16 41 C5.44 41 -5.12 41 -16 41 C-14.87488827 34.2493296 -14.87488827 34.2493296 -13.6171875 31.21362305 C-13.3402002 30.53659836 -13.06321289 29.85957367 -12.77783203 29.16203308 C-12.47989746 28.45242935 -12.18196289 27.74282562 -11.875 27.01171875 C-11.56804199 26.26791458 -11.26108398 25.52411041 -10.94482422 24.75776672 C-10.29886066 23.19592529 -9.6498811 21.63532818 -8.99804688 20.07592773 C-7.99701992 17.68036836 -7.00558084 15.2810122 -6.015625 12.88085938 C-5.38596966 11.36174984 -4.75578025 9.84286153 -4.125 8.32421875 C-3.82706543 7.60449387 -3.52913086 6.88476898 -3.22216797 6.14323425 C-1.11665773 1.11665773 -1.11665773 1.11665773 0 0 Z " fill="#F6F9FB" transform="translate(584,462)"/>
<path d="M0 0 C2.578125 0.91796875 2.578125 0.91796875 4.34375 3.4296875 C4.83359375 4.47769531 5.3234375 5.52570313 5.828125 6.60546875 C6.32828125 7.64058594 6.8284375 8.67570312 7.34375 9.7421875 C9.61361342 15.58205762 9.61361342 15.58205762 9.578125 18.91796875 C7.68021629 21.07039833 6.08369261 22.53801698 3.828125 24.23046875 C3.23628418 24.70194336 2.64444336 25.17341797 2.03466797 25.65917969 C0.81658505 26.62777574 -0.4082708 27.58791355 -1.63964844 28.53955078 C-4.22649848 30.54028439 -6.76167218 32.60237871 -9.296875 34.66796875 C-10.61751953 35.74111328 -10.61751953 35.74111328 -11.96484375 36.8359375 C-15.31680733 39.67631363 -18.41061844 42.72172032 -21.421875 45.91796875 C-22.421875 43.91796875 -22.421875 43.91796875 -21.453125 40.890625 C-20.9503082 39.58428891 -20.43923384 38.28111418 -19.921875 36.98046875 C-19.35956343 35.53428669 -18.79841551 34.08765177 -18.23828125 32.640625 C-17.94066895 31.87508301 -17.64305664 31.10954102 -17.33642578 30.32080078 C-16.40108329 27.86334195 -15.51276773 25.39323785 -14.63671875 22.9140625 C-14.34023438 22.08189209 -14.04375 21.24972168 -13.73828125 20.39233398 C-13.16775541 18.78614527 -12.60356942 17.17768523 -12.046875 15.56665039 C-6.37979847 -0.21608995 -6.37979847 -0.21608995 0 0 Z " fill="#F6F8FA" transform="translate(357.421875,475.08203125)"/>
<path d="M0 0 C0.33 7.92 0.66 15.84 1 24 C2.32 23.01 3.64 22.02 5 21 C11.78593622 20.13829381 11.78593622 20.13829381 15.71875 22.9296875 C18.8680967 27.16836303 18.63653608 30.4814407 18.5625 35.625 C18.54590411 37.32544035 18.54647963 39.02615792 18.56640625 40.7265625 C18.55009155 41.84925537 18.55009155 41.84925537 18.53344727 42.99462891 C18.91430945 45.60576382 18.91430945 45.60576382 23 48 C18.05 48 13.1 48 8 48 C8 47.34 8 46.68 8 46 C8.99 46 9.98 46 11 46 C11.02689449 43.04160645 11.04678741 40.08345573 11.0625 37.125 C11.07087891 36.28324219 11.07925781 35.44148437 11.08789062 34.57421875 C11.09111328 33.76855469 11.09433594 32.96289062 11.09765625 32.1328125 C11.10289307 31.38918457 11.10812988 30.64555664 11.11352539 29.87939453 C11.11786636 27.90867432 11.11786636 27.90867432 10 26 C5.34947128 25.73067479 5.34947128 25.73067479 1 27 C0.67 33.27 0.34 39.54 0 46 C1.32 46 2.64 46 4 46 C4 46.66 4 47.32 4 48 C-0.95 48 -5.9 48 -11 48 C-10.67 47.34 -10.34 46.68 -10 46 C-9.01 46 -8.02 46 -7 46 C-7 32.8 -7 19.6 -7 6 C-7.99 5.67 -8.98 5.34 -10 5 C-10 4.34 -10 3.68 -10 3 C-8.70990357 2.49596232 -7.41786211 1.99690074 -6.125 1.5 C-5.04605469 1.08234375 -5.04605469 1.08234375 -3.9453125 0.65625 C-2 0 -2 0 0 0 Z " fill="#D91E27" transform="translate(1206,594)"/>
<path d="M0 0 C0 8.25 0 16.5 0 25 C0.66 25 1.32 25 2 25 C2 24.34 2 23.68 2 23 C5.19218138 20.87187908 7.10419432 20.7013877 10.8671875 20.5390625 C14.28576803 21.27787661 15.68160725 22.35379362 18 25 C18.75874586 28.41057777 18.79054077 31.76580211 18.8125 35.25 C18.83763672 36.18585937 18.86277344 37.12171875 18.88867188 38.0859375 C18.9474757 40.39104732 18.98380267 42.69426174 19 45 C20.32 45.66 21.64 46.32 23 47 C23 47.33 23 47.66 23 48 C18.05 48 13.1 48 8 48 C8 47.34 8 46.68 8 46 C9.485 45.505 9.485 45.505 11 45 C11.02683987 42.02077407 11.04676037 39.04178705 11.0625 36.0625 C11.07087891 35.21236328 11.07925781 34.36222656 11.08789062 33.48632812 C11.09111328 32.67744141 11.09433594 31.86855469 11.09765625 31.03515625 C11.10289307 30.2862915 11.10812988 29.53742676 11.11352539 28.76586914 C11.19341752 26.97332261 11.19341752 26.97332261 10 26 C6.54178598 25.74996036 6.54178598 25.74996036 3 26 C0.56164332 27.99103192 0.56164332 27.99103192 0.8046875 31.9140625 C0.81799624 33.48449351 0.84186398 35.05486221 0.875 36.625 C0.88853516 37.82769531 0.88853516 37.82769531 0.90234375 39.0546875 C0.92593777 41.03658523 0.96180935 43.01832981 1 45 C2.32 45.33 3.64 45.66 5 46 C5 46.66 5 47.32 5 48 C0.05 48 -4.9 48 -10 48 C-10 47.34 -10 46.68 -10 46 C-8.515 45.505 -8.515 45.505 -7 45 C-7 32.13 -7 19.26 -7 6 C-7.66 5.67 -8.32 5.34 -9 5 C-9 4.34 -9 3.68 -9 3 C-7.68825887 2.4980125 -6.37558403 1.99846423 -5.0625 1.5 C-4.33160156 1.2215625 -3.60070312 0.943125 -2.84765625 0.65625 C-1 0 -1 0 0 0 Z " fill="#D9212A" transform="translate(918,594)"/>
<path d="M0 0 C0.33 7.92 0.66 15.84 1 24 C2.32 23.01 3.64 22.02 5 21 C9.98731848 20.45592889 12.99386861 20.93648776 17 24 C18.15123825 26.30247651 18.13836313 27.68524046 18.17578125 30.24609375 C18.19962891 31.08333984 18.22347656 31.92058594 18.24804688 32.78320312 C18.29091485 34.54858426 18.32222046 36.31428511 18.34179688 38.08007812 C18.36951172 38.91861328 18.39722656 39.75714844 18.42578125 40.62109375 C18.44036377 41.3886499 18.45494629 42.15620605 18.4699707 42.94702148 C18.92560981 45.59484652 18.92560981 45.59484652 23 48 C18.05 48 13.1 48 8 48 C8 47.34 8 46.68 8 46 C8.99 46 9.98 46 11 46 C11.02888514 42.85418577 11.04675923 39.70840531 11.0625 36.5625 C11.07087891 35.66466797 11.07925781 34.76683594 11.08789062 33.84179688 C11.09111328 32.98779297 11.09433594 32.13378906 11.09765625 31.25390625 C11.10289307 30.46314697 11.10812988 29.6723877 11.11352539 28.85766602 C11.20495909 26.98407311 11.20495909 26.98407311 10 26 C6.33655389 25.86431681 3.49384279 25.83538574 0 27 C0.33 32.94 0.66 38.88 1 45 C2.32 45.66 3.64 46.32 5 47 C5 47.33 5 47.66 5 48 C0.05 48 -4.9 48 -10 48 C-10 47.34 -10 46.68 -10 46 C-8.515 45.505 -8.515 45.505 -7 45 C-7 32.13 -7 19.26 -7 6 C-7.99 5.67 -8.98 5.34 -10 5 C-10 4.34 -10 3.68 -10 3 C-8.70990357 2.49596232 -7.41786211 1.99690074 -6.125 1.5 C-5.04605469 1.08234375 -5.04605469 1.08234375 -3.9453125 0.65625 C-2 0 -2 0 0 0 Z " fill="#DA202A" transform="translate(645,594)"/>
<path d="M0 0 C7.26 0 14.52 0 22 0 C22 0.33 22 0.66 22 1 C21.030625 1.309375 20.06125 1.61875 19.0625 1.9375 C16.15934208 2.69523342 16.15934208 2.69523342 15 4 C14.88659026 6.71554392 14.8358198 9.40470043 14.83203125 12.12109375 C14.82870285 12.93618912 14.82537445 13.75128448 14.82194519 14.59107971 C14.81687258 16.31860793 14.81453697 18.04614598 14.81469727 19.77368164 C14.81251208 22.42285245 14.79436379 25.07160616 14.77539062 27.72070312 C14.77245656 29.3958319 14.77047185 31.07096267 14.76953125 32.74609375 C14.76234573 33.54196396 14.75516022 34.33783417 14.74775696 35.15782166 C14.58977123 39.54708093 14.58977123 39.54708093 17 43 C19.48681895 43.22660954 21.82637349 43.32434998 24.3125 43.3125 C25.62863281 43.32925781 26.94476562 43.34601562 28.30078125 43.36328125 C32.16215609 42.98407548 33.98528572 42.38347446 37 40 C38.39962481 38.2348064 38.39962481 38.2348064 39.3125 36.3125 C39.869375 35.219375 40.42625 34.12625 41 33 C41.33 33 41.66 33 42 33 C41.67 37.29 41.34 41.58 41 46 C27.47 46 13.94 46 0 46 C2 44.66666667 4 43.33333333 6 42 C6.29159149 39.11506069 6.39590537 36.44812063 6.36328125 33.5625 C6.36377975 32.72662354 6.36427826 31.89074707 6.36479187 31.02954102 C6.36244959 29.26088079 6.35271197 27.49221734 6.33618164 25.72363281 C6.31259361 23.01076568 6.31561867 20.29888105 6.32226562 17.5859375 C6.31668889 15.86978579 6.30957904 14.15363822 6.30078125 12.4375 C6.30169266 11.62289307 6.30260406 10.80828613 6.30354309 9.96899414 C6.4290869 5.51288003 6.4290869 5.51288003 4 2 C2.68 1.34 1.36 0.68 0 0 Z " fill="#D6171F" transform="translate(987,596)"/>
<path d="M0 0 C0 0.99 0 1.98 0 3 C1.2684375 2.2575 1.2684375 2.2575 2.5625 1.5 C6.48239867 -0.21050124 8.7710994 -0.61511282 13 0 C15.91164304 2.06152828 17.73578066 3.66076631 18.44458008 7.25341797 C18.60862597 9.90723656 18.64777284 12.52877101 18.625 15.1875 C18.625 16.99353652 18.63740804 18.79962893 18.6640625 20.60546875 C18.65842285 21.40106201 18.6527832 22.19665527 18.64697266 23.01635742 C18.76347168 23.67095947 18.8799707 24.32556152 19 25 C19.99 25.66 20.98 26.32 22 27 C17.38 27 12.76 27 8 27 C8 26.34 8 25.68 8 25 C8.99 24.67 9.98 24.34 11 24 C11.05380578 21.20807795 11.09357669 18.4171859 11.125 15.625 C11.14175781 14.8309375 11.15851562 14.036875 11.17578125 13.21875 C11.19335473 11.14507985 11.10335168 9.07116759 11 7 C9.11624325 4.67516215 9.11624325 4.67516215 6 4.8125 C3.07613397 4.79920391 3.07613397 4.79920391 1 6 C0.91913624 8.93804996 0.8595717 11.87388075 0.8125 14.8125 C0.78736328 15.64587891 0.76222656 16.47925781 0.73632812 17.33789062 C0.72666016 18.14033203 0.71699219 18.94277344 0.70703125 19.76953125 C0.6913208 20.50792236 0.67561035 21.24631348 0.65942383 22.00708008 C0.88084007 24.45872947 0.88084007 24.45872947 4 27 C-0.95 27 -5.9 27 -11 27 C-10.67 26.34 -10.34 25.68 -10 25 C-9.01 25 -8.02 25 -7 25 C-7 18.73 -7 12.46 -7 6 C-7.66 5.67 -8.32 5.34 -9 5 C-9 4.34 -9 3.68 -9 3 C-2.25 0 -2.25 0 0 0 Z " fill="#DA222C" transform="translate(815,615)"/>
<path d="M0 0 C2.23828125 1.37890625 2.23828125 1.37890625 4 4 C4.48899513 7.42980498 4.37582587 10.79462813 4.25 14.25 C4.23195313 15.18585937 4.21390625 16.12171875 4.1953125 17.0859375 C4.14825673 19.39167015 4.08253713 21.69530945 4 24 C5.65 23.67 7.3 23.34 9 23 C8 26 8 26 6 27 C2.32670036 27.13357453 -0.49852959 27.1671568 -4 26 C-4.99 26.33 -5.98 26.66 -7 27 C-9.7635072 27.28455916 -12.19366639 27.17817991 -15 27 C-17 24 -17 24 -17.125 21.625 C-15.00809016 16.6855437 -9.72776592 14.75589759 -5 12.6875 C-4.01 12.3471875 -4.01 12.3471875 -3 12 C-3 9.69 -3 7.38 -3 5 C-5.31 4.34 -7.62 3.68 -10 3 C-10.33 4.65 -10.66 6.3 -11 8 C-12.98 8.33 -14.96 8.66 -17 9 C-16.66466224 5.87018088 -15.99933599 4.99938841 -13.625 2.8125 C-9.49194677 -0.04127485 -4.95410874 -1.03646421 0 0 Z " fill="#DE1B23" transform="translate(1077,615)"/>
<path d="M0 0 C1.9996441 0.03772913 4.00054061 0.04649906 6 0 C6 1.32 6 2.64 6 4 C4.35 4 2.7 4 1 4 C1.12375 5.5778125 1.12375 5.5778125 1.25 7.1875 C0.95996417 11.61054645 0.13119118 12.95578635 -3 16 C-6.34990946 18.10117089 -9.34052105 18.37003398 -13.25 18.625 C-14.32765625 18.69976563 -15.4053125 18.77453125 -16.515625 18.8515625 C-17.33546875 18.90054688 -18.1553125 18.94953125 -19 19 C-18.67 18.01 -18.34 17.02 -18 16 C-18.7115625 15.13375 -18.7115625 15.13375 -19.4375 14.25 C-21.68427488 11.01464417 -21.47370081 8.85727802 -21 5 C-15.86937043 -2.86696534 -8.46962711 -1.88213936 0 0 Z " fill="#E22C36" transform="translate(863,616)"/>
<path d="M0 0 C2.78232856 1.3601241 3.89967125 2.57654375 6 5 C6 6.65 6 8.3 6 10 C0.39 10 -5.22 10 -11 10 C-10.71125 11.4025 -10.4225 12.805 -10.125 14.25 C-9.96257813 15.03890625 -9.80015625 15.8278125 -9.6328125 16.640625 C-9.00849925 18.96831144 -8.15161458 20.89031952 -7 23 C-1.78020872 23.1799928 2.07262981 22.97094808 7 21 C2.69863014 26.83757339 2.69863014 26.83757339 -1 28 C-6.03565533 28.45778685 -8.93937667 28.0454675 -13 25 C-15.93355138 22.48552739 -16.82002337 20.43070028 -17.30859375 16.546875 C-17.54679083 11.37872015 -17.58137237 7.92845859 -14.125 3.875 C-9.89066867 -0.40024275 -5.87287939 -0.87552138 0 0 Z " fill="#D72028" transform="translate(961,615)"/>
<path d="M0 0 C2.64375461 1.93356955 4.47396928 4.10302299 6 7 C6 7.99 6 8.98 6 10 C0.06 10 -5.88 10 -12 10 C-10.99205919 16.10907189 -10.99205919 16.10907189 -8.3125 21.5625 C-5.04238425 23.59527466 -2.78712327 23.39864455 1 23 C3.83378132 22.1025173 3.83378132 22.1025173 6 21 C2.25 25.875 2.25 25.875 0 27 C-4.38779823 27.50187235 -8.98549703 28.00725149 -13.0234375 25.98828125 C-16.43218715 23.21971141 -17.76404598 20.87568509 -18.30859375 16.546875 C-18.54679083 11.37872015 -18.58137237 7.92845859 -15.125 3.875 C-10.73138914 -0.56106121 -6.08856375 -1.16371631 0 0 Z " fill="#DB202A" transform="translate(728,615)"/>
<path d="M0 0 C2.91927604 1.3961755 4.72202996 2.72202996 7 5 C7 6.65 7 8.3 7 10 C1.39 10 -4.22 10 -10 10 C-9.70068807 17.51149521 -9.70068807 17.51149521 -6.875 21 C-3.24347112 23.52628096 -1.34705338 23.54338167 3 23 C5.83378132 22.1025173 5.83378132 22.1025173 8 21 C4.375 25.875 4.375 25.875 1 27 C-8.62735311 28.04321164 -8.62735311 28.04321164 -13.125 24.625 C-16.86213185 19.39301541 -16.87659091 14.30502084 -16 8 C-12.2667431 1.19972897 -7.6519701 -0.8518508 0 0 Z " fill="#D41F26" transform="translate(1138,615)"/>
<path d="M0 0 C2.5625 1.75 2.5625 1.75 4 4 C4 5.65 4 7.3 4 9 C-1.61 9 -7.22 9 -13 9 C-11.98410833 15.08650134 -11.98410833 15.08650134 -9.375 20.5625 C-5.93354711 22.64548464 -2.9248511 22.56299094 1 22 C3.40557853 21.13734032 3.40557853 21.13734032 5 20 C4 23 4 23 1.625 24.6875 C-3.37014587 26.4960873 -7.75852986 27.04052889 -13 26 C-16.13489195 24.23774716 -17.62648643 22.30640161 -19 19 C-19.8719206 14.19802552 -20.16517524 9.46770854 -18.0390625 4.96484375 C-13.18656353 -1.32486033 -7.25294586 -1.86736293 0 0 Z " fill="#DA2329" transform="translate(1052,616)"/>
<path d="M0 0 C3.3125 0.9375 3.3125 0.9375 5.3125 2.9375 C5.56464344 5.79610298 5.6827778 8.5157106 5.6875 11.375 C5.71199219 12.15166016 5.73648437 12.92832031 5.76171875 13.72851562 C5.7911466 19.4228047 5.7911466 19.4228047 3.4453125 21.9453125 C0.76211714 23.19353891 -0.7616874 23.44951721 -3.6875 22.9375 C-7.16931011 20.13270852 -8.47558165 17.89320365 -8.9609375 13.4140625 C-9.23226849 5.79592308 -9.23226849 5.79592308 -6.625 1.6875 C-3.6875 -0.0625 -3.6875 -0.0625 0 0 Z " fill="#FCF3F4" transform="translate(1103.6875,617.0625)"/>
<path d="M0 0 C3.5625 0.9375 3.5625 0.9375 6 2.875 C8.23157789 7.24889266 8.2432109 11.11711698 7.5625 15.9375 C6.39817931 18.41800929 5.46824048 20.03175952 3.5625 21.9375 C-2.17361111 22.21064815 -2.17361111 22.21064815 -4.4375 21.9375 C-7.20824229 19.16675771 -6.72610048 17.24367575 -6.75976562 13.4609375 C-6.75654297 12.62820313 -6.75332031 11.79546875 -6.75 10.9375 C-6.76611328 10.10476563 -6.78222656 9.27203125 -6.79882812 8.4140625 C-6.79947266 7.61742187 -6.80011719 6.82078125 -6.80078125 6 C-6.80376221 5.26910156 -6.80674316 4.53820312 -6.80981445 3.78515625 C-6.03676264 -0.0512084 -3.40423558 -0.06189519 0 0 Z " fill="#FCF7F7" transform="translate(1264.4375,618.0625)"/>
<path d="M0 0 C0.495 1.485 0.495 1.485 1 3 C1.37125 2.505 1.7425 2.01 2.125 1.5 C4.79160885 -0.63328708 6.67893663 -0.35330461 10 0 C10.66 0.66 11.32 1.32 12 2 C11.625 4.125 11.625 4.125 11 6 C10.36191406 5.98839844 9.72382812 5.97679687 9.06640625 5.96484375 C8.24011719 5.95582031 7.41382813 5.94679688 6.5625 5.9375 C5.73878906 5.92589844 4.91507813 5.91429687 4.06640625 5.90234375 C2.00836062 5.76732652 2.00836062 5.76732652 1 7 C0.84417697 8.34015221 0.74955858 9.68758903 0.68359375 11.03515625 C0.62075195 12.24848633 0.62075195 12.24848633 0.55664062 13.48632812 C0.51732422 14.33646484 0.47800781 15.18660156 0.4375 16.0625 C0.37272461 17.34350586 0.37272461 17.34350586 0.30664062 18.65039062 C0.20023298 20.76672037 0.09958269 22.88333813 0 25 C1.65 25.33 3.3 25.66 5 26 C5 26.33 5 26.66 5 27 C-7.21 27 -19.42 27 -32 27 C-32 26.34 -32 25.68 -32 25 C-23.75 25 -15.5 25 -7 25 C-6.95875 21.926875 -6.9175 18.85375 -6.875 15.6875 C-6.85679199 14.72287842 -6.83858398 13.75825684 -6.81982422 12.7644043 C-6.8148291 12.00039307 -6.80983398 11.23638184 -6.8046875 10.44921875 C-6.79421387 9.66893311 -6.78374023 8.88864746 -6.77294922 8.0847168 C-6.87119141 5.6934152 -6.87119141 5.6934152 -9 3 C-2.25 0 -2.25 0 0 0 Z " fill="#DF2A35" transform="translate(594,615)"/>
<path d="M0 0 C0 1.98 0 3.96 0 6 C2.97 6 5.94 6 9 6 C9 7.32 9 8.64 9 10 C6.03 10 3.06 10 0 10 C0.14017826 12.97953359 0.28686342 15.95849304 0.4375 18.9375 C0.47681641 19.78763672 0.51613281 20.63777344 0.55664062 21.51367188 C0.61948242 22.72700195 0.61948242 22.72700195 0.68359375 23.96484375 C0.72025146 24.7137085 0.75690918 25.46257324 0.79467773 26.23413086 C0.81771063 28.02461326 0.81771063 28.02461326 2 29 C4.67058851 29.14115161 7.32432238 29.04247107 10 29 C10 29.66 10 30.32 10 31 C5.21788219 33.39105891 2.3330247 34.6968715 -3 33 C-5.20877081 31.33127415 -5.92480697 30.50080178 -6.34057617 27.73168945 C-6.32486572 26.86761475 -6.30915527 26.00354004 -6.29296875 25.11328125 C-6.28330078 24.17548828 -6.27363281 23.23769531 -6.26367188 22.27148438 C-6.23853516 21.29501953 -6.21339844 20.31855469 -6.1875 19.3125 C-6.16719727 17.83040039 -6.16719727 17.83040039 -6.14648438 16.31835938 C-6.11112203 13.87835769 -6.06177033 11.43945281 -6 9 C-6.99 8.67 -7.98 8.34 -9 8 C-7.6905332 6.66368764 -6.37734515 5.33102075 -5.0625 4 C-3.96615234 2.88625 -3.96615234 2.88625 -2.84765625 1.75 C-1 0 -1 0 0 0 Z " fill="#E12F37" transform="translate(697,609)"/>
<path d="M0 0 C0.66 0 1.32 0 2 0 C2 2.31 2 4.62 2 7 C4.97 7 7.94 7 11 7 C10.67 8.32 10.34 9.64 10 11 C7.03 11 4.06 11 1 11 C1.33 17.6 1.66 24.2 2 31 C4.97 30.67 7.94 30.34 11 30 C11 30.66 11 31.32 11 32 C7.80254858 34.13163428 6.71242084 34.31975564 3 34.375 C2.13375 34.40335938 1.2675 34.43171875 0.375 34.4609375 C-2 34 -2 34 -3.80078125 32.5859375 C-5.67195957 28.55101878 -5.31380452 24.63503381 -5.1875 20.25 C-5.16719727 18.91775391 -5.16719727 18.91775391 -5.14648438 17.55859375 C-5.11121309 15.37177422 -5.06192752 13.18620034 -5 11 C-5.99 11 -6.98 11 -8 11 C-7 8 -7 8 -4.5625 6.0625 C-2.10694869 4.08608065 -1.12960279 2.87535256 0 0 Z " fill="#E12B35" transform="translate(895,608)"/>
<path d="M0 0 C0.95003906 -0.01675781 1.90007813 -0.03351562 2.87890625 -0.05078125 C5.4375 0.3125 5.4375 0.3125 7.27734375 1.64453125 C8.4375 3.3125 8.4375 3.3125 8.4375 6.3125 C6.125 6.5 6.125 6.5 3.4375 6.3125 C2.4375 5.3125 1.4375 4.3125 0.4375 3.3125 C-2.0625 2.8125 -2.0625 2.8125 -4.5625 3.3125 C-6.56352608 4.87915701 -7.44289864 5.91509043 -8.1796875 8.36328125 C-8.77557297 13.59082196 -8.56585822 16.75184492 -5.5625 21.3125 C-3.57614621 23.74692418 -3.57614621 23.74692418 0.3125 23.5 C3.15210774 23.432882 5.72266905 23.21744365 8.4375 22.3125 C5.61182678 25.86737922 3.4604049 27.65700131 -1 28.3125 C-6.53522143 28.62512048 -9.74500232 26.84302436 -13.9375 23.3125 C-16.43394291 18.70368233 -16.54322405 14.42836649 -15.5625 9.3125 C-12.0299104 2.89686147 -7.26640194 0.02965878 0 0 Z " fill="#DB2028" transform="translate(623.5625,614.6875)"/>
<path d="M0 0 C0.76441406 -0.01417969 1.52882813 -0.02835938 2.31640625 -0.04296875 C4.4375 0.1875 4.4375 0.1875 7.4375 2.1875 C7.4375 3.5075 7.4375 4.8275 7.4375 6.1875 C5.125 6.375 5.125 6.375 2.4375 6.1875 C1.4375 5.1875 0.4375 4.1875 -0.5625 3.1875 C-3.0625 2.60416667 -3.0625 2.60416667 -5.5625 3.1875 C-8.48321042 6.21327195 -8.99424707 8.47713939 -9 12.625 C-8.87776877 16.14149838 -8.58946053 18.12771795 -7.125 21.375 C-3.41026982 24.00249208 0.01856302 23.92658277 4.4375 23.1875 C6.65596429 22.23037087 6.65596429 22.23037087 8.4375 21.1875 C7.4375 24.1875 7.4375 24.1875 5.25 25.84375 C0.44631602 28.13884346 -4.36078226 27.96559628 -9.5625 27.1875 C-12.6875 24.9375 -12.6875 24.9375 -14.5625 22.1875 C-14.995625 21.589375 -15.42875 20.99125 -15.875 20.375 C-16.95089091 16.95171074 -17.11802327 13.70355583 -16.5625 10.1875 C-14.50423497 6.29149833 -12.3697889 3.44807779 -8.5625 1.1875 C-5.67109313 0.30350299 -3.01806229 0.02553352 0 0 Z " fill="#E22A34" transform="translate(754.5625,614.8125)"/>
<path d="M0 0 C1 1 1 1 1.0625 4.0625 C1.041875 5.031875 1.02125 6.00125 1 7 C0.484375 6.360625 -0.03125 5.72125 -0.5625 5.0625 C-3.65935623 2.44208319 -6.02067623 2.30610183 -10 2 C-9.65802544 4.87954644 -9.65802544 4.87954644 -8 8 C-5.77555287 9.51380145 -3.52526467 10.67556491 -1.09375 11.82421875 C1 13 1 13 3 16 C3.585427 19.84709172 3.28589467 21.53031591 1.25 24.875 C-3.59066359 28.04004927 -8.35937227 27.60558887 -14 27 C-15 26 -15 26 -15.09765625 24.15234375 C-15.06510417 22.1015625 -15.03255208 20.05078125 -15 18 C-14.38125 18.78375 -13.7625 19.5675 -13.125 20.375 C-11.10141339 22.96837647 -11.10141339 22.96837647 -9 25 C-6.45809998 25.2500773 -6.45809998 25.2500773 -4 25 C-2.70366379 23.93354885 -2.70366379 23.93354885 -2.9375 21.4375 C-2.958125 20.633125 -2.97875 19.82875 -3 19 C-3.61488281 18.68546875 -4.22976563 18.3709375 -4.86328125 18.046875 C-5.67152344 17.61890625 -6.47976563 17.1909375 -7.3125 16.75 C-8.11300781 16.33234375 -8.91351562 15.9146875 -9.73828125 15.484375 C-12.17423808 13.88564686 -13.4807459 12.47298144 -15 10 C-15.5 7 -15.5 7 -15 4 C-11.04486423 -1.00983864 -5.89902276 -0.66637109 0 0 Z " fill="#DD1F2A" transform="translate(1189,615)"/>
<path d="M0 0 C0 1.32 0 2.64 0 4 C0.66 4 1.32 4 2 4 C2.33 3.01 2.66 2.02 3 1 C6.375 0.375 6.375 0.375 10 0 C10.66 0.66 11.32 1.32 12 2 C11.625 4.125 11.625 4.125 11 6 C10.36191406 5.98839844 9.72382812 5.97679687 9.06640625 5.96484375 C8.24011719 5.95582031 7.41382813 5.94679688 6.5625 5.9375 C5.73878906 5.92589844 4.91507813 5.91429687 4.06640625 5.90234375 C2.00836062 5.76732652 2.00836062 5.76732652 1 7 C0.92674832 9.86267567 0.90761795 12.700719 0.9375 15.5625 C0.94201172 16.36880859 0.94652344 17.17511719 0.95117188 18.00585938 C0.96299482 20.00393756 0.98093086 22.00197783 1 24 C2.32 24.33 3.64 24.66 5 25 C5 25.66 5 26.32 5 27 C-0.28 27 -5.56 27 -11 27 C-11 26.34 -11 25.68 -11 25 C-9.68 25 -8.36 25 -7 25 C-7 18.73 -7 12.46 -7 6 C-7.66 5.67 -8.32 5.34 -9 5 C-9 4.34 -9 3.68 -9 3 C-3.375 0 -3.375 0 0 0 Z " fill="#D9282F" transform="translate(1159,615)"/>
<path d="M0 0 C0.66 0 1.32 0 2 0 C2.33 7.92 2.66 15.84 3 24 C4.32 23.01 5.64 22.02 7 21 C13.78593622 20.13829381 13.78593622 20.13829381 17.71875 22.9296875 C20.8680967 27.16836303 20.63653608 30.4814407 20.5625 35.625 C20.54590411 37.32544035 20.54647963 39.02615792 20.56640625 40.7265625 C20.55009155 41.84925537 20.55009155 41.84925537 20.53344727 42.99462891 C20.91430945 45.60576382 20.91430945 45.60576382 25 48 C20.05 48 15.1 48 10 48 C10 47.34 10 46.68 10 46 C10.99 46 11.98 46 13 46 C13.02689449 43.04160645 13.04678741 40.08345573 13.0625 37.125 C13.07087891 36.28324219 13.07925781 35.44148437 13.08789062 34.57421875 C13.09111328 33.76855469 13.09433594 32.96289062 13.09765625 32.1328125 C13.10289307 31.38918457 13.10812988 30.64555664 13.11352539 29.87939453 C13.11786636 27.90867432 13.11786636 27.90867432 12 26 C8.37 26 4.74 26 1 26 C0.67 17.42 0.34 8.84 0 0 Z " fill="#DC222B" transform="translate(1204,594)"/>
<path d="M0 0 C0.33 0 0.66 0 1 0 C1 2.31 1 4.62 1 7 C4.3 7 7.6 7 11 7 C11 7.99 11 8.98 11 10 C7.7 10 4.4 10 1 10 C1.14017826 12.97953359 1.28686342 15.95849304 1.4375 18.9375 C1.47681641 19.78763672 1.51613281 20.63777344 1.55664062 21.51367188 C1.61948242 22.72700195 1.61948242 22.72700195 1.68359375 23.96484375 C1.72025146 24.7137085 1.75690918 25.46257324 1.79467773 26.23413086 C1.81771063 28.02461326 1.81771063 28.02461326 3 29 C5.67058851 29.14115161 8.32432238 29.04247107 11 29 C10.67 29.99 10.34 30.98 10 32 C7.2642373 32.9119209 5.34374032 33.22244822 2.5 33.3125 C1.33984375 33.36857422 1.33984375 33.36857422 0.15625 33.42578125 C-2 33 -2 33 -3.76953125 31.58984375 C-5.68509234 27.55804375 -5.31419148 23.64846832 -5.1875 19.25 C-5.16719727 17.91775391 -5.16719727 17.91775391 -5.14648438 16.55859375 C-5.11121309 14.37177422 -5.06192752 12.18620034 -5 10 C-5.99 10 -6.98 10 -8 10 C-6.66415278 5.99245833 -4.23106172 4.62523764 -1 2 C-0.67 1.34 -0.34 0.68 0 0 Z " fill="#D82429" transform="translate(774,609)"/>
<path d="M0 0 C3.60417448 3.76800059 4.05292361 8.06894112 5 13 C5.36986665 14.68863256 5.74465103 16.37619756 6.125 18.0625 C6.558125 20.0115625 6.558125 20.0115625 7 22 C3.04 22.33 -0.92 22.66 -5 23 C-7.59871271 29.81699528 -7.59871271 29.81699528 -8 37 C-6.35 37.66 -4.7 38.32 -3 39 C-3 39.33 -3 39.66 -3 40 C-8.28 40 -13.56 40 -19 40 C-19 39.34 -19 38.68 -19 38 C-18.22398437 37.74992188 -17.44796875 37.49984375 -16.6484375 37.2421875 C-10.77189872 34.4859348 -9.28788327 26.86044977 -7.19921875 21.1015625 C-4.70964803 14.09811859 -2.34001916 7.05463905 0 0 Z " fill="#DE313A" transform="translate(556,602)"/>
<path d="M0 0 C0 1.32 0 2.64 0 4 C0.495 4.99 0.495 4.99 1 6 C-0.80404297 5.67515625 -0.80404297 5.67515625 -2.64453125 5.34375 C-17.47632152 2.86071976 -31.98870957 2.66687133 -47 3 C-47 1.68 -47 0.36 -47 -1 C-48.32 -1.33 -49.64 -1.66 -51 -2 C-33.74675128 -3.79922147 -17.05198512 -2.99015853 0 0 Z " fill="#0F6ABF" transform="translate(392,365)"/>
<path d="M0 0 C0.33 7.92 0.66 15.84 1 24 C2.32 24.66 3.64 25.32 5 26 C5 26.33 5 26.66 5 27 C-0.28 27 -5.56 27 -11 27 C-10.67 26.34 -10.34 25.68 -10 25 C-9.01 25 -8.02 25 -7 25 C-7 18.73 -7 12.46 -7 6 C-7.99 5.67 -8.98 5.34 -10 5 C-10 4.34 -10 3.68 -10 3 C-3.375 0 -3.375 0 0 0 Z " fill="#E12834" transform="translate(798,615)"/>
<path d="M0 0 C1.03447266 0.01160156 1.03447266 0.01160156 2.08984375 0.0234375 C2.77949219 0.01570312 3.46914063 0.00796875 4.1796875 0 C9.33651082 0.02010457 9.33651082 0.02010457 11.58984375 2.2734375 C12.02734375 4.6484375 12.02734375 4.6484375 11.58984375 7.2734375 C9.38089064 9.99781301 7.65018089 11.10385208 4.171875 11.66015625 C0.08874988 11.83506117 -2.5488311 11.82714652 -6.03515625 9.5859375 C-7.65880373 6.85525764 -7.90349769 5.39793331 -7.41015625 2.2734375 C-4.91805186 -0.21866689 -3.40654837 0.01328089 0 0 Z " fill="#FDF9F9" transform="translate(852.41015625,645.7265625)"/>
<path d="M0 0 C0.33 7.92 0.66 15.84 1 24 C2.32 24.66 3.64 25.32 5 26 C5 26.33 5 26.66 5 27 C-0.28 27 -5.56 27 -11 27 C-10 25 -10 25 -7 24 C-6.67 17.73 -6.34 11.46 -6 5 C-6.99 5 -7.98 5 -9 5 C-9 4.34 -9 3.68 -9 3 C-2.25 0 -2.25 0 0 0 Z " fill="#DA202C" transform="translate(1241,615)"/>
<path d="M0 0 C0.01401855 1.0669812 0.01401855 1.0669812 0.02832031 2.15551758 C0.08196888 5.3752206 0.16562635 8.59346183 0.25 11.8125 C0.26417969 12.93205078 0.27835938 14.05160156 0.29296875 15.20507812 C0.32519531 16.27822266 0.35742188 17.35136719 0.390625 18.45703125 C0.41157227 19.44678955 0.43251953 20.43654785 0.45410156 21.45629883 C0.82797606 24.55461963 0.82797606 24.55461963 5 27 C0.05 27 -4.9 27 -10 27 C-10 26.34 -10 25.68 -10 25 C-9.01 24.67 -8.02 24.34 -7 24 C-6.94208156 20.87507749 -6.90643254 17.75029234 -6.875 14.625 C-6.85824219 13.73554687 -6.84148438 12.84609375 -6.82421875 11.9296875 C-6.81777344 11.07890625 -6.81132813 10.228125 -6.8046875 9.3515625 C-6.79421387 8.56604004 -6.78374023 7.78051758 -6.77294922 6.97119141 C-6.82009873 4.765535 -6.82009873 4.765535 -9 3 C-2.25 0 -2.25 0 0 0 Z " fill="#DE232B" transform="translate(680,615)"/>
<path d="M0 0 C0.99 0 1.98 0 3 0 C2.76023437 1.06734375 2.76023437 1.06734375 2.515625 2.15625 C1.48994719 7.81301853 1.05501905 13.68479668 3.25 19.0625 C5.05598755 21.06198622 6.49303771 22.04908327 9 23 C9 23.66 9 24.32 9 25 C1.80174292 25.61002179 1.80174292 25.61002179 -1.875 22.8125 C-5.57165255 17.91987162 -6.64944 14.16967996 -6 8 C-4.24505919 4.89960457 -2.51174333 2.51174333 0 0 Z " fill="#DB242C" transform="translate(1094,617)"/>
<path d="M0 0 C2.91927604 1.3961755 4.72202996 2.72202996 7 5 C7 6.65 7 8.3 7 10 C1.06 10 -4.88 10 -11 10 C-11 8.68 -11 7.36 -11 6 C-11.99 5.67 -12.98 5.34 -14 5 C-9.23568564 0.23568564 -6.7466995 -0.85672375 0 0 Z " fill="#E31925" transform="translate(1138,615)"/>
<path d="M0 0 C0.125 7.75 0.125 7.75 -1 10 C-0.34 10 0.32 10 1 10 C0.67 10.66 0.34 11.32 0 12 C-4.29936801 13.30283879 -8.5557534 13.29142601 -13 13 C-15 10 -15 10 -15.125 7.625 C-13.36739879 3.52393051 -9.87995333 1.96262231 -6 0 C-3 -1 -3 -1 0 0 Z " fill="#E43740" transform="translate(1075,629)"/>
<path d="M0 0 C3.76201569 0.78156605 5.29890033 2.72166692 7.55859375 5.69921875 C8.51953125 7.5234375 8.51953125 7.5234375 8.51953125 10.5234375 C2.57953125 10.1934375 -3.36046875 9.8634375 -9.48046875 9.5234375 C-9.15046875 7.5434375 -8.82046875 5.5634375 -8.48046875 3.5234375 C-9.14046875 3.1934375 -9.80046875 2.8634375 -10.48046875 2.5234375 C-6.75691238 0.04106659 -4.39022629 -0.06427857 0 0 Z " fill="#E62F3F" transform="translate(725.48046875,614.4765625)"/>
<path d="M0 0 C3 -0.375 3 -0.375 6 0 C8.06520632 3.09780948 8.29477024 3.9540481 8.3125 7.5 C8.32925781 8.2734375 8.34601562 9.046875 8.36328125 9.84375 C7.91388326 12.51114453 7.15686452 13.40802857 5 15 C2.4375 14.875 2.4375 14.875 0 14 C-1.99825961 11.00261059 -2.27550398 10.36652492 -2.25 7 C-2.25515625 6.319375 -2.2603125 5.63875 -2.265625 4.9375 C-2 3 -2 3 0 0 Z " fill="#FCF3F5" transform="translate(850,617)"/>
<path d="M0 0 C2.49936244 2.49936244 3.03723753 4.64808008 4.125 8 C4.47820313 9.0725 4.83140625 10.145 5.1953125 11.25 C6 14 6 14 6 16 C2.37 16 -1.26 16 -5 16 C-3.85388265 10.26941324 -2.47605477 5.28975338 0 0 Z " fill="#FBEFF0" transform="translate(557,607)"/>
<path d="M0 0 C0.33 0 0.66 0 1 0 C0.67 4.29 0.34 8.58 0 13 C-13.53 13 -27.06 13 -41 13 C-36.80784988 10.90392494 -35.20571811 10.79951454 -30.66015625 10.9453125 C-28.8184082 10.98205078 -28.8184082 10.98205078 -26.93945312 11.01953125 C-24.35849657 11.08974367 -21.77774239 11.16784689 -19.19726562 11.25390625 C-17.35358398 11.28677734 -17.35358398 11.28677734 -15.47265625 11.3203125 C-14.35125244 11.35398926 -13.22984863 11.38766602 -12.07446289 11.42236328 C-8.29833755 10.90360708 -6.71410211 9.6138274 -4 7 C-2.61905904 5.14664297 -2.61905904 5.14664297 -1.6875 3.25 C-1.130625 2.1775 -0.57375 1.105 0 0 Z " fill="#DE2934" transform="translate(1028,629)"/>
<path d="M0 0 C1.11375 0.1546875 1.11375 0.1546875 2.25 0.3125 C1.93289063 0.86421875 1.61578125 1.4159375 1.2890625 1.984375 C0.12290025 4.59727989 -0.15045711 6.71829002 -0.375 9.5625 C-0.44976563 10.45453125 -0.52453125 11.3465625 -0.6015625 12.265625 C-0.65054688 12.94109375 -0.69953125 13.6165625 -0.75 14.3125 C-1.74 14.6425 -2.73 14.9725 -3.75 15.3125 C-5.25 14.25 -5.25 14.25 -6.75 12.3125 C-7.28586016 8.17872159 -7.15166788 6.01169964 -5.0625 2.375 C-2.75 0.3125 -2.75 0.3125 0 0 Z " fill="#DE1D25" transform="translate(848.75,615.6875)"/>
<path d="M0 0 C1 1 1 1 1.0625 4.0625 C1.041875 5.031875 1.02125 6.00125 1 7 C-2.63 7 -6.26 7 -10 7 C-9 2 -9 2 -7.25 0.125 C-4.38460839 -1.30769581 -2.99831117 -0.97242524 0 0 Z " fill="#FBE8EB" transform="translate(960,617)"/>
<path d="M0 0 C-0.33 0.66 -0.66 1.32 -1 2 C14.18 2 29.36 2 45 2 C45 2.33 45 2.66 45 3 C26.85 3 8.7 3 -10 3 C-10 2.34 -10 1.68 -10 1 C-3.375 -1.125 -3.375 -1.125 0 0 Z " fill="#1576C8" transform="translate(1203,540)"/>
<path d="M0 0 C1.09570312 0.10183594 2.19140625 0.20367187 3.3203125 0.30859375 C4.16335938 0.39238281 5.00640625 0.47617187 5.875 0.5625 C5.875 1.8825 5.875 3.2025 5.875 4.5625 C6.205 5.2225 6.535 5.8825 6.875 6.5625 C-0.055 5.5725 -6.985 4.5825 -14.125 3.5625 C-14.125 3.2325 -14.125 2.9025 -14.125 2.5625 C-12.145 2.5625 -10.165 2.5625 -8.125 2.5625 C-8.125 1.9025 -8.125 1.2425 -8.125 0.5625 C-5.28943413 -0.85528293 -3.1341294 -0.30007622 0 0 Z " fill="#1476C8" transform="translate(386.125,364.4375)"/>
<path d="M0 0 C1.670625 0.061875 1.670625 0.061875 3.375 0.125 C3.705 2.435 4.035 4.745 4.375 7.125 C0.745 7.125 -2.885 7.125 -6.625 7.125 C-5.23611111 0.18055556 -5.23611111 0.18055556 0 0 Z " fill="#FBE7EA" transform="translate(1134.625,616.875)"/>
<path d="M0 0 C3.5 0.125 3.5 0.125 4.5 1.125 C4.54080783 3.12458364 4.54254356 5.12545254 4.5 7.125 C0.87 7.125 -2.76 7.125 -6.5 7.125 C-4.27478862 0.15267102 -4.27478862 0.15267102 0 0 Z " fill="#FAE4E7" transform="translate(1045.5,616.875)"/>
<path d="M0 0 C3.07921132 -0.25660094 5.21136993 -0.39431504 8 1 C8 2.98 8 4.96 8 7 C4.37 7 0.74 7 -3 7 C-2 3 -2 3 0 0 Z " fill="#FAE4E6" transform="translate(719,617)"/>
<path d="M0 0 C1.5625 1.8125 1.5625 1.8125 3 4 C2 7 2 7 0 10 C-0.74599817 11.88133114 -1.45142601 13.77904036 -2.125 15.6875 C-2.47820313 16.68136719 -2.83140625 17.67523437 -3.1953125 18.69921875 C-3.59363281 19.83810547 -3.59363281 19.83810547 -4 21 C-0.37 21 3.26 21 7 21 C7 21.33 7 21.66 7 22 C3.04 22 -0.92 22 -5 22 C-6.125 16.375 -6.125 16.375 -4.78515625 12.79296875 C-4.51123047 12.04208984 -4.23730469 11.29121094 -3.95507812 10.51757812 C-3.66052734 9.74865234 -3.36597656 8.97972656 -3.0625 8.1875 C-2.77181641 7.39923828 -2.48113281 6.61097656 -2.18164062 5.79882812 C-1.46550951 3.86175216 -0.73423279 1.93028735 0 0 Z " fill="#E14B51" transform="translate(556,602)"/>
<path d="M0 0 C1.8871875 0.0309375 1.8871875 0.0309375 3.8125 0.0625 C3.1525 1.3825 2.4925 2.7025 1.8125 4.0625 C-0.8275 3.7325 -3.4675 3.4025 -6.1875 3.0625 C-6.5175 4.7125 -6.8475 6.3625 -7.1875 8.0625 C-9.1675 8.3925 -11.1475 8.7225 -13.1875 9.0625 C-12.85216224 5.93268088 -12.18683599 5.06188841 -9.8125 2.875 C-6.43493063 0.54286877 -4.01078447 -0.06575057 0 0 Z " fill="#E02B34" transform="translate(1073.1875,614.9375)"/>
<path d="M0 0 C15.84 0 31.68 0 48 0 C48 0.66 48 1.32 48 2 C27.705 1.505 27.705 1.505 7 1 C7 1.66 7 2.32 7 3 C4.69 2.67 2.38 2.34 0 2 C0 1.34 0 0.68 0 0 Z " fill="#318ED9" transform="translate(766,432)"/>
<path d="M0 0 C0.99 1.485 0.99 1.485 2 3 C2.37125 2.505 2.7425 2.01 3.125 1.5 C5.79160885 -0.63328708 7.67893663 -0.35330461 11 0 C11.66 0.66 12.32 1.32 13 2 C12.625 4.125 12.625 4.125 12 6 C10.37509046 6.02698189 8.75005367 6.04638757 7.125 6.0625 C5.76761719 6.07990234 5.76761719 6.07990234 4.3828125 6.09765625 C2 6 2 6 0 5 C0 3.35 0 1.7 0 0 Z " fill="#E53441" transform="translate(593,615)"/>
<path d="M0 0 C3.96 0 7.92 0 12 0 C12 0.66 12 1.32 12 2 C11.34 2 10.68 2 10 2 C10 2.66 10 3.32 10 4 C2.74 4 -4.52 4 -12 4 C-12 3.67 -12 3.34 -12 3 C-8.37 3 -4.74 3 -1 3 C-0.67 2.01 -0.34 1.02 0 0 Z " fill="#076ABE" transform="translate(368,363)"/>
<path d="M0 0 C0.144375 0.928125 0.28875 1.85625 0.4375 2.8125 C1.64580985 6.09317578 1.64580985 6.09317578 4.13671875 7.06640625 C6.41114288 7.80550483 8.67209519 8.45394826 11 9 C11 9.33 11 9.66 11 10 C2.24893798 10.45879354 2.24893798 10.45879354 -2.0625 8.875 C-4.62008825 6.3999146 -4.76774367 4.48384489 -5 1 C-2 0 -2 0 0 0 Z " fill="#E0252A" transform="translate(845,649)"/>
<path d="M0 0 C2.86724686 0.57344937 3.8614515 0.8614515 6 3 C6 4.65 6 6.3 6 8 C0.06 8 -5.88 8 -12 8 C-12 7.67 -12 7.34 -12 7 C-8.04 7 -4.08 7 0 7 C0 4.69 0 2.38 0 0 Z " fill="#DA1121" transform="translate(961,617)"/>
<path d="M0 0 C0.09765625 6.15234375 0.09765625 6.15234375 0 8 C-1 9 -1 9 -3.5625 9.0625 C-4.366875 9.041875 -5.17125 9.02125 -6 9 C-6.33 7.35 -6.66 5.7 -7 4 C-2.25 0 -2.25 0 0 0 Z " fill="#FDF4F5" transform="translate(1074,630)"/>
<path d="M0 0 C0 3.10551666 -0.5393715 4.35261084 -2 7 C-2.33 5.35 -2.66 3.7 -3 2 C-6.37436186 1.66619186 -6.37436186 1.66619186 -10 2 C-11.98239527 3.86124923 -11.98239527 3.86124923 -13 6 C-13.33 5.34 -13.66 4.68 -14 4 C-14.99 5.485 -14.99 5.485 -16 7 C-16.66 6.67 -17.32 6.34 -18 6 C-12.76777065 -1.36387834 -8.36185806 -1.34809912 0 0 Z " fill="#E03F46" transform="translate(1052,616)"/>
<path d="M0 0 C0 3 0 3 -1.25341797 4.62573242 C-2.11410889 5.4819519 -2.11410889 5.4819519 -2.9921875 6.35546875 C-3.61480469 6.97744141 -4.23742187 7.59941406 -4.87890625 8.24023438 C-5.53761719 8.88283203 -6.19632812 9.52542969 -6.875 10.1875 C-7.85146484 11.16879883 -7.85146484 11.16879883 -8.84765625 12.16992188 C-13.73313673 17 -13.73313673 17 -16 17 C-14.43122496 13.20144921 -12.03476878 10.79977997 -9.125 7.9375 C-8.26132812 7.08027344 -7.39765625 6.22304688 -6.5078125 5.33984375 C-4.41510391 3.387301 -2.33074012 1.65319939 0 0 Z " fill="#DB3031" transform="translate(350,507)"/>
<path d="M0 0 C0.66 0.33 1.32 0.66 2 1 C-1.11734325 4.33233244 -2.99155931 5.92733572 -7.69921875 6.09765625 C-8.68535156 6.08605469 -9.67148438 6.07445312 -10.6875 6.0625 C-11.68136719 6.05347656 -12.67523437 6.04445313 -13.69921875 6.03515625 C-14.83810547 6.01775391 -14.83810547 6.01775391 -16 6 C-14.8125 4.0078125 -14.8125 4.0078125 -13 2 C-10.625 1.6796875 -10.625 1.6796875 -8 1.875 C-3.75327307 2.19048829 -3.75327307 2.19048829 0 0 Z " fill="#E82431" transform="translate(1144,636)"/>
<path d="M0 0 C1.32 0.66 2.64 1.32 4 2 C4 3.65 4 5.3 4 7 C-1.94 7 -7.88 7 -14 7 C-14 6.67 -14 6.34 -14 6 C-8.06 5.505 -8.06 5.505 -2 5 C-1.34 3.35 -0.68 1.7 0 0 Z " fill="#DF1824" transform="translate(1052,618)"/>
<path d="M0 0 C1.32064453 0.02320313 1.32064453 0.02320313 2.66796875 0.046875 C4.8125 0.25 4.8125 0.25 5.8125 1.25 C5.85330783 3.24958364 5.85504356 5.25045254 5.8125 7.25 C5.296875 6.610625 4.78125 5.97125 4.25 5.3125 C1.15314377 2.69208319 -1.20817623 2.55610183 -5.1875 2.25 C-5.1875 3.9 -5.1875 5.55 -5.1875 7.25 C-5.5175 6.26 -5.8475 5.27 -6.1875 4.25 C-7.1775 3.92 -8.1675 3.59 -9.1875 3.25 C-6.06902365 0.48771326 -4.14433144 -0.12243224 0 0 Z " fill="#E6525A" transform="translate(1184.1875,614.75)"/>
<path d="M0 0 C-3.77991704 3.77991704 -6.79721783 4.57581486 -11.9140625 5.1171875 C-14 5 -14 5 -17 3 C-3.6119403 -1.80597015 -3.6119403 -1.80597015 0 0 Z " fill="#EB3240" transform="translate(632,638)"/>
<path d="M0 0 C0.66 0.33 1.32 0.66 2 1 C-3.4718214 5.63915293 -5.5713742 7.13756714 -13 7 C-12.67 6.01 -12.34 5.02 -12 4 C-9.53125 3.0859375 -9.53125 3.0859375 -6.5 2.375 C-2.95087626 1.76862284 -2.95087626 1.76862284 0 0 Z " fill="#EB3A48" transform="translate(966,636)"/>
<path d="M0 0 C0.66 0 1.32 0 2 0 C2.33 7.92 2.66 15.84 3 24 C4.32 23.34 5.64 22.68 7 22 C7.99 22.99 8.98 23.98 10 25 C7.03 25.33 4.06 25.66 1 26 C0.67 17.42 0.34 8.84 0 0 Z " fill="#DD454D" transform="translate(1204,594)"/>
<path d="M0 0 C0.33 0 0.66 0 1 0 C1 8.58 1 17.16 1 26 C0.34 26 -0.32 26 -1 26 C-1.66 23.03 -2.32 20.06 -3 17 C-2.01 17 -1.02 17 0 17 C0 11.39 0 5.78 0 0 Z " fill="#449BDA" transform="translate(754,429)"/>
<path d="M0 0 C7.4422658 -0.36601307 7.4422658 -0.36601307 10 1.3125 C11 3 11 3 11 6 C8.35556973 6.3888868 6.61173798 6.39540909 4.33203125 4.921875 C2.83068266 3.68085526 1.40974295 2.34417351 0 1 C0 0.67 0 0.34 0 0 Z " fill="#D81523" transform="translate(621,615)"/>
<path d="M0 0 C0.66 0 1.32 0 2 0 C1 3 1 3 -1 4.6875 C-5.06326776 6.46517964 -8.63097593 6.25700142 -13 6 C-12.67 5.01 -12.34 4.02 -12 3 C-10.95199219 2.92652344 -10.95199219 2.92652344 -9.8828125 2.8515625 C-8.97273437 2.77679687 -8.06265625 2.70203125 -7.125 2.625 C-6.22007812 2.55539062 -5.31515625 2.48578125 -4.3828125 2.4140625 C-1.82058097 2.20431868 -1.82058097 2.20431868 0 0 Z " fill="#E92938" transform="translate(761,636)"/>
<path d="M0 0 C0.99 0 1.98 0 3 0 C2.67 1.98 2.34 3.96 2 6 C6.29 6 10.58 6 15 6 C15 6.33 15 6.66 15 7 C10.38 7 5.76 7 1 7 C0.67 6.34 0.34 5.68 0 5 C-0.99 5.66 -1.98 6.32 -3 7 C-2.25 2.25 -2.25 2.25 0 0 Z " fill="#E11720" transform="translate(714,618)"/>
<path d="M0 0 C0.99 0.66 1.98 1.32 3 2 C2.34 2 1.68 2 1 2 C0.67 2.66 0.34 3.32 0 4 C0 3.34 0 2.68 0 2 C-4.57766491 2.43185518 -6.84868803 2.69862556 -10 6 C-12.1875 5.6875 -12.1875 5.6875 -14 5 C-9.23386824 0.23386824 -6.74063285 -0.77351525 0 0 Z " fill="#E43944" transform="translate(1138,615)"/>
<path d="M0 0 C-0.598125 0.268125 -1.19625 0.53625 -1.8125 0.8125 C-4.00443888 1.86831322 -4.00443888 1.86831322 -5.4375 3.4375 C-7.41969955 5.41969955 -9.53872483 6.67469798 -12 8 C-12.66 8 -13.32 8 -14 8 C-11.44932623 1.50737587 -6.60611271 -1.56460564 0 0 Z " fill="#E2333D" transform="translate(623,616)"/>
<path d="M0 0 C1.2065625 0.0309375 1.2065625 0.0309375 2.4375 0.0625 C2.81968767 1.71864657 3.15145102 3.38707024 3.4375 5.0625 C2.4375 6.0625 2.4375 6.0625 -0.125 6.125 C-1.3315625 6.0940625 -1.3315625 6.0940625 -2.5625 6.0625 C-2.94468767 4.40635343 -3.27645102 2.73792976 -3.5625 1.0625 C-2.5625 0.0625 -2.5625 0.0625 0 0 Z " fill="#E8323C" transform="translate(794.5625,596.9375)"/>
<path d="M0 0 C0.33 0 0.66 0 1 0 C1 8.91 1 17.82 1 27 C-0.64164355 23.7167129 -1.52087355 21.54553576 -2 18 C-1.67 17.67 -1.34 17.34 -1 17 C-0.76298761 14.14122091 -0.57780818 11.30116703 -0.4375 8.4375 C-0.39431641 7.63119141 -0.35113281 6.82488281 -0.30664062 5.99414062 C-0.20024738 3.99631195 -0.09959112 1.9981793 0 0 Z " fill="#0467C5" transform="translate(1268,479)"/>
<path d="M0 0 C0.33 0 0.66 0 1 0 C1 4.62 1 9.24 1 14 C0.34 14 -0.32 14 -1 14 C-1.99 10.37 -2.98 6.74 -4 3 C-3.34 3 -2.68 3 -2 3 C-1.34 2.01 -0.68 1.02 0 0 Z " fill="#2E90DA" transform="translate(1154,442)"/>
<path d="M0 0 C0.33 0 0.66 0 1 0 C1 6.6 1 13.2 1 20 C2.65 19.67 4.3 19.34 6 19 C5.67 19.99 5.34 20.98 5 22 C3 22.75 3 22.75 1 23 C0 22 0 22 -0.11352539 19.86694336 C-0.10828857 18.95050049 -0.10305176 18.03405762 -0.09765625 17.08984375 C-0.09443359 16.10048828 -0.09121094 15.11113281 -0.08789062 14.09179688 C-0.07951172 13.05087891 -0.07113281 12.00996094 -0.0625 10.9375 C-0.05798828 9.89271484 -0.05347656 8.84792969 -0.04882812 7.77148438 C-0.03699913 5.1809334 -0.02051689 2.59049441 0 0 Z " fill="#EB5566" transform="translate(1080,619)"/>
<path d="M0 0 C0.66 0 1.32 0 2 0 C0.97137215 5.44567686 -0.24614784 10.11817117 -3 15 C-3.66 15 -4.32 15 -5 15 C-3.33333333 10 -1.66666667 5 0 0 Z " fill="#D32F33" transform="translate(549,622)"/>
<path d="M0 0 C1.65 0.33 3.3 0.66 5 1 C4.67 2.65 4.34 4.3 4 6 C2.35 5.67 0.7 5.34 -1 5 C-0.67 3.35 -0.34 1.7 0 0 Z " fill="#D31D28" transform="translate(1236,597)"/>
<path d="M0 0 C1.65 0.33 3.3 0.66 5 1 C4.67 2.65 4.34 4.3 4 6 C2.35 5.67 0.7 5.34 -1 5 C-0.67 3.35 -0.34 1.7 0 0 Z " fill="#D51F27" transform="translate(675,597)"/>
<path d="M0 0 C0.66 0.33 1.32 0.66 2 1 C3.37342831 1.0689472 4.75002102 1.08467708 6.125 1.0625 C7.40375 1.041875 8.6825 1.02125 10 1 C10 1.66 10 2.32 10 3 C3.6 6.07692308 3.6 6.07692308 0.5625 5.6875 C0.046875 5.460625 -0.46875 5.23375 -1 5 C-0.34 4.67 0.32 4.34 1 4 C0.67 2.68 0.34 1.36 0 0 Z " fill="#EC4B58" transform="translate(697,637)"/>
<path d="M0 0 C1.32 0 2.64 0 4 0 C4.33 0.66 4.66 1.32 5 2 C5.99 1.34 6.98 0.68 8 0 C10.26171875 -0.1953125 10.26171875 -0.1953125 12.6875 -0.125 C13.89986328 -0.09792969 13.89986328 -0.09792969 15.13671875 -0.0703125 C16.05904297 -0.03550781 16.05904297 -0.03550781 17 0 C17 0.33 17 0.66 17 1 C16.0925 1.12375 15.185 1.2475 14.25 1.375 C11.37144828 1.92856764 9.52349804 2.60772522 7 4 C6.01 4.33 5.02 4.66 4 5 C2.68 3.35 1.36 1.7 0 0 Z " fill="#E14148" transform="translate(1254,615)"/>
<path d="M0 0 C0 0.66 0 1.32 0 2 C-4.455 3.485 -4.455 3.485 -9 5 C-9.66 4.34 -10.32 3.68 -11 3 C-7.48550811 -0.37391222 -4.73940561 -0.27342725 0 0 Z " fill="#DD353F" transform="translate(657,615)"/>
<path d="M0 0 C7.26 0 14.52 0 22 0 C22 0.33 22 0.66 22 1 C19.69 1.66 17.38 2.32 15 3 C14.67 2.67 14.34 2.34 14 2 C11.66706666 1.95679753 9.3329866 1.95977609 7 2 C4 2 4 2 0 0 Z " fill="#E32D38" transform="translate(987,596)"/>
<path d="M0 0 C2.40072955 2.88087546 4.47291037 5.56404834 6 9 C4.33388095 9.042721 2.66617115 9.04063832 1 9 C0 8 0 8 -0.09765625 6.15234375 C-0.06510417 4.1015625 -0.03255208 2.05078125 0 0 Z " fill="#E33E45" transform="translate(1174,633)"/>
<path d="M0 0 C6.93 0.495 6.93 0.495 14 1 C11.50494038 3.49505962 10.32671112 3.35948376 6.875 3.625 C5.96492187 3.69976563 5.05484375 3.77453125 4.1171875 3.8515625 C3.06917969 3.92503906 3.06917969 3.92503906 2 4 C2.33 3.34 2.66 2.68 3 2 C2.01 1.34 1.02 0.68 0 0 Z " fill="#074EAD" transform="translate(670,569)"/>
<path d="M0 0 C3.3 0.33 6.6 0.66 10 1 C10 1.66 10 2.32 10 3 C5.05 3 0.1 3 -5 3 C-5 2.67 -5 2.34 -5 2 C-3.35 1.67 -1.7 1.34 0 1 C0 0.67 0 0.34 0 0 Z " fill="#1568C0" transform="translate(717,540)"/>
<path d="M0 0 C1.65 0 3.3 0 5 0 C5.33 1.65 5.66 3.3 6 5 C4.35 5 2.7 5 1 5 C0.67 3.35 0.34 1.7 0 0 Z " fill="#E71D2A" transform="translate(756,616)"/>
<path d="M0 0 C1.8871875 0.0309375 1.8871875 0.0309375 3.8125 0.0625 C3.1525 1.3825 2.4925 2.7025 1.8125 4.0625 C-1.4875 3.7325 -4.7875 3.4025 -8.1875 3.0625 C-6.45706736 -0.39836529 -3.47359009 -0.0569441 0 0 Z " fill="#E33740" transform="translate(1073.1875,614.9375)"/>
<path d="M0 0 C0.66 0 1.32 0 2 0 C1.67 2.97 1.34 5.94 1 9 C-0.98 9.66 -2.96 10.32 -5 11 C-3.35 7.37 -1.7 3.74 0 0 Z " fill="#2383D1" transform="translate(1184,514)"/>
<path d="M0 0 C0.90105469 0.01804687 1.80210937 0.03609375 2.73046875 0.0546875 C3.41753906 0.07789063 4.10460937 0.10109375 4.8125 0.125 C3.8225 0.62 3.8225 0.62 2.8125 1.125 C2.4825 1.785 2.1525 2.445 1.8125 3.125 C0.86375 3.08375 -0.085 3.0425 -1.0625 3 C-4.28994856 2.77526182 -4.28994856 2.77526182 -6.1875 5.125 C-6.1875 4.465 -6.1875 3.805 -6.1875 3.125 C-6.8475 2.795 -7.5075 2.465 -8.1875 2.125 C-4.87379 -0.08414 -3.8428979 -0.09981553 0 0 Z " fill="#E94E56" transform="translate(723.1875,614.875)"/>
<path d="M0 0 C0.99 0.66 1.98 1.32 3 2 C-0.93905597 3.14889133 -4.93565958 3.52582695 -9 4 C-9 3.34 -9 2.68 -9 2 C-9.66 1.67 -10.32 1.34 -11 1 C-7.31233808 -0.18005182 -3.84889483 -0.20993972 0 0 Z " fill="#E1343E" transform="translate(1106,615)"/>
<path d="M0 0 C0.66 0 1.32 0 2 0 C1.34 3.63 0.68 7.26 0 11 C-0.99 10.01 -1.98 9.02 -3 8 C-1.125 1.125 -1.125 1.125 0 0 Z " fill="#3293DB" transform="translate(1290,513)"/>
<path d="M0 0 C0.66 0.66 1.32 1.32 2 2 C-1 3 -1 3 -3.375 2.4375 C-6.55835358 1.90694107 -8.09142508 2.74223787 -11 4 C-11.66 3.67 -12.32 3.34 -13 3 C-9.36169862 -0.7964884 -4.95093128 -0.73594924 0 0 Z " fill="#E42F3A" transform="translate(961,615)"/>
<path d="M0 0 C-1.32 0.33 -2.64 0.66 -4 1 C-4 1.99 -4 2.98 -4 4 C-6.31 3.67 -8.62 3.34 -11 3 C-8.89427904 -1.21144191 -4.11694326 -0.07767817 0 0 Z " fill="#DE3840" transform="translate(828,615)"/>
<path d="M0 0 C0 5.61 0 11.22 0 17 C-0.33 17 -0.66 17 -1 17 C-1.03738281 16.01257813 -1.07476563 15.02515625 -1.11328125 14.0078125 C-1.17902344 12.72648437 -1.24476563 11.44515625 -1.3125 10.125 C-1.37050781 8.84882813 -1.42851563 7.57265625 -1.48828125 6.2578125 C-1.65714844 5.18273437 -1.82601562 4.10765625 -2 3 C-2.99 2.34 -3.98 1.68 -5 1 C-3 0 -3 0 0 0 Z " fill="#1175D6" transform="translate(754,429)"/>
<path d="M0 0 C2.97 0 5.94 0 9 0 C8.67 0.99 8.34 1.98 8 3 C5.69 3.33 3.38 3.66 1 4 C0.67 2.68 0.34 1.36 0 0 Z " fill="#E73F4C" transform="translate(776,638)"/>
<path d="M0 0 C1 3 1 3 0 6 C3.63 6 7.26 6 11 6 C11 6.33 11 6.66 11 7 C7.04 7 3.08 7 -1 7 C-1.33 5.35 -1.66 3.7 -2 2 C-1.34 1.34 -0.68 0.68 0 0 Z " fill="#E33743" transform="translate(552,617)"/>
<path d="M0 0 C0.99 0 1.98 0 3 0 C2.67 1.65 2.34 3.3 2 5 C0.02 5.33 -1.96 5.66 -4 6 C-2.84826645 3.53199953 -1.95216435 1.95216435 0 0 Z " fill="#DA1B25" transform="translate(1094,617)"/>
<path d="M0 0 C-0.639375 0.28875 -1.27875 0.5775 -1.9375 0.875 C-4.15206079 1.82823451 -4.15206079 1.82823451 -5 4 C-7.97 3.505 -7.97 3.505 -11 3 C-8.21756596 -1.17365106 -4.53441502 -0.22300402 0 0 Z " fill="#E03B45" transform="translate(931,615)"/>
<path d="M0 0 C0.79921875 0.20367187 1.5984375 0.40734375 2.421875 0.6171875 C3.02515625 0.78476562 3.6284375 0.95234375 4.25 1.125 C4.25 1.455 4.25 1.785 4.25 2.125 C-2.185 2.62 -2.185 2.62 -8.75 3.125 C-8.75 2.465 -8.75 1.805 -8.75 1.125 C-5.45750312 -0.91393155 -3.7130065 -0.98285466 0 0 Z " fill="#298DDC" transform="translate(552.75,424.875)"/>
<path d="M0 0 C0.33 0.99 0.66 1.98 1 3 C-3.77830905 5.91360308 -6.55106131 6.19876651 -12 5 C-12 4.67 -12 4.34 -12 4 C-10.95199219 3.81824219 -10.95199219 3.81824219 -9.8828125 3.6328125 C-8.51769531 3.38144531 -8.51769531 3.38144531 -7.125 3.125 C-5.76761719 2.88136719 -5.76761719 2.88136719 -4.3828125 2.6328125 C-1.83494012 2.16955297 -1.83494012 2.16955297 0 0 Z " fill="#E9515A" transform="translate(863,653)"/>
<path d="M0 0 C0.66 0.33 1.32 0.66 2 1 C-3.625 6 -3.625 6 -7 6 C-7.33 5.01 -7.66 4.02 -8 3 C-6.865625 2.690625 -5.73125 2.38125 -4.5625 2.0625 C-1.21224901 1.37075469 -1.21224901 1.37075469 0 0 Z " fill="#E22835" transform="translate(732,636)"/>
<path d="M0 0 C0.33 0 0.66 0 1 0 C1 2.64 1 5.28 1 8 C-1.64738916 9.4606285 -2.89448334 10 -6 10 C-5.38125 9.278125 -4.7625 8.55625 -4.125 7.8125 C-2.16333647 5.21618062 -1.04684 3.05328334 0 0 Z " fill="#2187D9" transform="translate(1163,473)"/>
<path d="M0 0 C2.97 0 5.94 0 9 0 C8.01 0.66 7.02 1.32 6 2 C8.475 2.99 8.475 2.99 11 4 C11 4.33 11 4.66 11 5 C8.69 5 6.38 5 4 5 C4 3.68 4 2.36 4 1 C2.68 0.67 1.36 0.34 0 0 Z " fill="#2C86CC" transform="translate(341,363)"/>
<path d="M0 0 C0.66 0 1.32 0 2 0 C1 3 1 3 -1.9375 4.6875 C-5 6 -5 6 -7 6 C-7 5.01 -7 4.02 -7 3 C-5.5459375 2.5359375 -5.5459375 2.5359375 -4.0625 2.0625 C-1.15934208 1.30476658 -1.15934208 1.30476658 0 0 Z " fill="#E82D3B" transform="translate(1055,636)"/>
<path d="M0 0 C0.515625 0.37125 1.03125 0.7425 1.5625 1.125 C-2.6170645 3.91137633 -4.58418677 2.92062512 -9.4375 2.125 C-9.4375 1.795 -9.4375 1.465 -9.4375 1.125 C-3.0375 -1.09038462 -3.0375 -1.09038462 0 0 Z " fill="#E43E49" transform="translate(1271.4375,638.875)"/>
<path d="M0 0 C1.32 0 2.64 0 4 0 C3.34 2.31 2.68 4.62 2 7 C1.34 6.67 0.68 6.34 0 6 C0 4.02 0 2.04 0 0 Z " fill="#E22631" transform="translate(1174,619)"/>
<path d="M0 0 C0.33 0 0.66 0 1 0 C1.25 2.75 1.25 2.75 1 6 C-1 8.375 -1 8.375 -3 10 C-3.66 9.67 -4.32 9.34 -5 9 C-4.319375 8.1646875 -4.319375 8.1646875 -3.625 7.3125 C-1.96266232 4.94686561 -0.97855457 2.70984342 0 0 Z " fill="#2486D6" transform="translate(1268,473)"/>
<path d="M0 0 C0.33 0 0.66 0 1 0 C1.144375 1.11375 1.28875 2.2275 1.4375 3.375 C1.78372035 6.82142047 1.78372035 6.82142047 3 9 C2.0625 11.625 2.0625 11.625 1 14 C0.67 14 0.34 14 0 14 C0 9.38 0 4.76 0 0 Z " fill="#036FCE" transform="translate(649,439)"/>
<path d="M0 0 C2.31 0 4.62 0 7 0 C7 0.66 7 1.32 7 2 C5.824375 2.433125 5.824375 2.433125 4.625 2.875 C1.90328368 3.84912254 1.90328368 3.84912254 0 6 C0 4.02 0 2.04 0 0 Z " fill="#1D81D3" transform="translate(947,431)"/>
<path d="M0 0 C2.64 0.33 5.28 0.66 8 1 C8 4.10551666 7.4606285 5.35261084 6 8 C5.7525 7.05125 5.505 6.1025 5.25 5.125 C4.3142923 1.91306809 4.3142923 1.91306809 1.875 0.625 C1.25625 0.41875 0.6375 0.2125 0 0 Z " fill="#E5303C" transform="translate(1044,615)"/>
<path d="M0 0 C1.875 0.3125 1.875 0.3125 4 1 C4.66 1.99 5.32 2.98 6 4 C5.01 4 4.02 4 3 4 C2.67 4.99 2.34 5.98 2 7 C1.34 4.69 0.68 2.38 0 0 Z " fill="#E61A2E" transform="translate(726,616)"/>
<path d="M0 0 C0.99 0 1.98 0 3 0 C2.38722388 2.96175123 1.74627478 4.38058783 0 7 C-0.66 7 -1.32 7 -2 7 C-1.34 4.69 -0.68 2.38 0 0 Z " fill="#E63B46" transform="translate(559,595)"/>
<path d="M0 0 C0.598125 0.20625 1.19625 0.4125 1.8125 0.625 C0.94625 0.99625 0.94625 0.99625 0.0625 1.375 C-2.4877997 2.79183317 -4.20535701 4.50127537 -6.1875 6.625 C-5.875 4.25 -5.875 4.25 -5.1875 1.625 C-2.1875 -0.375 -2.1875 -0.375 0 0 Z " fill="#2E84CF" transform="translate(363.1875,379.375)"/>
<path d="M0 0 C1.65 0.33 3.3 0.66 5 1 C5 1.99 5 2.98 5 4 C3.35 4 1.7 4 0 4 C-0.33 3.34 -0.66 2.68 -1 2 C-0.67 1.34 -0.34 0.68 0 0 Z " fill="#DF161E" transform="translate(1043,638)"/>
<path d="M0 0 C1.65 0 3.3 0 5 0 C5 1.98 5 3.96 5 6 C3.31237149 4.3545622 1.6459651 2.68711423 0 1 C0 0.67 0 0.34 0 0 Z " fill="#E6212B" transform="translate(1185,616)"/>
<path d="M0 0 C3.1875 0.3125 3.1875 0.3125 6 1 C6 1.66 6 2.32 6 3 C3.03 3 0.06 3 -3 3 C-2.01 2.01 -1.02 1.02 0 0 Z " fill="#2986D6" transform="translate(901,460)"/>
<path d="M0 0 C3.3 0 6.6 0 10 0 C10 0.66 10 1.32 10 2 C6.06329512 3.31223496 3.87511856 2.24296256 0 1 C0 0.67 0 0.34 0 0 Z " fill="#157DDA" transform="translate(1089,433)"/>
</svg>
