<?xml version="1.0" encoding="UTF-8"?>
<svg version="1.1" xmlns="http://www.w3.org/2000/svg" width="1536" height="1024">
<path d="M0 0 C506.88 0 1013.76 0 1536 0 C1536 337.92 1536 675.84 1536 1024 C1029.12 1024 522.24 1024 0 1024 C0 686.08 0 348.16 0 0 Z " fill="#FDFDFD" transform="translate(0,0)"/>
<path d="M0 0 C1.18078125 0.28875 2.3615625 0.5775 3.578125 0.875 C36.64602596 9.99717957 64.39827639 34.68835161 81.25 64.0625 C82.51454913 66.36707626 83.76486642 68.67952563 85 71 C85.60585938 72.10730469 86.21171875 73.21460938 86.8359375 74.35546875 C104.99334624 108.80697136 108.40585126 153.19826108 97.21484375 190.4453125 C84.8897202 226.50917882 63.24591829 258.72719994 28.05078125 276.0078125 C-4.62592002 291.1927498 -41.66274242 293.90245194 -75.75 281.65234375 C-91.99218892 275.52015247 -105.98213587 266.91293053 -118.7109375 255.078125 C-120.98344711 252.95934998 -120.98344711 252.95934998 -123.51171875 251.0625 C-128.01742567 247.32778532 -131.39166745 242.57955932 -135 238 C-135.52722656 237.3503125 -136.05445313 236.700625 -136.59765625 236.03125 C-148.89266097 220.41419665 -157.86280828 201.12910007 -163 182 C-163.19609863 181.28650391 -163.39219727 180.57300781 -163.59423828 179.83789062 C-169.9840562 155.32356055 -170.19212607 124.34617821 -163 100 C-162.76925781 99.19224121 -162.53851563 98.38448242 -162.30078125 97.55224609 C-152.61546485 64.63370047 -131.79082138 32.86706369 -102 15 C-100.88367188 14.30777344 -99.76734375 13.61554688 -98.6171875 12.90234375 C-68.92048565 -5.10856188 -33.44540168 -8.56789796 0 0 Z " fill="#FCFCFD" transform="translate(466,339)"/>
<path d="M0 0 C2.66609175 0.26660917 3.74705631 0.71536833 5.54345703 2.73681641 C7.12932788 5.2009503 7.76808556 7.17567265 8.4296875 10.0234375 C8.66526367 11.03027588 8.90083984 12.03711426 9.14355469 13.07446289 C9.50562012 14.70822876 9.50562012 14.70822876 9.875 16.375 C10.1318457 17.50736084 10.38869141 18.63972168 10.65332031 19.80639648 C13.18840931 31.29166253 15.08754825 42.85943791 16.921875 54.47265625 C17.5297577 58.31800812 18.21957557 62.08913553 19.140625 65.87109375 C20.11565357 69.9908308 20.15361407 73.77561301 20 78 C33.99954556 72.04274657 45.88693916 64.41092982 57.81640625 55.0078125 C58.70537598 54.30954346 58.70537598 54.30954346 59.61230469 53.59716797 C61.20690263 52.33367121 62.78570388 51.05031029 64.36328125 49.765625 C67 48 67 48 71 48 C70.70410478 54.58485786 69.32343357 59.30616521 65.9375 64.9375 C65.53192871 65.63206299 65.12635742 66.32662598 64.70849609 67.04223633 C61.27942854 72.79191164 57.38152989 77.94009117 53 83 C52.17886719 84.00289063 51.35773438 85.00578125 50.51171875 86.0390625 C49.61255386 87.13068196 48.71280017 88.22181666 47.8125 89.3125 C47.13876343 90.13899048 47.13876343 90.13899048 46.45141602 90.98217773 C43.91734189 94.00958803 41.33527299 96.631914 38.265625 99.12109375 C32.96740229 103.47572184 32.96740229 103.47572184 29 109 C28.64388144 114.33047301 30.09380193 118.45900843 32.00683594 123.38867188 C33.11773441 126.30955931 34.08146336 129.25978201 35.0390625 132.234375 C46.21706761 166.99585081 46.21706761 166.99585081 69.75 194 C77.17631151 196.28501893 84.97565364 195.98645887 91.91015625 192.375 C103.47947849 184.76303471 108.45875454 171.90025131 112 159 C114.375 158.375 114.375 158.375 117 158 C119 160 119 160 119.265625 163.16015625 C119.20284736 178.8388717 115.77569555 192.18725794 104.8125 204 C94.56583288 213.42550564 83.904807 216.61059297 70.40234375 216.3359375 C58.78372178 215.73217832 49.86825171 208.93544543 41.953125 200.9296875 C24.71541897 181.14080098 17.80095172 152.73398758 11 128 C7.98645606 128 6.80670894 129.90062901 4.76025391 131.91088867 C4.19999512 132.47654541 3.63973633 133.04220215 3.0625 133.625 C2.48419434 134.20677002 1.90588867 134.78854004 1.31005859 135.38793945 C-4.67185761 141.51813378 -9.90568978 148.12696213 -15 155 C-15.63421875 155.83917969 -16.2684375 156.67835938 -16.921875 157.54296875 C-24.82817834 168.36880153 -31.38026708 180.4209682 -36 193 C-36.36738281 193.99386719 -36.73476563 194.98773437 -37.11328125 196.01171875 C-37.97033598 198.90003095 -38.26859125 201.18966151 -38.25 204.1875 C-38.25515625 205.02667969 -38.2603125 205.86585938 -38.265625 206.73046875 C-38.1413952 209.27997557 -38.1413952 209.27997557 -36 212 C-23.37614332 211.71946985 -13.43337823 200.36527558 -5 192 C-3.51783885 190.44034023 -2.03817775 188.87829547 -0.5625 187.3125 C1.98612407 184.69894284 2.85511334 184.04139619 6.5 183 C7.325 183 8.15 183 9 183 C11.35399031 191.21588776 7.03770838 200.44526178 3.3125 207.75 C-2.87410997 218.30454313 -11.94022257 227.58424086 -23.76953125 231.52734375 C-30.86009141 233.02989678 -37.97846232 233.01156792 -44.3203125 229.26171875 C-49.02693662 225.72627784 -52.7747559 220.80532325 -54 215 C-54.24517363 209.98460022 -54.15907958 205.01984455 -54 200 C-54 199.01 -54 198.02 -54 197 C-54.70962891 197.88751953 -54.70962891 197.88751953 -55.43359375 198.79296875 C-60.08390221 204.34977008 -64.43641309 207.94970235 -71 211 C-71.66 211.33 -72.32 211.66 -73 212 C-78.53046557 212.82591074 -82.90823613 212.53015184 -87.6875 209.5 C-96.11144147 203.12272037 -100.73287425 195.57791384 -105 186 C-105.57041016 184.75863281 -105.57041016 184.75863281 -106.15234375 183.4921875 C-107.12145193 180.64292012 -107.26639185 178.31630635 -107.25 175.3125 C-107.25515625 174.35988281 -107.2603125 173.40726563 -107.265625 172.42578125 C-107 170 -107 170 -105 168 C-101.875 168.375 -101.875 168.375 -99 169 C-98.68546875 169.99 -98.3709375 170.98 -98.046875 172 C-93.85230193 185.83051947 -93.85230193 185.83051947 -85 197 C-81.78509882 198.60745059 -79.5698929 198.40305242 -76 198 C-69.03161507 194.54313453 -64.97123286 188.44691633 -61 182 C-60.31164062 180.90300781 -59.62328125 179.80601562 -58.9140625 178.67578125 C-52.21004969 167.59060467 -47.64887777 155.69187253 -43.02856445 143.62402344 C-42.20492319 141.52279004 -41.31093549 139.44918572 -40.39453125 137.38671875 C-38.57693505 132.97255656 -37.32728109 128.47303222 -36.0625 123.875 C-35.54139685 122.01403356 -35.01926149 120.15335584 -34.49609375 118.29296875 C-34.24327637 117.39239746 -33.99045898 116.49182617 -33.72998047 115.56396484 C-32.24493838 110.34794074 -30.63123967 105.17198932 -29 100 C-29.65484375 100.03480469 -30.3096875 100.06960938 -30.984375 100.10546875 C-45.24530305 100.52846238 -56.6953487 96.27468169 -67.6015625 87.28125 C-71.44195487 83.62849895 -74.25680312 79.51103487 -77 75 C-77.639375 73.96875 -78.27875 72.9375 -78.9375 71.875 C-80.35074865 68.05091542 -80.21002471 65.06047765 -80 61 C-77.8125 60.1875 -77.8125 60.1875 -75 60 C-71.11719683 63.36593651 -68.45695435 67.13902332 -65.6875 71.4375 C-62.10147425 76.77284304 -58.65931824 80.85354792 -53 84 C-52.31035156 84.40863281 -51.62070312 84.81726563 -50.91015625 85.23828125 C-42.77686297 89.28407329 -33.83719885 88.34655682 -25 88 C-24.63261719 86.40478516 -24.63261719 86.40478516 -24.2578125 84.77734375 C-20.94750028 70.57978246 -17.3221637 56.467481 -13.66796875 42.35546875 C-11.15022263 32.61247324 -8.6683579 22.86715315 -6.62109375 13.01171875 C-5.47585063 7.84438181 -3.78279868 3.78279868 0 0 Z " fill="#0B61AE" transform="translate(429,347)"/>
<path d="M0 0 C1.05832031 0.23847656 2.11664063 0.47695313 3.20703125 0.72265625 C5.84795581 1.38387724 8.41174165 2.15576122 11 3 C12.86205078 3.59554688 12.86205078 3.59554688 14.76171875 4.203125 C37.42103644 11.69418214 57.05122573 22.70562106 74.640625 38.88671875 C76.24670227 40.32527472 77.90117414 41.71116754 79.59375 43.046875 C83.20608027 45.97896125 86.01648383 49.44619402 89 53 C89.69222656 53.804375 90.38445312 54.60875 91.09765625 55.4375 C105.86594426 72.94065615 117.98022293 93.48111182 123 116 C123.28230469 117.12792969 123.56460937 118.25585938 123.85546875 119.41796875 C127.26122896 133.31283084 127.22344699 146.76248335 127 161 C126.98324219 162.2271875 126.96648437 163.454375 126.94921875 164.71875 C125.47185735 197.47396267 107.42403945 230.3131318 84.18359375 252.75390625 C66.03583565 269.08309986 45.18894445 281.413328 22 289 C21.31977783 289.24008789 20.63955566 289.48017578 19.9387207 289.72753906 C14.37991755 291.66474389 8.83831893 293.00825233 3.0625 294.125 C2.23298828 294.29386719 1.40347656 294.46273438 0.54882812 294.63671875 C-43.71433832 303.37241749 -89.80136149 292.14615186 -127.00830078 267.35595703 C-160.63945731 244.45972715 -185.33854619 210.16402966 -193.30859375 170.015625 C-199.75863691 133.80014779 -192.21828957 97.28581233 -171.8828125 66.69140625 C-146.96759693 31.07608773 -108.71502851 6.01393623 -65.76953125 -2.046875 C-43.71224719 -5.70274472 -21.73994963 -5.09140328 0 0 Z M-122.53417969 34.58544922 C-123.96872287 35.96981684 -125.42558746 37.33093463 -126.8828125 38.69140625 C-144.65070724 55.69216347 -157.46462445 80.34441519 -164 104 C-164.19754883 104.68545898 -164.39509766 105.37091797 -164.59863281 106.07714844 C-175.29901956 144.90326531 -167.70274569 189.21893323 -148.375 223.875 C-144.66827999 230.22983612 -140.58734961 236.24966034 -136 242 C-135.33677734 242.83144531 -135.33677734 242.83144531 -134.66015625 243.6796875 C-128.11817813 251.7995411 -121.34826291 258.68170983 -113 265 C-111.91332031 265.90105469 -111.91332031 265.90105469 -110.8046875 266.8203125 C-84.72066015 288.28429073 -50.39942984 295.50157311 -17.34765625 292.78173828 C4.27950346 290.38200079 25.43774005 282.93384591 43 270 C43.78761719 269.42378906 44.57523438 268.84757812 45.38671875 268.25390625 C74.39159732 246.33573449 94.42865937 214.31935928 99.70751953 178.11279297 C99.80403809 177.41557129 99.90055664 176.71834961 100 176 C100.10296387 175.26023926 100.20592773 174.52047852 100.31201172 173.75830078 C106.18422977 129.73985741 96.4931643 87.21126638 69.33837891 51.68164062 C65.50447157 46.86442907 61.26793106 42.43008649 57 38 C56.35804688 37.29488281 55.71609375 36.58976562 55.0546875 35.86328125 C36.35883548 15.91294565 10.40756512 5.4667965 -16 1 C-16.95302002 0.8242041 -17.90604004 0.6484082 -18.88793945 0.46728516 C-57.10903654 -5.27172636 -95.02301157 7.93684247 -122.53417969 34.58544922 Z " fill="#0D63AF" transform="translate(467,335)"/>
<path d="M0 0 C1.10408203 0.01353516 1.10408203 0.01353516 2.23046875 0.02734375 C4.0287888 0.05069856 5.82693911 0.08656164 7.625 0.125 C7.625 0.785 7.625 1.445 7.625 2.125 C7.03332031 2.22296875 6.44164062 2.3209375 5.83203125 2.421875 C0.79857687 3.37437208 -2.74223454 4.27854246 -6.375 8.125 C-10.16394465 14.48501423 -10.52694985 20.25744724 -10.55200195 27.52368164 C-10.55857315 28.35679367 -10.56514435 29.1899057 -10.57191467 30.04826355 C-10.59156175 32.79389545 -10.6032868 35.53947307 -10.61328125 38.28515625 C-10.61735678 39.22437864 -10.6214323 40.16360104 -10.62563133 41.13128471 C-10.64644851 46.0960658 -10.66077288 51.06081955 -10.67016602 56.02563477 C-10.68126281 61.15612146 -10.71571252 66.28617831 -10.75533772 71.41651249 C-10.78144202 75.36186037 -10.78985199 79.3071044 -10.79344749 83.25253105 C-10.79832409 85.14440271 -10.80996849 87.0362694 -10.82848549 88.92805672 C-10.852761 91.57096071 -10.85193421 94.21273221 -10.8449707 96.85571289 C-10.85778076 97.63764008 -10.87059082 98.41956726 -10.88378906 99.22518921 C-10.8500765 102.72999985 -10.66020643 104.73926536 -8.54875183 107.59495544 C-5.84947084 109.49490563 -3.63099797 109.82900018 -0.375 110.125 C-0.375 110.455 -0.375 110.785 -0.375 111.125 C-14.565 111.125 -28.755 111.125 -43.375 111.125 C-39.375 109.125 -39.375 109.125 -36.75 108.3125 C-34.23595073 107.33862559 -34.23595073 107.33862559 -33.25244141 105.05981445 C-32.14556747 101.35760754 -32.02055014 97.81195508 -31.9609375 93.98046875 C-31.94329346 93.29746704 -31.92564941 92.61446533 -31.9074707 91.9107666 C-31.84477265 89.3782432 -31.7983318 86.8453383 -31.75 84.3125 C-31.62625 78.640625 -31.5025 72.96875 -31.375 67.125 C-47.215 67.125 -63.055 67.125 -79.375 67.125 C-79.21734 80.8262529 -79.21734 80.8262529 -79.01464844 94.52685547 C-79.0029482 96.26528939 -78.99275955 98.00373442 -78.984375 99.7421875 C-78.96391113 100.6194751 -78.94344727 101.4967627 -78.92236328 102.40063477 C-78.91763192 110.93363764 -81.45608389 119.2755435 -87.4375 125.5859375 C-95.83504746 132.25656995 -105.04195292 132.81285077 -115.375 132.125 C-113.08560879 130.36355029 -110.90264597 128.85930086 -108.375 127.4375 C-102.13668576 122.62879944 -100.95729271 116.17989368 -99.77871704 108.68276978 C-99.00679793 101.8802071 -99.0672222 95.06725466 -99.07421875 88.23046875 C-99.07032157 86.62770987 -99.06598484 85.02495201 -99.06123352 83.42219543 C-99.05382628 80.0865237 -99.05402462 76.75095795 -99.05932617 73.4152832 C-99.0651483 69.15409742 -99.0480975 64.89334242 -99.0249815 60.6322279 C-99.0102206 57.33184808 -99.00937506 54.03157191 -99.01249123 50.73116493 C-99.01198034 49.15997774 -99.00678663 47.58878439 -98.99667931 46.01762962 C-98.98427 43.8216093 -98.99112979 41.62642792 -99.00268555 39.43041992 C-99.00205612 38.1853215 -99.0014267 36.94022308 -99.0007782 35.65739441 C-99.4478916 31.43695378 -100.33063233 28.8396451 -102.375 25.125 C-105.96363524 24.0634058 -105.96363524 24.0634058 -109.375 24.125 C-109.375 23.465 -109.375 22.805 -109.375 22.125 C-95.515 22.125 -81.655 22.125 -67.375 22.125 C-67.375 22.785 -67.375 23.445 -67.375 24.125 C-70.40234375 24.36914062 -70.40234375 24.36914062 -73.4296875 24.61328125 C-75.77019216 24.99893036 -75.77019216 24.99893036 -77.375 28.125 C-77.61512791 30.73202418 -77.7477997 33.24464544 -77.7890625 35.85546875 C-77.80670654 36.52082642 -77.82435059 37.18618408 -77.8425293 37.8717041 C-77.90548619 40.3517258 -77.95174903 42.83214861 -78 45.3125 C-78.185625 53.6346875 -78.185625 53.6346875 -78.375 62.125 C-62.865 62.125 -47.355 62.125 -31.375 62.125 C-31.45392834 49.60525858 -31.45392834 49.60525858 -31.55517578 37.08569336 C-31.56102285 35.50374625 -31.5661179 33.92179611 -31.5703125 32.33984375 C-31.58054443 31.53357544 -31.59077637 30.72730713 -31.60131836 29.89660645 C-31.60400338 21.10989248 -29.54036396 14.57834275 -23.375 8.125 C-16.01947743 2.16426347 -9.39253033 -0.22080089 0 0 Z " fill="#0D63AF" transform="translate(923.375,394.875)"/>
<path d="M0 0 C14.96836417 10.85271938 21.36035939 30.17356858 28.11334229 46.71850586 C30.0510358 51.46019994 32.02191961 56.18810917 33.98828125 60.91796875 C34.36805115 61.83319305 34.74782104 62.74841736 35.13909912 63.69137573 C44.84464268 88.62212173 44.84464268 88.62212173 61.3125 109.3125 C62.488125 110.364375 62.488125 110.364375 63.6875 111.4375 C70.62217616 116.39084011 76.95521496 116.91453405 85.3125 117.3125 C84.3125 119.3125 84.3125 119.3125 81.25 120.4375 C68.84864471 123.23059804 56.33918339 121.80098549 45.25 115.6875 C28.29556679 104.83560143 21.67382518 87.14070943 14.3125 69.3125 C2.4325 69.3125 -9.4475 69.3125 -21.6875 69.3125 C-29.08831883 83.31794914 -29.08831883 83.31794914 -28.6875 91.3125 C-26.05521463 94.13976947 -23.4470188 94.79034461 -19.6875 95.3125 C-19.6875 95.6425 -19.6875 95.9725 -19.6875 96.3125 C-29.9175 96.3125 -40.1475 96.3125 -50.6875 96.3125 C-47.6875 94.3125 -47.6875 94.3125 -44.74243164 93.1340332 C-40.88295626 90.83278284 -39.57601441 88.12828542 -37.80859375 84.16796875 C-37.47452011 83.46044968 -37.14044647 82.7529306 -36.79624939 82.02397156 C-36.09528831 80.53584338 -35.40214306 79.04401092 -34.7164917 77.54876709 C-33.73078326 75.40656581 -32.71957488 73.279017 -31.69580078 71.15478516 C-26.92813657 61.2541467 -22.29902114 51.28663553 -17.6875 41.3125 C-17.1522168 40.1560498 -16.61693359 38.99959961 -16.06542969 37.80810547 C-14.73153105 34.90150167 -13.42174056 31.98583267 -12.125 29.0625 C-11.74931885 28.24305908 -11.3736377 27.42361816 -10.98657227 26.5793457 C-9.04226071 22.09885058 -8.15666901 19.16721864 -9.6875 14.3125 C-12.41182731 8.50138124 -17.08168689 5.15058948 -22.6875 2.3125 C-26.00294299 1.20735234 -28.89160111 0.99142369 -32.375 0.75 C-34.14423828 0.62431641 -34.14423828 0.62431641 -35.94921875 0.49609375 C-37.30466797 0.40521484 -37.30466797 0.40521484 -38.6875 0.3125 C-27.49061104 -8.81373141 -11.70245949 -7.2793265 0 0 Z " fill="#0D61AD" transform="translate(662.6875,409.6875)"/>
<path d="M0 0 C2 1 2 1 2.89794922 3.07861328 C3.34678467 4.43575439 3.34678467 4.43575439 3.8046875 5.8203125 C4.13919922 6.82400879 4.47371094 7.82770508 4.81835938 8.86181641 C5.16705078 9.93866699 5.51574219 11.01551758 5.875 12.125 C6.23142578 13.21345215 6.58785156 14.3019043 6.95507812 15.42333984 C14.95691294 40.10541626 14.95691294 40.10541626 14 46 C12.18320796 48.47913984 9.96428898 50.44786516 7.6875 52.5 C0.66898075 59.15747514 -5.26189153 66.23020506 -11 74 C-11.63292969 74.83789062 -12.26585937 75.67578125 -12.91796875 76.5390625 C-20.82800873 87.36332773 -27.38004677 99.4203683 -32 112 C-32.55107422 113.49080078 -32.55107422 113.49080078 -33.11328125 115.01171875 C-33.97033598 117.90003095 -34.26859125 120.18966151 -34.25 123.1875 C-34.25515625 124.02667969 -34.2603125 124.86585938 -34.265625 125.73046875 C-34.1413952 128.27997557 -34.1413952 128.27997557 -32 131 C-19.37614332 130.71946985 -9.43337823 119.36527558 -1 111 C0.48216115 109.44034023 1.96182225 107.87829547 3.4375 106.3125 C5.98612407 103.69894284 6.85511334 103.04139619 10.5 102 C11.325 102 12.15 102 13 102 C15.35399031 110.21588776 11.03770838 119.44526178 7.3125 126.75 C1.12589003 137.30454313 -7.94022257 146.58424086 -19.76953125 150.52734375 C-26.86009141 152.02989678 -33.97846232 152.01156792 -40.3203125 148.26171875 C-45.05412984 144.70585131 -48.71703771 139.81280607 -50 134 C-51.31331322 120.0820831 -47.46249179 110.6595162 -41.28417969 98.54638672 C-35.58710824 87.35402602 -30.11528321 75.85970601 -26.02734375 63.97265625 C-24.28980885 58.94503625 -22.40380264 53.97117554 -20.54833984 48.98608398 C-19.14382388 45.18929111 -17.78719756 41.38902611 -16.53515625 37.5390625 C-13.70938187 28.98534189 -10.0785168 20.76578971 -6.375 12.5625 C-5.98054688 11.67884766 -5.58609375 10.79519531 -5.1796875 9.88476562 C-4.60734375 8.61342773 -4.60734375 8.61342773 -4.0234375 7.31640625 C-3.68231934 6.55787354 -3.34120117 5.79934082 -2.98974609 5.01782227 C-2 3 -2 3 0 0 Z " fill="#D9282A" transform="translate(425,428)"/>
<path d="M0 0 C0.74056641 0.00451172 1.48113281 0.00902344 2.24414062 0.01367188 C4.05862899 0.02537825 5.87307534 0.04331102 7.6875 0.0625 C8.0175 0.7225 8.3475 1.3825 8.6875 2.0625 C7.39779297 2.15724609 7.39779297 2.15724609 6.08203125 2.25390625 C-6.6954997 3.57764174 -15.79076193 7.82862131 -24.31307983 17.57667542 C-27.2690181 21.25171288 -29.47255533 25.13661617 -31.6484375 29.30859375 C-32.14056732 30.23111435 -32.63269714 31.15363495 -33.13973999 32.10411072 C-40.91964036 46.82125205 -48.28872705 61.75731619 -55.70812988 76.65814209 C-57.36520274 79.98322966 -59.02683993 83.30602701 -60.68853188 86.62880802 C-62.2977989 89.84761372 -63.90498189 93.06745615 -65.51145554 96.28765678 C-66.27407942 97.8160709 -67.0371769 99.34424881 -67.80076981 100.87217903 C-68.85959237 102.99199521 -69.91577157 105.11310719 -70.97119141 107.23461914 C-71.2817749 107.85533295 -71.5923584 108.47604675 -71.91235352 109.11557007 C-73.53301471 112.3808664 -75.01270923 115.65639641 -76.3125 119.0625 C-78.14599609 118.84130859 -78.14599609 118.84130859 -80.3125 118.0625 C-81.70947266 116.13916016 -81.70947266 116.13916016 -82.9765625 113.6015625 C-83.45295166 112.66618652 -83.92934082 111.73081055 -84.42016602 110.76708984 C-84.92088623 109.7508252 -85.42160645 108.73456055 -85.9375 107.6875 C-87.02167886 105.54664373 -88.10631953 103.40602127 -89.19140625 101.265625 C-89.72523926 100.20150391 -90.25907227 99.13738281 -90.80908203 98.04101562 C-92.77644126 94.14335687 -94.82099628 90.28993808 -96.875 86.4375 C-100.31128744 79.95806281 -103.65806325 73.434781 -106.984375 66.8984375 C-107.83643571 65.22733987 -108.68856868 63.55627908 -109.54077148 61.88525391 C-110.82633701 59.36426764 -112.10989632 56.8423655 -113.38699341 54.31707764 C-114.59282396 51.9327576 -115.80560148 49.55207935 -117.01953125 47.171875 C-117.3775885 46.45897308 -117.73564575 45.74607117 -118.10455322 45.01156616 C-121.00217858 39.35454909 -123.92570604 33.65369597 -129.3125 30.0625 C-130.96799531 29.67750109 -132.6347433 29.33456865 -134.3125 29.0625 C-134.3125 28.7325 -134.3125 28.4025 -134.3125 28.0625 C-120.1225 28.0625 -105.9325 28.0625 -91.3125 28.0625 C-93.2925 29.0525 -93.2925 29.0525 -95.3125 30.0625 C-96.3025 30.7225 -97.2925 31.3825 -98.3125 32.0625 C-98.85491097 36.56281716 -97.96061782 39.50863722 -95.94165039 43.5012207 C-95.42433853 44.53861893 -94.90702667 45.57601715 -94.3740387 46.64485168 C-93.80845749 47.74818344 -93.24287628 48.8515152 -92.66015625 49.98828125 C-92.08543076 51.13161423 -91.51070526 52.2749472 -90.91856384 53.45292664 C-89.3958079 56.48126692 -87.85843501 59.50195665 -86.31817627 62.52142334 C-85.05978929 64.99446767 -83.81192759 67.47274694 -82.56456852 69.95136738 C-79.991616 75.06337984 -77.41059121 80.17134512 -74.81274414 85.27075195 C-74.35307755 86.17420853 -73.89341095 87.0776651 -73.41981506 88.00849915 C-72.47565234 89.9949719 -72.47565234 89.9949719 -71.3125 91.0625 C-70.88130859 90.14476807 -70.45011719 89.22703613 -70.00585938 88.28149414 C-65.9894672 79.73771309 -61.95845159 71.20098893 -57.91296387 62.67094421 C-55.5953216 57.78150105 -53.29179322 52.88581643 -51.00183105 47.98335266 C-49.61409599 45.02044917 -48.21332342 42.06383894 -46.80932617 39.10861206 C-46.15426599 37.72294639 -45.50451743 36.33475488 -44.8605957 34.94387817 C-38.02260985 20.19121572 -28.99185393 7.16524255 -13.3125 1.0625 C-8.90477269 -0.13255283 -4.53171465 -0.05264727 0 0 Z " fill="#0D62AF" transform="translate(1116.3125,388.9375)"/>
<path d="M0 0 C0 6.6 0 13.2 0 20 C-0.66 20 -1.32 20 -2 20 C-2.10957031 19.38511719 -2.21914062 18.77023437 -2.33203125 18.13671875 C-2.49058594 17.32847656 -2.64914062 16.52023437 -2.8125 15.6875 C-2.96332031 14.88699219 -3.11414062 14.08648437 -3.26953125 13.26171875 C-4.09378833 10.70960726 -4.90725641 9.64683212 -7 8 C-9.9195043 7.0268319 -12.05444951 6.8070454 -15.10546875 6.68359375 C-15.99129639 6.64548584 -16.87712402 6.60737793 -17.78979492 6.56811523 C-19.47165894 6.50346069 -19.47165894 6.50346069 -21.1875 6.4375 C-24.755625 6.293125 -28.32375 6.14875 -32 6 C-32 18.54 -32 31.08 -32 44 C-27.66875 43.87625 -23.3375 43.7525 -18.875 43.625 C-17.52003418 43.59100098 -16.16506836 43.55700195 -14.76904297 43.52197266 C-13.68768066 43.4863623 -12.60631836 43.45075195 -11.4921875 43.4140625 C-10.39245605 43.3826416 -9.29272461 43.3512207 -8.15966797 43.31884766 C-4.789247 42.97873254 -2.09407067 42.38610307 1 41 C2.46022435 37.47548841 2.46022435 37.47548841 3 34 C3.33 34 3.66 34 4 34 C4 42.25 4 50.5 4 59 C3.34 59 2.68 59 2 59 C1.690625 57.3603125 1.690625 57.3603125 1.375 55.6875 C0.36096236 51.95434207 0.36096236 51.95434207 -2.25 50.3125 C-7.89296725 48.33746146 -13.43808812 48.42595119 -19.375 48.3125 C-23.54125 48.209375 -27.7075 48.10625 -32 48 C-32 60.21 -32 72.42 -32 85 C-26.946875 84.896875 -21.89375 84.79375 -16.6875 84.6875 C-15.11701904 84.66260498 -13.54653809 84.63770996 -11.9284668 84.61206055 C1.28427136 84.64116236 1.28427136 84.64116236 12.92651367 79.38574219 C16.30162019 75.73196715 18.67961262 71.37303775 21 67 C22 71 22 71 17 90 C-9.4 90 -35.8 90 -63 90 C-59 88 -59 88 -56.375 87.125 C-53.43058147 85.73027543 -53.10787083 85.0248748 -52 82 C-51.68935345 78.67870277 -51.68935345 78.67870277 -51.7253418 74.92407227 C-51.72023087 74.21950897 -51.71511993 73.51494568 -51.70985413 72.78903198 C-51.69597736 70.4647365 -51.6969134 68.14073818 -51.69921875 65.81640625 C-51.69533078 64.19742218 -51.6909959 62.57843913 -51.68623352 60.9594574 C-51.67877546 57.56758313 -51.67905959 54.17581296 -51.68432617 50.78393555 C-51.69012054 46.44161217 -51.67318883 42.09971536 -51.6499815 37.7574625 C-51.63523544 34.41425595 -51.63437363 31.07115193 -51.63749123 27.72791862 C-51.63697846 26.12716769 -51.63174907 24.52641095 -51.62167931 22.9256916 C-51.60931485 20.68528811 -51.61610586 18.44571293 -51.62768555 16.20532227 C-51.62705612 14.93165298 -51.6264267 13.6579837 -51.6257782 12.34571838 C-52.03166065 8.71693895 -52.72708303 6.83808371 -55 4 C-58.57996259 2.63099646 -58.57996259 2.63099646 -62 2 C-62 1.67 -62 1.34 -62 1 C-54.65448566 0.86909599 -47.30896301 0.73866992 -39.96342945 0.60884857 C-36.55235697 0.54854805 -33.14128754 0.4880849 -29.73022461 0.42724609 C-25.80583542 0.35725895 -21.88143376 0.28798633 -17.95703125 0.21875 C-16.73603226 0.19687622 -15.51503326 0.17500244 -14.2570343 0.15246582 C-13.1162291 0.13244507 -11.97542389 0.11242432 -10.80004883 0.09179688 C-9.79855301 0.07403198 -8.79705719 0.05626709 -7.76521301 0.03796387 C-5.17702165 0.00243035 -2.58843527 0 0 0 Z " fill="#0B61AD" transform="translate(1248,416)"/>
<path d="M0 0 C0 6.6 0 13.2 0 20 C-0.66 20 -1.32 20 -2 20 C-2.10957031 19.38511719 -2.21914062 18.77023437 -2.33203125 18.13671875 C-2.49058594 17.32847656 -2.64914062 16.52023437 -2.8125 15.6875 C-2.96332031 14.88699219 -3.11414062 14.08648437 -3.26953125 13.26171875 C-4.08740771 10.72936328 -4.96014607 9.66990561 -7 8 C-9.51677113 6.74161443 -11.41293288 6.79181027 -14.2265625 6.68359375 C-15.15549316 6.64548584 -16.08442383 6.60737793 -17.04150391 6.56811523 C-18.22405762 6.52501221 -19.40661133 6.48190918 -20.625 6.4375 C-24.37875 6.293125 -28.1325 6.14875 -32 6 C-31.505 24.315 -31.505 24.315 -31 43 C-26.813125 43.04125 -22.62625 43.0825 -18.3125 43.125 C-17.00063721 43.14320801 -15.68877441 43.16141602 -14.3371582 43.18017578 C-13.29390381 43.1851709 -12.25064941 43.19016602 -11.17578125 43.1953125 C-10.11270752 43.20578613 -9.04963379 43.21625977 -7.9543457 43.22705078 C-4.88853164 42.99143331 -2.73980463 42.37357498 0 41 C1.21526985 39.31953843 1.21526985 39.31953843 1.8125 37.375 C2.204375 36.26125 2.59625 35.1475 3 34 C3.33 34 3.66 34 4 34 C4 42.25 4 50.5 4 59 C2 56 2 56 0.625 53.4375 C-1.19145095 50.71282357 -1.99503751 50.14526585 -5 49 C-7.9988119 48.63443135 -7.9988119 48.63443135 -11.296875 48.5859375 C-12.38323242 48.55032715 -13.46958984 48.5147168 -14.58886719 48.47802734 C-15.96204102 48.44402832 -17.33521484 48.4100293 -18.75 48.375 C-23.1225 48.25125 -27.495 48.1275 -32 48 C-32 60.21 -32 72.42 -32 85 C-23.6159375 84.87625 -23.6159375 84.87625 -15.0625 84.75 C-13.31718994 84.73420898 -11.57187988 84.71841797 -9.77368164 84.70214844 C3.21172677 84.50876479 3.21172677 84.50876479 14.12109375 78 C14.55550781 77.34 14.98992187 76.68 15.4375 76 C15.88996094 75.34 16.34242187 74.68 16.80859375 74 C17.97593959 72.04038993 19.0133799 70.05584096 20 68 C20.66 68 21.32 68 22 68 C20.38147436 75.34561636 18.69158779 82.66978624 17 90 C-9.07 90 -35.14 90 -62 90 C-59.97472567 88.98736284 -57.94667174 87.97647283 -55.875 87.0625 C-53.67642241 86.00259733 -53.67642241 86.00259733 -52 83 C-51.8011358 80.53927525 -51.71657106 78.19151518 -51.7253418 75.73046875 C-51.72023087 74.99357819 -51.71511993 74.25668762 -51.70985413 73.49746704 C-51.69594945 71.06072885 -51.69691532 68.62427316 -51.69921875 66.1875 C-51.69533268 64.49503473 -51.6909982 62.80257044 -51.68623352 61.11010742 C-51.67876972 57.5626306 -51.67906401 54.01525329 -51.68432617 50.46777344 C-51.69012524 45.91784645 -51.67318022 41.36832594 -51.6499815 36.81846619 C-51.63526377 33.32350272 -51.63436969 29.82863764 -51.63749123 26.33364868 C-51.63697716 24.65588576 -51.6317235 22.97811745 -51.62167931 21.30038452 C-51.609368 18.9564963 -51.61607364 16.61340631 -51.62768555 14.26953125 C-51.62004181 13.57437408 -51.61239807 12.87921692 -51.60452271 12.16299438 C-51.6351427 9.37237673 -51.68637201 7.45611079 -53.2928009 5.11987305 C-55.98032185 3.35693732 -58.90595635 2.75891637 -62 2 C-62 1.67 -62 1.34 -62 1 C-54.65448566 0.86909599 -47.30896301 0.73866992 -39.96342945 0.60884857 C-36.55235697 0.54854805 -33.14128754 0.4880849 -29.73022461 0.42724609 C-25.80583542 0.35725895 -21.88143376 0.28798633 -17.95703125 0.21875 C-16.73603226 0.19687622 -15.51503326 0.17500244 -14.2570343 0.15246582 C-13.1162291 0.13244507 -11.97542389 0.11242432 -10.80004883 0.09179688 C-9.79855301 0.07403198 -8.79705719 0.05626709 -7.76521301 0.03796387 C-5.17702165 0.00243035 -2.58843527 0 0 0 Z " fill="#095FAD" transform="translate(1158,416)"/>
<path d="M0 0 C2.64 0.33 5.28 0.66 8 1 C10.48773821 1.08601038 12.97732862 1.12781264 15.46655273 1.12939453 C16.51463608 1.13202301 16.51463608 1.13202301 17.58389282 1.13470459 C19.86715261 1.1390642 22.15033333 1.13620574 24.43359375 1.1328125 C26.03727737 1.13348731 27.64096089 1.13445881 29.24464417 1.13571167 C32.59580464 1.13718074 35.94693835 1.13505988 39.2980957 1.13037109 C43.57250575 1.12467893 47.84685291 1.12795462 52.12126064 1.13394356 C55.43028732 1.13757452 58.73929935 1.13639889 62.04832649 1.13381577 C63.62343414 1.13315326 65.19854317 1.13395101 66.77364922 1.13629532 C68.98381905 1.13886322 71.19389017 1.13492351 73.40405273 1.12939453 C74.65677475 1.12859894 75.90949677 1.12780334 77.20018005 1.12698364 C81.48090301 0.98392902 85.74308404 0.47299066 90 0 C90 6.93 90 13.86 90 21 C88 18 88 18 87.125 14.5 C85.88770548 10.65063928 85.41156966 9.92841879 82 8 C79.0064314 7.49746855 79.0064314 7.49746855 75.703125 7.48828125 C74.49785156 7.45283203 73.29257812 7.41738281 72.05078125 7.38085938 C70.79652344 7.35830078 69.54226563 7.33574219 68.25 7.3125 C66.98027344 7.27833984 65.71054687 7.24417969 64.40234375 7.20898438 C61.26831726 7.12650999 58.13457045 7.05735516 55 7 C55.01487465 16.95345599 55.05646696 26.9064084 55.13209057 36.85959911 C55.16636895 41.48141648 55.19147184 46.10290301 55.19555664 50.72485352 C55.19983782 55.18609521 55.22828498 59.64659049 55.27343178 64.10759926 C55.28641266 65.80877649 55.29071235 67.51004301 55.28615379 69.21126366 C55.28125166 71.59633153 55.30731863 73.97921455 55.34057617 76.36401367 C55.32763771 77.4170594 55.32763771 77.4170594 55.31443787 78.49137878 C55.40385864 82.3212742 55.92618405 83.90867633 58.36543274 86.9264679 C61.05861518 89.04613299 62.62660623 89.71085196 66 90 C66 90.33 66 90.66 66 91 C52.14 91 38.28 91 24 91 C27 89 27 89 30.125 87.5 C33.08870808 86.31101699 33.08870808 86.31101699 34 84 C34.12203618 81.55977066 34.18560857 79.14613824 34.20532227 76.70458984 C34.21522186 75.95327286 34.22512146 75.20195587 34.23532104 74.4278717 C34.26696523 71.93892594 34.29170495 69.44996107 34.31640625 66.9609375 C34.33697326 65.23743182 34.35796967 63.51393121 34.37937927 61.79043579 C34.43462607 57.2497976 34.48402383 52.7091137 34.53222656 48.168396 C34.58242256 43.53670168 34.63811854 38.90507391 34.69335938 34.2734375 C34.80097284 25.18234849 34.90241072 16.09120175 35 7 C30.60302024 7.02281937 26.20863425 7.10015958 21.8125 7.1875 C19.94368164 7.19620117 19.94368164 7.19620117 18.03710938 7.20507812 C10.77413656 7.06845169 10.77413656 7.06845169 4.69458008 10.41088867 C3.12347312 12.81134816 2.20937278 14.51336417 1.6875 17.3125 C1.460625 18.529375 1.23375 19.74625 1 21 C0.67 21 0.34 21 0 21 C0 14.07 0 7.14 0 0 Z " fill="#0C62AF" transform="translate(712,415)"/>
<path d="M0 0 C0.90063171 0.00015106 1.80126343 0.00030212 2.72918701 0.00045776 C4.1746994 0.01594162 4.1746994 0.01594162 5.64941406 0.03173828 C7.13915741 0.03598312 7.13915741 0.03598312 8.65899658 0.04031372 C11.8278005 0.05149935 14.99632071 0.07660116 18.16503906 0.10205078 C20.31477456 0.11208266 22.46451449 0.12120815 24.61425781 0.12939453 C29.88128152 0.15143337 35.14814002 0.18489494 40.41503906 0.22705078 C40.41503906 0.55705078 40.41503906 0.88705078 40.41503906 1.22705078 C39.46628906 1.51580078 38.51753906 1.80455078 37.54003906 2.10205078 C34.36292328 2.99530187 34.36292328 2.99530187 32.41503906 5.22705078 C32.2063472 7.70456108 32.12137246 10.07129274 32.12451172 12.55078125 C32.11779449 13.30542664 32.11107727 14.06007202 32.10415649 14.83758545 C32.08511155 17.33986949 32.08124895 19.84188621 32.07910156 22.34423828 C32.07267768 24.08057772 32.06594964 25.81691605 32.05892944 27.55325317 C32.04694011 31.19666046 32.04325027 34.83997281 32.04443359 38.48339844 C32.04463677 43.15329598 32.01734331 47.82258488 31.98288918 52.49233818 C31.96065541 56.07999468 31.95659498 59.66750397 31.95765305 63.25522232 C31.95529143 64.97682924 31.94643644 66.69843987 31.93098831 68.4199791 C31.91140064 70.82859673 31.91713715 73.23589252 31.92919922 75.64453125 C31.9123407 76.71228287 31.9123407 76.71228287 31.8951416 77.80160522 C31.9378681 81.1575588 32.19965357 82.9409649 34.24227905 85.65408325 C36.93953661 87.60676028 39.13251362 87.92863938 42.41503906 88.22705078 C42.41503906 88.55705078 42.41503906 88.88705078 42.41503906 89.22705078 C28.22503906 89.22705078 14.03503906 89.22705078 -0.58496094 89.22705078 C-0.58496094 88.89705078 -0.58496094 88.56705078 -0.58496094 88.22705078 C1.40071615 87.83642578 3.38639323 87.44580078 5.37207031 87.05517578 C8.1582235 85.9257982 8.90729517 84.8389807 10.41503906 82.22705078 C10.71806783 79.61101411 10.85266299 77.22883822 10.84741211 74.61279297 C10.85760376 73.85143036 10.86779541 73.09006775 10.8782959 72.30563354 C10.90843324 69.79498951 10.91769277 67.28472696 10.92675781 64.77392578 C10.94360399 63.03085054 10.96175415 61.28778745 10.9811554 59.54473877 C11.02866833 54.96138303 11.05846928 50.37807656 11.08459473 45.79455566 C11.11439374 41.11570504 11.16092633 36.43702422 11.20605469 31.75830078 C11.29210249 22.58130624 11.3594412 13.40427677 11.41503906 4.22705078 C8.8501245 4.28733079 6.29082149 4.37443025 3.72753906 4.47705078 C3.00630859 4.49123047 2.28507813 4.50541016 1.54199219 4.52001953 C-3.34428374 4.74313715 -6.05181186 5.55126573 -9.58496094 9.22705078 C-10.07510383 12.21297874 -9.31447632 14.21172053 -8.58496094 17.22705078 C-6.22543 19.58658172 -4.80600476 19.71846491 -1.58496094 20.22705078 C-1.58496094 20.88705078 -1.58496094 21.54705078 -1.58496094 22.22705078 C-5.41969378 22.58377012 -7.13838969 22.52476494 -10.39746094 20.35205078 C-13.35901497 17.47511257 -13.53935014 16.68315881 -13.95996094 12.47705078 C-13.92421765 9.20058237 -13.39054791 7.41207628 -11.33496094 4.85205078 C-7.6183818 1.30440706 -5.1336722 -0.02884086 0 0 Z " fill="#0B61AF" transform="translate(936.5849609375,416.77294921875)"/>
<path d="M0 0 C-0.29589522 6.58485786 -1.67656643 11.30616521 -5.0625 16.9375 C-5.46807129 17.63206299 -5.87364258 18.32662598 -6.29150391 19.04223633 C-9.72057146 24.79191164 -13.61847011 29.94009117 -18 35 C-18.82113281 36.00289063 -19.64226562 37.00578125 -20.48828125 38.0390625 C-27.18273403 46.193208 -34.43586021 53.65232208 -42 61 C-42.66 60.67 -43.32 60.34 -44 60 C-45.36543207 55.83524319 -46.21957928 51.52251593 -47.1875 47.25 C-47.47302734 46.05632812 -47.75855469 44.86265625 -48.05273438 43.6328125 C-48.31763672 42.48039062 -48.58253906 41.32796875 -48.85546875 40.140625 C-49.09934326 39.08391602 -49.34321777 38.02720703 -49.59448242 36.93847656 C-50.01424649 33.89676659 -49.9974489 31.89968578 -49 29 C-46.540949 27.48464385 -44.31072442 26.33198984 -41.6875 25.1875 C-29.96921554 19.6923604 -19.99458847 12.38503215 -9.93359375 4.3203125 C-4.47138047 0 -4.47138047 0 0 0 Z " fill="#D82A2B" transform="translate(500,395)"/>
<path d="M0 0 C2 1 2 1 2.94555664 3.20556641 C3.26387451 4.16124512 3.58219238 5.11692383 3.91015625 6.1015625 C4.26013672 7.14957031 4.61011719 8.19757813 4.97070312 9.27734375 C5.33099609 10.38207031 5.69128906 11.48679687 6.0625 12.625 C6.42666016 13.70652344 6.79082031 14.78804688 7.16601562 15.90234375 C11.01733174 27.56307534 11.01733174 27.56307534 11 32 C9.296875 34.3359375 9.296875 34.3359375 6.75 36.375 C5.82703125 37.13683594 4.9040625 37.89867187 3.953125 38.68359375 C2.97859375 39.44800781 2.0040625 40.21242188 1 41 C-8.46855033 48.60961177 -17.44542013 56.4308655 -25 66 C-26.17678098 62.46965705 -25.78789459 61.78133811 -24.453125 58.4296875 C-24.1025 57.5325 -23.751875 56.6353125 -23.390625 55.7109375 C-23.01421875 54.77507812 -22.6378125 53.83921875 -22.25 52.875 C-21.52420921 51.03978614 -20.80023302 49.20385355 -20.078125 47.3671875 C-19.72169922 46.46194336 -19.36527344 45.55669922 -18.99804688 44.62402344 C-18.09385378 42.24675647 -17.26966173 39.86395305 -16.484375 37.4453125 C-13.70015068 28.9156681 -10.06347196 20.7324654 -6.375 12.5625 C-5.98054688 11.67884766 -5.58609375 10.79519531 -5.1796875 9.88476562 C-4.798125 9.03720703 -4.4165625 8.18964844 -4.0234375 7.31640625 C-3.68231934 6.55787354 -3.34120117 5.79934082 -2.98974609 5.01782227 C-2 3 -2 3 0 0 Z " fill="#F7F8F9" transform="translate(425,428)"/>
<path d="M0 0 C3.52541163 0.19343822 5.3941736 0.36255426 7.87109375 2.96875 C8.64646484 4.22171875 8.64646484 4.22171875 9.4375 5.5 C10.02789062 6.40234375 10.61828125 7.3046875 11.2265625 8.234375 C11.81179688 9.14703125 12.39703125 10.0596875 13 11 C18.86209829 19.7236913 25.72148646 25.21700897 36 28 C38.95441002 28.3551426 41.90280829 28.50409729 44.875 28.625 C45.65875 28.66367187 46.4425 28.70234375 47.25 28.7421875 C49.16631367 28.83566622 51.08312319 28.91888495 53 29 C52.85892253 30.45880109 52.71197585 31.91703551 52.5625 33.375 C52.48128906 34.18710937 52.40007812 34.99921875 52.31640625 35.8359375 C52 38 52 38 51 40 C35.55017834 40.73961912 23.30706559 37.10128793 11.3984375 27.28125 C7.55804513 23.62849895 4.74319688 19.51103487 2 15 C1.360625 13.96875 0.72125 12.9375 0.0625 11.875 C-1.36418535 8.01455729 -1.27812893 5.10240172 -1 1 C-0.67 0.67 -0.34 0.34 0 0 Z " fill="#DB2D2E" transform="translate(350,407)"/>
<path d="M0 0 C0.66 0 1.32 0 2 0 C3.67791985 3.85707136 5.35005653 7.71658438 7.01708984 11.57836914 C7.58390097 12.88926102 8.15223289 14.1994965 8.72216797 15.5090332 C9.54544263 17.40141148 10.36305215 19.29615498 11.1796875 21.19140625 C11.67194824 22.32779541 12.16420898 23.46418457 12.67138672 24.63500977 C14.00403928 28.01023031 15.00309624 31.51083686 16 35 C5.77 35 -4.46 35 -15 35 C-13.15984008 29.47952024 -11.50119977 24.61009413 -9.08203125 19.43359375 C-8.55029297 18.28955078 -8.01855469 17.14550781 -7.47070312 15.96679688 C-6.92349609 14.80212891 -6.37628906 13.63746094 -5.8125 12.4375 C-5.24760008 11.22611971 -4.68314371 10.01453248 -4.11914062 8.80273438 C-2.75042601 5.86643209 -1.377291 2.93228668 0 0 Z " fill="#F2F6FA" transform="translate(659,438)"/>
<path d="M0 0 C-0.3125 1.9375 -0.3125 1.9375 -1 4 C-4.79346317 5.26448772 -5.42699869 4.52997625 -8.9375 2.8125 C-16.93452374 -0.70149207 -25.2989839 -2.12329812 -33.86694336 -3.62475586 C-35.54963309 -3.92077213 -37.22716717 -4.24609409 -38.90234375 -4.58203125 C-44.6150702 -5.3528531 -50.39282639 -5.36196828 -56.15039062 -5.51757812 C-62.92380798 -5.75484919 -69.36734042 -6.60840214 -76 -8 C-76 -8.33 -76 -8.66 -76 -9 C-50.46131341 -13.51979633 -24.15582286 -8.409805 0 0 Z " fill="#1364AD" transform="translate(487,341)"/>
<path d="M0 0 C0.90063171 0.00015106 1.80126343 0.00030212 2.72918701 0.00045776 C4.1746994 0.01594162 4.1746994 0.01594162 5.64941406 0.03173828 C7.13915741 0.03598312 7.13915741 0.03598312 8.65899658 0.04031372 C11.8278005 0.05149935 14.99632071 0.07660116 18.16503906 0.10205078 C20.31477456 0.11208266 22.46451449 0.12120815 24.61425781 0.12939453 C29.88128152 0.15143337 35.14814002 0.18489494 40.41503906 0.22705078 C40.41503906 0.55705078 40.41503906 0.88705078 40.41503906 1.22705078 C39.46628906 1.53642578 38.51753906 1.84580078 37.54003906 2.16455078 C34.55423498 3.1009982 34.55423498 3.1009982 32.41503906 4.22705078 C32.41503906 3.56705078 32.41503906 2.90705078 32.41503906 2.22705078 C29.06089108 2.19775101 25.70677653 2.18015189 22.35253906 2.16455078 C20.93811523 2.15198242 20.93811523 2.15198242 19.49511719 2.13916016 C14.36032462 2.12126889 9.46338359 2.24752125 4.41503906 3.22705078 C4.08503906 3.55705078 3.75503906 3.88705078 3.41503906 4.22705078 C0.90512335 4.72183703 -1.61378779 5.1267169 -4.13964844 5.53173828 C-6.86006116 6.30527417 -7.97741002 6.90981184 -9.58496094 9.22705078 C-9.80698941 11.22586638 -9.80698941 11.22586638 -9.39746094 13.28955078 C-9.30078125 13.98177734 -9.20410156 14.67400391 -9.10449219 15.38720703 C-8.68216264 17.45540866 -8.68216264 17.45540866 -6.58496094 19.22705078 C-4.01434783 19.87472871 -4.01434783 19.87472871 -1.58496094 20.22705078 C-1.58496094 20.88705078 -1.58496094 21.54705078 -1.58496094 22.22705078 C-5.41969378 22.58377012 -7.13838969 22.52476494 -10.39746094 20.35205078 C-13.35901497 17.47511257 -13.53935014 16.68315881 -13.95996094 12.47705078 C-13.92421765 9.20058237 -13.39054791 7.41207628 -11.33496094 4.85205078 C-7.6183818 1.30440706 -5.1336722 -0.02884086 0 0 Z " fill="#0555A8" transform="translate(936.5849609375,416.77294921875)"/>
<path d="M0 0 C-1.98 0.99 -1.98 0.99 -4 2 C-1.525 2.495 -1.525 2.495 1 3 C1 3.33 1 3.66 1 4 C-12.35220357 6.19918647 -25.49652223 6.21987126 -39 6 C-39 5.67 -39 5.34 -39 5 C-32.4 5 -25.8 5 -19 5 C-18.67 3.68 -18.34 2.36 -18 1 C-15.75152519 0.63627613 -13.50113812 0.28435904 -11.25 -0.0625 C-9.99703125 -0.25972656 -8.7440625 -0.45695313 -7.453125 -0.66015625 C-4.49983411 -0.95080818 -2.7397586 -0.98935727 0 0 Z " fill="#387CBB" transform="translate(465,626)"/>
<path d="M0 0 C13.86 0 27.72 0 42 0 C42 0.66 42 1.32 42 2 C40.35492782 2.19406478 38.70890406 2.38007935 37.0625 2.5625 C35.68771484 2.71912109 35.68771484 2.71912109 34.28515625 2.87890625 C33.53105469 2.91886719 32.77695312 2.95882813 32 3 C31.67 2.67 31.34 2.34 31 2 C29.5112814 1.91330568 28.018555 1.89296506 26.52734375 1.90234375 C25.17866211 1.90717773 25.17866211 1.90717773 23.80273438 1.91210938 C22.38444336 1.92467773 22.38444336 1.92467773 20.9375 1.9375 C19.98810547 1.94201172 19.03871094 1.94652344 18.06054688 1.95117188 C15.70696935 1.9629989 13.35351523 1.97947975 11 2 C10.34 3.32 9.68 4.64 9 6 C8.34 5.01 7.68 4.02 7 3 C3.43230448 2.26393501 3.43230448 2.26393501 0 2 C0 1.34 0 0.68 0 0 Z " fill="#236EB7" transform="translate(814,417)"/>
<path d="M0 0 C1.25619141 0.00451172 2.51238281 0.00902344 3.80664062 0.01367188 C6.89197663 0.02540319 9.97721316 0.041819 13.0625 0.0625 C13.0625 0.3925 13.0625 0.7225 13.0625 1.0625 C7.1225 1.5575 7.1225 1.5575 1.0625 2.0625 C1.7225 2.7225 2.3825 3.3825 3.0625 4.0625 C-5.20497851 4.29908921 -12.85796224 3.87594335 -20.9375 2.0625 C-20.9375 1.7325 -20.9375 1.4025 -20.9375 1.0625 C-13.98535719 -0.24941997 -7.05305097 -0.04808058 0 0 Z " fill="#327CB7" transform="translate(431.9375,330.9375)"/>
<path d="M0 0 C3.93265896 -0.04947698 7.86519714 -0.08575578 11.7980957 -0.10986328 C13.79319618 -0.12485495 15.78820946 -0.15026731 17.78320312 -0.17578125 C19.66362305 -0.18544922 19.66362305 -0.18544922 21.58203125 -0.1953125 C22.73936768 -0.20578613 23.8967041 -0.21625977 25.08911133 -0.22705078 C28 0 28 0 31 2 C27.43354453 3.10683101 24.0945207 3.13339621 20.375 3.125 C18.65410156 3.12886719 18.65410156 3.12886719 16.8984375 3.1328125 C14 3 14 3 12 2 C9.9625237 1.77141886 7.91959697 1.58975722 5.875 1.4375 C4.23144531 1.31181641 4.23144531 1.31181641 2.5546875 1.18359375 C1.71164062 1.12300781 0.86859375 1.06242187 0 1 C0 0.67 0 0.34 0 0 Z " fill="#055CA9" transform="translate(421,332)"/>
<path d="M0 0 C1.35117416 0.0001133 1.35117416 0.0001133 2.72964478 0.00022888 C3.70364227 0.00539017 4.67763977 0.01055145 5.68115234 0.01586914 C6.67714447 0.01728409 7.6731366 0.01869904 8.6993103 0.02015686 C11.88860037 0.02576603 15.0778209 0.03832009 18.26708984 0.05102539 C20.425943 0.05603921 22.58479725 0.06060232 24.74365234 0.06469727 C30.04315534 0.07573844 35.34261763 0.09248552 40.64208984 0.11352539 C40.64208984 0.44352539 40.64208984 0.77352539 40.64208984 1.11352539 C39.69333984 1.42290039 38.74458984 1.73227539 37.76708984 2.05102539 C34.78128576 2.98747281 34.78128576 2.98747281 32.64208984 4.11352539 C32.64208984 3.45352539 32.64208984 2.79352539 32.64208984 2.11352539 C27.6941769 2.08884279 22.74629964 2.07067373 17.79833984 2.05859375 C16.11441422 2.05355886 14.43049299 2.04673058 12.74658203 2.03808594 C10.32892781 2.02598343 7.91133128 2.02028871 5.49365234 2.01586914 C4.73839264 2.01070786 3.98313293 2.00554657 3.20498657 2.00022888 C-0.70439124 1.92032351 -0.70439124 1.92032351 -4.35791016 3.11352539 C-5.01791016 2.45352539 -5.67791016 1.79352539 -6.35791016 1.11352539 C-4.00590956 -0.06247491 -2.62056615 -0.00732002 0 0 Z " fill="#1C6AB5" transform="translate(936.35791015625,416.886474609375)"/>
<path d="M0 0 C1.55654297 -0.00386719 1.55654297 -0.00386719 3.14453125 -0.0078125 C5.94092942 0.11423825 8.46689879 0.49136645 11.1875 1.125 C11.1875 1.455 11.1875 1.785 11.1875 2.125 C4.44596717 3.38341946 -1.94734138 4.38904456 -8.8125 4.125 C-8.4825 3.135 -8.1525 2.145 -7.8125 1.125 C-5.12423174 -0.21913413 -3.00014598 -0.00739863 0 0 Z " fill="#095AA5" transform="translate(410.8125,332.875)"/>
<path d="M0 0 C2.52886704 2.04717808 3.15005502 3.4072922 4.3125 6.5625 C5.67501308 10.26075776 5.67501308 10.26075776 9.1875 11.4375 C10.5796875 11.7159375 10.5796875 11.7159375 12 12 C12 12.66 12 13.32 12 14 C8.16526716 14.35671933 6.44657125 14.29771416 3.1875 12.125 C0.05428227 9.08130277 0.05428227 9.08130277 -0.09765625 6.0546875 C-0.06510417 4.03645833 -0.03255208 2.01822917 0 0 Z " fill="#2A71BC" transform="translate(923,425)"/>
<path d="M0 0 C-0.33 0.99 -0.66 1.98 -1 3 C-7.27 3 -13.54 3 -20 3 C-20 2.34 -20 1.68 -20 1 C-17.60429729 0.8312461 -15.20846637 0.66493164 -12.8125 0.5 C-12.13896484 0.45230469 -11.46542969 0.40460937 -10.77148438 0.35546875 C-7.17363248 0.10976179 -3.60627694 -0.05601984 0 0 Z " fill="#0255A8" transform="translate(447,628)"/>
<path d="M0 0 C-0.33 0.66 -0.66 1.32 -1 2 C1.31 2 3.62 2 6 2 C1.96076287 4.69282475 -0.95536152 5.13300939 -5.75 5.0625 C-6.54921875 5.05347656 -7.3484375 5.04445313 -8.171875 5.03515625 C-8.77515625 5.02355469 -9.3784375 5.01195312 -10 5 C-10.33 4.34 -10.66 3.68 -11 3 C-7.14243493 0.84694043 -4.44870215 -0.39253254 0 0 Z " fill="#075AA9" transform="translate(471,624)"/>
<path d="M0 0 C0.98484375 0.10183594 1.9696875 0.20367187 2.984375 0.30859375 C3.73203125 0.39238281 4.4796875 0.47617187 5.25 0.5625 C0.44842172 3.76355218 -4.66596979 3.81843353 -10.3125 3.125 C-11.116875 2.939375 -11.92125 2.75375 -12.75 2.5625 C-8.23220677 -0.44936215 -5.35322997 -0.57356035 0 0 Z " fill="#1D71B6" transform="translate(457.75,333.4375)"/>
<path d="M0 0 C3.3 0.66 6.6 1.32 10 2 C10 2.33 10 2.66 10 3 C2.08 3 -5.84 3 -14 3 C-14 2.67 -14 2.34 -14 2 C-9.38 2 -4.76 2 0 2 C0 1.34 0 0.68 0 0 Z " fill="#0959A4" transform="translate(633,503)"/>
<path d="M0 0 C5.28 0 10.56 0 16 0 C16.33 0.66 16.66 1.32 17 2 C15.10590022 2.22354607 13.2095652 2.42819951 11.3125 2.625 C9.72888672 2.79902344 9.72888672 2.79902344 8.11328125 2.9765625 C4.86283654 3.0010326 2.89769204 2.40852563 0 1 C0 0.67 0 0.34 0 0 Z " fill="#1D70BC" transform="translate(1108,389)"/>
<path d="M0 0 C0.66 0.66 1.32 1.32 2 2 C-1.52994613 3.17664871 -4.29455413 3.19850603 -8 3 C-8.99 2.34 -9.98 1.68 -11 1 C-7.31620978 -0.17881287 -3.84458427 -0.21358801 0 0 Z " fill="#095AA8" transform="translate(414,626)"/>
<path d="M0 0 C0 0.33 0 0.66 0 1 C-0.74765625 1.13277344 -1.4953125 1.26554687 -2.265625 1.40234375 C-3.74289062 1.66724609 -3.74289062 1.66724609 -5.25 1.9375 C-6.22453125 2.11152344 -7.1990625 2.28554688 -8.203125 2.46484375 C-10.92948023 2.93296126 -10.92948023 2.93296126 -13.234375 3.69140625 C-13.81703125 3.79324219 -14.3996875 3.89507812 -15 4 C-15.66 3.34 -16.32 2.68 -17 2 C-11.21642935 -0.01167675 -6.09781001 -0.22084624 0 0 Z " fill="#478CC5" transform="translate(648,404)"/>
<path d="M0 0 C2.67927341 4.01891012 2.15601248 6.24161923 2 11 C1.34 11 0.68 11 0 11 C-1.125 3.375 -1.125 3.375 0 0 Z " fill="#135CA6" transform="translate(1250,464)"/>
<path d="M0 0 C2.97 0.495 2.97 0.495 6 1 C5.34 2.32 4.68 3.64 4 5 C1.69 4.67 -0.62 4.34 -3 4 C-2.01 3.67 -1.02 3.34 0 3 C0 2.01 0 1.02 0 0 Z " fill="#2870B3" transform="translate(402,624)"/>
<path d="M0 0 C1.10844919 3.32534757 0.84454356 5.62182575 0 9 C-1.32 8.34 -2.64 7.68 -4 7 C-2.68 4.69 -1.36 2.38 0 0 Z " fill="#256EB8" transform="translate(1269,483)"/>
<path d="M0 0 C0.66 0 1.32 0 2 0 C1.67 2.31 1.34 4.62 1 7 C-0.65 7.33 -2.3 7.66 -4 8 C-2.68 5.36 -1.36 2.72 0 0 Z " fill="#2E74B8" transform="translate(1178,484)"/>
<path d="M0 0 C0 3 0 3 -2.5 5.6875 C-3.325 6.450625 -4.15 7.21375 -5 8 C-5.99 7.67 -6.98 7.34 -8 7 C-5.36 4.69 -2.72 2.38 0 0 Z " fill="#1469B5" transform="translate(326,368)"/>
<path d="M0 0 C0 0.66 0 1.32 0 2 C1.32 2.33 2.64 2.66 4 3 C0.37 3 -3.26 3 -7 3 C-3 0 -3 0 0 0 Z " fill="#4688C4" transform="translate(631,407)"/>
<path d="M0 0 C0.66 0.99 1.32 1.98 2 3 C1.01 4.98 0.02 6.96 -1 9 C-1.66 9 -2.32 9 -3 9 C-2.01 6.03 -1.02 3.06 0 0 Z " fill="#BB3032" transform="translate(395,502)"/>
<path d="M0 0 C1.32 0.66 2.64 1.32 4 2 C2.35 3.32 0.7 4.64 -1 6 C-1.042721 4.33388095 -1.04063832 2.66617115 -1 1 C-0.67 0.67 -0.34 0.34 0 0 Z " fill="#1562AA" transform="translate(928,419)"/>
<path d="M0 0 C1.23556641 0.01740234 1.23556641 0.01740234 2.49609375 0.03515625 C3.32238281 0.04417969 4.14867187 0.05320312 5 0.0625 C5.63808594 0.07410156 6.27617188 0.08570313 6.93359375 0.09765625 C1.80711446 2.71452016 1.80711446 2.71452016 -1.06640625 3.09765625 C-1.72640625 2.43765625 -2.38640625 1.77765625 -3.06640625 1.09765625 C-2.06640625 0.09765625 -2.06640625 0.09765625 0 0 Z " fill="#0A58A7" transform="translate(1018.06640625,416.90234375)"/>
</svg>
