<?xml version="1.0" encoding="UTF-8"?>
<svg version="1.1" xmlns="http://www.w3.org/2000/svg" width="1024" height="1024">
<path d="M0 0 C337.92 0 675.84 0 1024 0 C1024 337.92 1024 675.84 1024 1024 C686.08 1024 348.16 1024 0 1024 C0 686.08 0 348.16 0 0 Z " fill="#FDFDFD" transform="translate(0,0)"/>
<path d="M0 0 C1.00969849 0.03515213 1.00969849 0.03515213 2.03979492 0.0710144 C13.67502553 0.49854746 25.01574946 1.80362549 36.5 3.6875 C37.31983368 3.81971954 38.13966736 3.95193909 38.98434448 4.08816528 C59.92409824 7.47813595 80.34424263 11.87316771 100.34887695 19.05102539 C102.30685071 19.75188588 104.2697067 20.43914163 106.23510742 21.11889648 C114.59951826 24.03693064 122.72982322 27.31353888 130.8125 30.9375 C131.42785614 31.21290619 132.04321228 31.48831238 132.67721558 31.77206421 C150.21835978 39.66044435 167.33483172 48.80077882 183 60 C184.11900665 60.77327265 185.23884959 61.54533603 186.359375 62.31640625 C194.00005189 67.6197497 201.12438981 73.32919505 208.14257812 79.4296875 C209.56064206 80.62855543 211.00115303 81.80092242 212.45117188 82.9609375 C219.43323589 88.54857367 225.83063319 94.52751617 232.125 100.875 C233.04925781 101.79152344 233.97351563 102.70804687 234.92578125 103.65234375 C240.32113681 109.06291893 245.32531187 114.63955391 250.08398438 120.61865234 C251.78477804 122.73250828 253.54149175 124.75152539 255.375 126.75 C260.71188839 132.80176028 265.34052412 139.42278714 270 146 C270.41652832 146.5863623 270.83305664 147.17272461 271.26220703 147.77685547 C303.19376151 193.1302251 322.97953315 246.94942503 329 302 C329.09498779 302.86044922 329.18997559 303.72089844 329.2878418 304.60742188 C330.18929096 313.89595402 330.20066416 323.17696497 330.1875 332.5 C330.18656342 333.35759918 330.18562683 334.21519836 330.18466187 335.0987854 C330.12559428 360.18388836 328.15518447 384.39483808 323 409 C322.81066895 409.9065332 322.62133789 410.81306641 322.42626953 411.74707031 C311.30834275 463.37947602 284.92825844 510.77594034 250 550 C249.53207031 550.52577637 249.06414063 551.05155273 248.58203125 551.59326172 C238.75337269 562.58167446 228.55331654 572.81701957 217 582 C215.31233994 583.41647599 213.62484337 584.83314679 211.9375 586.25 C166.2078243 623.49442426 111.79344882 645.564902 54.08444214 655.62774658 C52.68316231 655.87799637 51.28380169 656.13921683 49.88650513 656.41082764 C34.68667127 659.35624337 19.51645296 659.46556038 4.09350586 659.39111328 C0.54182983 659.37410411 -3.00916734 659.38413108 -6.56081963 659.40144253 C-30.82983457 659.50152421 -54.29414308 657.30390855 -78 652 C-78.92651367 651.80067871 -79.85302734 651.60135742 -80.80761719 651.39599609 C-151.56623328 636.10224529 -222.68333821 597.3397422 -267.9453125 539.609375 C-270.1334611 536.83050948 -272.4367708 534.17536412 -274.75 531.5 C-319.93895773 477.27325073 -345.19169482 405.06335629 -345.18530273 334.87182617 C-345.18748961 332.20019582 -345.20574209 329.52897992 -345.22460938 326.85742188 C-345.26418338 314.7931604 -344.47768639 302.97163778 -343 291 C-342.86456787 289.89970459 -342.72913574 288.79940918 -342.58959961 287.66577148 C-339.50269887 264.72398885 -333.57045002 241.52020243 -325 220 C-324.64711914 219.10684082 -324.29423828 218.21368164 -323.93066406 217.29345703 C-312.60228575 188.84045689 -298.43406542 162.5269437 -280 138 C-279.60538574 137.46938965 -279.21077148 136.9387793 -278.80419922 136.39208984 C-269.99676644 124.56739421 -260.61209119 113.25579709 -250.00830078 102.99389648 C-247.08351641 100.15543212 -244.53095174 97.18889307 -242 94 C-240.92992147 92.96360433 -239.82481006 91.96213817 -238.6875 91 C-236.00680213 88.71570847 -233.33976854 86.42132725 -230.70703125 84.08203125 C-192.16256492 49.98001318 -146.06082609 24.87921022 -96.31445312 11.62011719 C-94.17831149 11.04777544 -92.04954452 10.45450742 -89.921875 9.8515625 C-75.76957635 5.91378903 -61.37890225 3.54698743 -46.8125 1.8125 C-46.08820801 1.7256192 -45.36391602 1.6387384 -44.61767578 1.54922485 C-29.72550538 -0.19922476 -14.9930921 -0.57092224 0 0 Z " fill="#FDFDFD" transform="translate(520,159)"/>
<path d="M0 0 C1.00969849 0.03515213 1.00969849 0.03515213 2.03979492 0.0710144 C13.67502553 0.49854746 25.01574946 1.80362549 36.5 3.6875 C37.31983368 3.81971954 38.13966736 3.95193909 38.98434448 4.08816528 C59.92409824 7.47813595 80.34424263 11.87316771 100.34887695 19.05102539 C102.30685071 19.75188588 104.2697067 20.43914163 106.23510742 21.11889648 C114.59951826 24.03693064 122.72982322 27.31353888 130.8125 30.9375 C131.42785614 31.21290619 132.04321228 31.48831238 132.67721558 31.77206421 C150.21835978 39.66044435 167.33483172 48.80077882 183 60 C184.11900665 60.77327265 185.23884959 61.54533603 186.359375 62.31640625 C194.00005189 67.6197497 201.12438981 73.32919505 208.14257812 79.4296875 C209.56064206 80.62855543 211.00115303 81.80092242 212.45117188 82.9609375 C219.43323589 88.54857367 225.83063319 94.52751617 232.125 100.875 C233.04925781 101.79152344 233.97351563 102.70804687 234.92578125 103.65234375 C240.32113681 109.06291893 245.32531187 114.63955391 250.08398438 120.61865234 C251.78477804 122.73250828 253.54149175 124.75152539 255.375 126.75 C260.71188839 132.80176028 265.34052412 139.42278714 270 146 C270.41652832 146.5863623 270.83305664 147.17272461 271.26220703 147.77685547 C303.19376151 193.1302251 322.97953315 246.94942503 329 302 C329.09498779 302.86044922 329.18997559 303.72089844 329.2878418 304.60742188 C330.18929096 313.89595402 330.20066416 323.17696497 330.1875 332.5 C330.18656342 333.35759918 330.18562683 334.21519836 330.18466187 335.0987854 C330.12559428 360.18388836 328.15518447 384.39483808 323 409 C322.81066895 409.9065332 322.62133789 410.81306641 322.42626953 411.74707031 C311.30834275 463.37947602 284.92825844 510.77594034 250 550 C249.53207031 550.52577637 249.06414063 551.05155273 248.58203125 551.59326172 C238.75337269 562.58167446 228.55331654 572.81701957 217 582 C215.31233994 583.41647599 213.62484337 584.83314679 211.9375 586.25 C166.2078243 623.49442426 111.79344882 645.564902 54.08444214 655.62774658 C52.68316231 655.87799637 51.28380169 656.13921683 49.88650513 656.41082764 C34.68667127 659.35624337 19.51645296 659.46556038 4.09350586 659.39111328 C0.54182983 659.37410411 -3.00916734 659.38413108 -6.56081963 659.40144253 C-30.82983457 659.50152421 -54.29414308 657.30390855 -78 652 C-78.92651367 651.80067871 -79.85302734 651.60135742 -80.80761719 651.39599609 C-151.56623328 636.10224529 -222.68333821 597.3397422 -267.9453125 539.609375 C-270.1334611 536.83050948 -272.4367708 534.17536412 -274.75 531.5 C-319.93895773 477.27325073 -345.19169482 405.06335629 -345.18530273 334.87182617 C-345.18748961 332.20019582 -345.20574209 329.52897992 -345.22460938 326.85742188 C-345.26418338 314.7931604 -344.47768639 302.97163778 -343 291 C-342.86456787 289.89970459 -342.72913574 288.79940918 -342.58959961 287.66577148 C-339.50269887 264.72398885 -333.57045002 241.52020243 -325 220 C-324.64711914 219.10684082 -324.29423828 218.21368164 -323.93066406 217.29345703 C-312.60228575 188.84045689 -298.43406542 162.5269437 -280 138 C-279.60538574 137.46938965 -279.21077148 136.9387793 -278.80419922 136.39208984 C-269.99676644 124.56739421 -260.61209119 113.25579709 -250.00830078 102.99389648 C-247.08351641 100.15543212 -244.53095174 97.18889307 -242 94 C-240.92992147 92.96360433 -239.82481006 91.96213817 -238.6875 91 C-236.00680213 88.71570847 -233.33976854 86.42132725 -230.70703125 84.08203125 C-192.16256492 49.98001318 -146.06082609 24.87921022 -96.31445312 11.62011719 C-94.17831149 11.04777544 -92.04954452 10.45450742 -89.921875 9.8515625 C-75.76957635 5.91378903 -61.37890225 3.54698743 -46.8125 1.8125 C-46.08820801 1.7256192 -45.36391602 1.6387384 -44.61767578 1.54922485 C-29.72550538 -0.19922476 -14.9930921 -0.57092224 0 0 Z M-112 27 C-113.32634104 27.63252187 -114.65318131 28.26399774 -115.98046875 28.89453125 C-137.46289061 39.22801091 -156.74847601 52.53634089 -174 69 C-175.28454637 70.1124421 -176.57561792 71.21742328 -177.875 72.3125 C-187.84800624 80.99463696 -196.86666168 90.58707551 -205 101 C-205.58056152 101.70825928 -206.16112305 102.41651855 -206.75927734 103.14624023 C-211.84862785 109.3843794 -216.4399468 115.84629818 -220.875 122.5625 C-221.57334961 123.61751709 -222.27169922 124.67253418 -222.99121094 125.75952148 C-228.63657102 134.34446576 -234.03238769 143.00623382 -239 152 C-239.45793945 152.82161621 -239.91587891 153.64323242 -240.38769531 154.48974609 C-263.19993849 195.73896899 -277.75127267 241.33138349 -284 288 C-284.17805176 289.20527344 -284.35610352 290.41054688 -284.53955078 291.65234375 C-286.30464656 304.25237025 -286.31191178 316.79648394 -286.25 329.5 C-286.24723053 330.60739532 -286.24446106 331.71479065 -286.24160767 332.85574341 C-286.19523257 348.63626275 -286.03650229 364.32792147 -284 380 C-283.89284668 380.83789062 -283.78569336 381.67578125 -283.67529297 382.5390625 C-282.94169994 388.05756141 -282.04193332 393.53166318 -281 399 C-280.79552246 400.07411133 -280.79552246 400.07411133 -280.58691406 401.16992188 C-272.45048479 442.69765557 -256.2587336 485.16358436 -232 520 C-231.41919678 520.84232178 -231.41919678 520.84232178 -230.82666016 521.70166016 C-222.3802625 533.9208954 -213.38024051 545.65596927 -203.26953125 556.546875 C-201.27530546 558.70242371 -199.34716597 560.89486135 -197.4375 563.125 C-191.16252565 570.32796351 -184.26123755 576.81029924 -177 583 C-175.6696875 584.18142578 -175.6696875 584.18142578 -174.3125 585.38671875 C-155.94403752 601.54421838 -135.07976684 614.57558944 -113 625 C-111.94256592 625.50080078 -111.94256592 625.50080078 -110.86376953 626.01171875 C-96.75258628 632.63436443 -82.19444491 638.4099136 -67 642 C-65.74703125 642.31839844 -64.4940625 642.63679687 -63.203125 642.96484375 C-55.41266039 644.90238391 -47.62755803 646.49226304 -39.6875 647.6875 C-38.90084961 647.80665771 -38.11419922 647.92581543 -37.30371094 648.04858398 C-13.36543289 651.48642255 11.20736499 651.25148692 35 647 C36.50516476 646.7458356 38.01037153 646.49191978 39.515625 646.23828125 C47.13791822 644.91468092 54.59136082 643.22360248 62 641 C63.14082031 640.67515625 64.28164063 640.3503125 65.45703125 640.015625 C83.00075087 634.89643663 99.90306512 627.62204577 116 619 C116.67788574 618.6390625 117.35577148 618.278125 118.05419922 617.90625 C126.86677446 613.18105257 135.03034252 608.06518834 143 602 C144.79046847 600.72747909 146.58215926 599.45667646 148.375 598.1875 C153.83442151 594.22628181 158.94689061 589.91307133 164.0546875 585.515625 C165.86397793 583.97028941 167.69795691 582.45266601 169.5703125 580.984375 C180.94409552 571.69517601 190.99243277 559.52727197 200 548 C200.48291504 547.38962891 200.96583008 546.77925781 201.46337891 546.15039062 C231.85444212 507.67311711 253.60285195 462.42307817 266 415 C266.2779541 413.95553711 266.5559082 412.91107422 266.84228516 411.83496094 C280.16827063 360.72417851 283.00538791 305.94921577 273 254 C272.85981445 253.2486377 272.71962891 252.49727539 272.57519531 251.72314453 C266.67398034 220.45191596 255.44355337 191.2978771 241 163 C240.58282715 162.18096191 240.1656543 161.36192383 239.73583984 160.51806641 C230.97966337 143.55409454 220.08655881 127.75219383 208 113 C207.52675293 112.41444336 207.05350586 111.82888672 206.56591797 111.22558594 C194.31842581 96.15537434 180.46077468 81.77963785 165 70 C163.65551947 68.91919029 162.31327243 67.83559927 160.97265625 66.75 C151.4329676 59.08645709 141.65124484 52.3316736 131.06494141 46.19775391 C129.15230091 45.08834101 127.25264461 43.9598043 125.35546875 42.82421875 C56.96301011 2.57037167 -39.55272306 -8.86099915 -112 27 Z " fill="#0863B4" transform="translate(520,159)"/>
<path d="M0 0 C6.02143086 4.01428724 7.13667337 10.7586708 8.50836182 17.49746704 C8.95060536 20.08388794 9.34702055 22.67317767 9.7265625 25.26953125 C9.87554993 26.24409775 10.02453735 27.21866425 10.17803955 28.22276306 C10.49885736 30.3234006 10.81668157 32.42449715 11.1317749 34.52600098 C11.98303995 40.19822193 12.85816201 45.8667432 13.734375 51.53515625 C13.91616302 52.71290619 14.09795105 53.89065613 14.2852478 55.10409546 C16.68856527 70.5728753 19.35920449 85.99666067 22.02978516 101.42114258 C23.72501893 111.24675964 25.33576408 121.04752682 26.58789062 130.94042969 C27.14651284 135.08773634 27.93843435 139.15948213 28.8125 143.25 C30.51244001 151.48301072 32.09644903 159.73345106 33.625 168 C33.8310083 169.10891602 34.0370166 170.21783203 34.24926758 171.36035156 C35.18717974 176.44416246 36.09098188 181.52787084 36.90625 186.6328125 C38.16446956 194.25724742 39.7570754 201.81121618 41.34912109 209.37158203 C41.87237268 211.86249279 42.38751714 214.35499245 42.90234375 216.84765625 C44.66488591 225.29155549 46.64449975 233.56424071 49.09814453 241.83642578 C50.47750933 246.67503139 51.4907586 251.57340996 52.5 256.5 C54.0398469 263.7776237 55.71211559 270.93776915 57.8515625 278.06640625 C59.11949546 282.32303835 60.23423416 286.61869949 61.3671875 290.9128418 C78.21819916 356.31408371 78.21819916 356.31408371 112 414 C112.57105469 414.74507812 113.14210938 415.49015625 113.73046875 416.2578125 C118.71348577 422.48362474 125.39322522 427.46440841 133 430 C142.69173187 430.63094519 151.30348142 430.82467726 160 426 C160.79277344 425.59910156 161.58554687 425.19820312 162.40234375 424.78515625 C186.09457519 411.87232869 198.19227549 386.32884955 207 362 C207.52472559 360.1526784 208.02953999 358.29938115 208.5 356.4375 C209.92321723 351.21008576 213.0652777 347.63132202 217 344 C220.28592598 342.35703701 223.46244926 342.36187789 227 343 C231.81049857 345.31553306 234.40311958 347.74340965 236.70703125 352.59375 C238.34961865 357.39100829 238.45496314 361.96790104 238.375 367 C238.36629883 367.91845703 238.35759766 368.83691406 238.34863281 369.78320312 C238.17168885 378.1314774 237.01716818 385.89639797 235 394 C234.73316406 395.093125 234.46632813 396.18625 234.19140625 397.3125 C231.85440537 405.78802319 228.1247759 413.41787279 223.99511719 421.13671875 C223.1065423 422.80050766 222.24292742 424.4775716 221.3828125 426.15625 C209.26871346 448.5763736 188.71604826 464.24171135 164.73681641 472.18701172 C146.92990018 477.47666658 126.09428578 477.42974118 109 470 C107.9171875 469.54238281 106.834375 469.08476563 105.71875 468.61328125 C67.30065286 450.90797133 51.57338277 405.0866813 38.03100586 368.40698242 C30.41042558 347.39555973 24.8984499 325.93118686 19.5546875 304.25 C18.40754396 299.60660417 17.20569093 294.98660339 15.9375 290.375 C14.17260005 283.84862529 12.64023186 277.27598828 11.125 270.6875 C10.74202759 269.02231323 10.74202759 269.02231323 10.35131836 267.32348633 C9.04560367 261.62348456 7.75809731 255.91991016 6.4921875 250.2109375 C1.09059922 218.86052028 1.09059922 218.86052028 -15 193 C-18.43290367 191.50917209 -18.43290367 191.50917209 -22 192 C-27.73051161 195.81774925 -30.36921579 200.50152082 -33.4375 206.5625 C-33.94700195 207.55717285 -34.45650391 208.5518457 -34.98144531 209.57666016 C-46.76833557 233.14689681 -55.9030928 258.07823111 -65.40966797 282.62573242 C-69.31469589 292.70832741 -73.27557131 302.75825904 -77.43896484 312.73779297 C-79.12330554 316.78449649 -80.67852716 320.81533601 -82 325 C-81.35933594 324.16597656 -80.71867188 323.33195312 -80.05859375 322.47265625 C-78.25682235 320.12766005 -76.45314208 317.78414568 -74.6484375 315.44140625 C-73.14870838 313.49451019 -71.65326879 311.54482308 -70.1640625 309.58984375 C-65.47930556 303.47680725 -60.50777125 297.6151543 -55.50439453 291.76318359 C-53.95463911 289.94683603 -52.41243146 288.1242751 -50.87109375 286.30078125 C-41.73453672 275.52283278 -41.73453672 275.52283278 -36.6784668 270.67944336 C-34.98887541 268.98886893 -33.4468551 267.23038821 -31.8984375 265.41015625 C-27.62456468 260.49517436 -23.05226354 255.90551289 -18.4375 251.3125 C-17.61314453 250.48427734 -16.78878906 249.65605469 -15.93945312 248.80273438 C-4.11781926 237 -4.11781926 237 -1 237 C-0.01737335 241.04083348 0.96048735 245.0828058 1.9375 249.125 C2.21529297 250.26710938 2.49308594 251.40921875 2.77929688 252.5859375 C3.04677734 253.69453125 3.31425781 254.803125 3.58984375 255.9453125 C3.83597412 256.96125488 4.08210449 257.97719727 4.33569336 259.02392578 C5.00123958 262.00555327 5.52136289 264.98324522 6 268 C6.21785156 269.2375 6.43570313 270.475 6.66015625 271.75 C6.59718528 275.95606131 4.70207966 277.88897973 1.87109375 280.875 C0.07969189 282.6040807 -1.732437 284.31189157 -3.5625 286 C-5.35768346 287.70600588 -7.15068863 289.41430712 -8.94140625 291.125 C-9.80693115 291.94572998 -10.67245605 292.76645996 -11.56420898 293.61206055 C-14.92193657 296.90382496 -17.96027722 300.41781457 -21 304 C-22.43412078 305.56560215 -23.87112396 307.12857485 -25.3125 308.6875 C-30.06266262 313.95921764 -34.38065627 319.52383832 -38.63916016 325.19335938 C-40.06697904 327.08892086 -41.507357 328.97447785 -42.94921875 330.859375 C-65.2829535 360.17217748 -84.84264719 393.02468539 -94 429 C-94.24492187 429.90621094 -94.48984375 430.81242187 -94.7421875 431.74609375 C-97.27457541 442.30927345 -97.81472714 454.45026564 -92 464 C-89.16788149 465.41605925 -87.15483005 465.22855657 -84 465 C-74.35571952 461.57896588 -66.93289708 455.98535404 -59.77392578 448.78417969 C-57.69770569 446.69595833 -55.59684145 444.63385171 -53.49609375 442.5703125 C-46.41639531 435.57756529 -39.44956598 428.58448106 -33 421 C-32.54939209 420.47108154 -32.09878418 419.94216309 -31.63452148 419.3972168 C-30.37719852 417.91415216 -29.12607066 416.42584268 -27.875 414.9375 C-26.43519238 413.23426957 -24.99373176 411.5324514 -23.55175781 409.83105469 C-22.48255025 408.56940322 -21.41424376 407.30698775 -20.34667969 406.04394531 C-18.65357222 404.04512437 -16.95264578 402.0531985 -15.25 400.0625 C-14.73163574 399.44818115 -14.21327148 398.8338623 -13.67919922 398.20092773 C-3.48440269 386.33503872 -3.48440269 386.33503872 3.25 385.6875 C8.33947917 386.11162326 11.10401031 388.08603885 14.6484375 391.6640625 C16.5349217 394.92451785 16.44891635 397.96250901 16.375 401.625 C16.36557373 402.34139648 16.35614746 403.05779297 16.34643555 403.79589844 C16.18197088 409.60654661 15.18652932 414.59539326 13 420 C12.6596875 420.88300781 12.319375 421.76601563 11.96875 422.67578125 C-0.0953673 452.79531734 -17.94818005 488.36401548 -48 504 C-48.86753906 504.46664063 -49.73507812 504.93328125 -50.62890625 505.4140625 C-64.35168681 512.24549038 -80.87000302 514.56194361 -95.75 510.4375 C-113.13873619 504.26869 -123.97045573 493.17489928 -132 477 C-135.14832397 470.11304133 -136.13101875 463.61023809 -136.09765625 456.0703125 C-136.09282227 454.13671875 -136.09282227 454.13671875 -136.08789062 452.1640625 C-136.07953733 450.81770764 -136.07107241 449.47135348 -136.0625 448.125 C-136.0574783 446.75520996 -136.05291657 445.38541815 -136.04882812 444.015625 C-136.03707254 440.6770381 -136.02063964 437.33854185 -136 434 C-136.66644531 434.845625 -137.33289063 435.69125 -138.01953125 436.5625 C-145.94814088 446.40536269 -154.34691727 453.77620429 -166 459 C-166.75539063 459.35449219 -167.51078125 459.70898438 -168.2890625 460.07421875 C-177.33232179 463.16247877 -187.42826064 461.33192496 -195.94140625 457.6015625 C-218.50395818 445.78719942 -228.13626548 425.41576111 -235.46875 402.2734375 C-237.87294732 394.27541884 -238.95187898 386.35057465 -238 378 C-235.875 374.6875 -235.875 374.6875 -233 373 C-229.27315163 372.28634819 -227.43986395 372.79839569 -224 374.375 C-216.00600474 381.36974586 -212.3067215 392.63615927 -208.14453125 402.16601562 C-204.57491564 410.1695234 -200.75526049 418.24109 -193.875 423.9375 C-193.23304688 424.48277344 -192.59109375 425.02804687 -191.9296875 425.58984375 C-186.19011554 429.78414633 -180.93978229 429.53936132 -174 429 C-163.28080179 427.20042658 -153.9920025 417.92795514 -147.78295898 409.54418945 C-119.38720055 369.45705276 -102.48615167 321.03873861 -86.39697266 274.98779297 C-85.06947381 271.19108579 -83.72674775 267.39984744 -82.38302612 263.6088562 C-81.12526661 260.05811795 -79.87190723 256.50583564 -78.61938477 252.95324707 C-78.00997445 251.2263184 -77.39934724 249.49981855 -76.78735352 247.77380371 C-73.28470929 237.8859587 -70.0213875 227.98016719 -67.12817383 217.89672852 C-66.12080998 214.38787224 -65.04434939 210.90471922 -63.9375 207.42578125 C-60.08935599 195.30665162 -56.76053387 183.23969666 -54.07421875 170.8125 C-53.2235451 166.9046943 -52.21307647 163.08212407 -51.0625 159.25 C-45.83742826 141.5812835 -42.39335035 123.34610612 -38.56640625 105.3359375 C-36.7661887 96.87548651 -34.91319962 88.42673973 -33.05554199 79.97875977 C-31.46368041 72.73888034 -29.88701625 65.49675159 -28.36328125 58.2421875 C-23.395078 34.59959391 -23.395078 34.59959391 -20 24 C-19.60647175 22.70712225 -19.21325935 21.41414833 -18.8203125 20.12109375 C-16.64871619 13.1344035 -14.37737944 6.91537762 -10 1 C-6.76516832 -0.61741584 -3.49730644 -0.5649495 0 0 Z " fill="#066CBB" transform="translate(513,181)"/>
<path d="M0 0 C0.98262665 4.04083348 1.96048735 8.0828058 2.9375 12.125 C3.21529297 13.26710938 3.49308594 14.40921875 3.77929688 15.5859375 C4.18051758 17.24882812 4.18051758 17.24882812 4.58984375 18.9453125 C4.83597412 19.96125488 5.08210449 20.97719727 5.33569336 22.02392578 C6.00123958 25.00555327 6.52136289 27.98324522 7 31 C7.21785156 32.2375 7.43570313 33.475 7.66015625 34.75 C7.59718528 38.95606131 5.70207966 40.88897973 2.87109375 43.875 C1.07969189 45.6040807 -0.732437 47.31189157 -2.5625 49 C-4.35768346 50.70600588 -6.15068863 52.41430712 -7.94140625 54.125 C-8.80693115 54.94572998 -9.67245605 55.76645996 -10.56420898 56.61206055 C-13.92193657 59.90382496 -16.96027722 63.41781457 -20 67 C-21.43412078 68.56560215 -22.87112396 70.12857485 -24.3125 71.6875 C-29.06266262 76.95921764 -33.38065627 82.52383832 -37.63916016 88.19335938 C-39.06697904 90.08892086 -40.507357 91.97447785 -41.94921875 93.859375 C-64.2829535 123.17217748 -83.84264719 156.02468539 -93 192 C-93.24492187 192.90621094 -93.48984375 193.81242188 -93.7421875 194.74609375 C-96.27457541 205.30927345 -96.81472714 217.45026564 -91 227 C-88.16788149 228.41605925 -86.15483005 228.22855657 -83 228 C-73.35571952 224.57896588 -65.93289708 218.98535404 -58.77392578 211.78417969 C-56.69770569 209.69595833 -54.59684145 207.63385171 -52.49609375 205.5703125 C-45.41639531 198.57756529 -38.44956598 191.58448106 -32 184 C-31.54939209 183.47108154 -31.09878418 182.94216309 -30.63452148 182.3972168 C-29.37719852 180.91415216 -28.12607066 179.42584268 -26.875 177.9375 C-25.43519238 176.23426957 -23.99373176 174.5324514 -22.55175781 172.83105469 C-21.48255025 171.56940322 -20.41424376 170.30698775 -19.34667969 169.04394531 C-17.65357222 167.04512437 -15.95264578 165.0531985 -14.25 163.0625 C-13.73163574 162.44818115 -13.21327148 161.8338623 -12.67919922 161.20092773 C-2.48440269 149.33503872 -2.48440269 149.33503872 4.25 148.6875 C9.33947917 149.11162326 12.10401031 151.08603885 15.6484375 154.6640625 C17.5349217 157.92451785 17.44891635 160.96250901 17.375 164.625 C17.36557373 165.34139648 17.35614746 166.05779297 17.34643555 166.79589844 C17.18197088 172.60654661 16.18652932 177.59539326 14 183 C13.6596875 183.88300781 13.319375 184.76601563 12.96875 185.67578125 C0.9046327 215.79531734 -16.94818005 251.36401548 -47 267 C-47.86753906 267.46664063 -48.73507812 267.93328125 -49.62890625 268.4140625 C-63.35168681 275.24549038 -79.87000302 277.56194361 -94.75 273.4375 C-112.13873619 267.26869 -122.97045573 256.17489928 -131 240 C-135.08855679 231.05628203 -135.21353117 222.23838875 -135.24023438 212.57739258 C-135.24998915 210.43987819 -135.28108729 208.30330707 -135.3125 206.16601562 C-135.31902698 204.79688065 -135.32427865 203.42773888 -135.328125 202.05859375 C-135.3374707 200.82423584 -135.34681641 199.58987793 -135.35644531 198.31811523 C-134.97209344 194.7402205 -134.20075056 192.82393936 -132 190 C-131.34 190 -130.68 190 -130 190 C-129.72800781 189.28328125 -129.45601563 188.5665625 -129.17578125 187.828125 C-128.00556571 185.0133873 -126.66435155 182.41534685 -125.1875 179.75 C-124.39085937 178.30947266 -124.39085937 178.30947266 -123.578125 176.83984375 C-123.05734375 175.90269531 -122.5365625 174.96554687 -122 174 C-121.56171875 173.19691406 -121.1234375 172.39382813 -120.671875 171.56640625 C-118.71220958 167.98815642 -116.69753986 164.52195016 -114.4375 161.125 C-111.94869171 157.21733839 -110.5253544 153.16081428 -109.03125 148.79296875 C-107.70130708 145.19104001 -105.98330835 141.86739113 -104.21484375 138.46484375 C-103.00734899 136.01491066 -102.02331321 133.55552394 -101.0625 131 C-99.66581553 127.35721888 -97.97352381 124.22501794 -95.875 120.9375 C-93.35824413 116.93471994 -92.12135295 113.47568633 -91.421875 108.8125 C-91 107 -91 107 -89 105 C-88.11221308 103.03511169 -88.11221308 103.03511169 -87.375 100.875 C-87.11460937 100.15054688 -86.85421875 99.42609375 -86.5859375 98.6796875 C-86.39257812 98.12539063 -86.19921875 97.57109375 -86 97 C-85.34 97 -84.68 97 -84 97 C-83.67 94.03 -83.34 91.06 -83 88 C-82.01 87.67 -81.02 87.34 -80 87 C-78.5122198 85.22389031 -77.10652685 83.37826794 -75.75 81.5 C-74.94065172 80.3941303 -74.13075161 79.28866428 -73.3203125 78.18359375 C-72.55460937 77.13300781 -71.78890625 76.08242188 -71 75 C-65.76524251 68.03195615 -60.16572652 61.38470158 -54.50439453 54.76318359 C-52.95463911 52.94683603 -51.41243146 51.1242751 -49.87109375 49.30078125 C-40.73453672 38.52283278 -40.73453672 38.52283278 -35.6784668 33.67944336 C-33.98887541 31.98886893 -32.4468551 30.23038821 -30.8984375 28.41015625 C-26.62456468 23.49517436 -22.05226354 18.90551289 -17.4375 14.3125 C-16.61314453 13.48427734 -15.78878906 12.65605469 -14.93945312 11.80273438 C-3.11781926 0 -3.11781926 0 0 0 Z " fill="#D93F3D" transform="translate(512,418)"/>
<path d="M0 0 C3.22096998 1.96038893 4.74589319 3.05115436 5.734375 6.7421875 C5.83140389 26.19647986 -9.98332398 43.77311393 -22 58 C-22.48082031 58.56960449 -22.96164062 59.13920898 -23.45703125 59.72607422 C-29.33020218 66.65848796 -35.22175769 73.50090662 -41.8046875 79.77734375 C-43.70631931 81.70266136 -45.46495171 83.67050876 -47.23046875 85.71875 C-51.1138402 90.19250587 -55.23857294 94.38624941 -59.4375 98.5625 C-60.14970703 99.27857422 -60.86191406 99.99464844 -61.59570312 100.73242188 C-65.64261941 104.77198681 -69.78666775 108.63162186 -74.1184082 112.36352539 C-75.89190135 113.90598349 -77.62054594 115.48326724 -79.3359375 117.08984375 C-79.84253906 117.56357422 -80.34914063 118.03730469 -80.87109375 118.52539062 C-81.89980247 119.49130803 -82.92571934 120.46020508 -83.94921875 121.43164062 C-87.77988471 125 -87.77988471 125 -90 125 C-93.37729508 111.7426739 -96.42016906 98.47311988 -98.8125 85 C-99.12223755 83.25831543 -99.12223755 83.25831543 -99.43823242 81.48144531 C-100.50333104 75.33151845 -101.38805962 69.21152382 -102 63 C-101.44763672 62.71914551 -100.89527344 62.43829102 -100.32617188 62.14892578 C-88.18183083 55.94846996 -76.40966599 49.46657589 -65 42 C-64.37963867 41.59958496 -63.75927734 41.19916992 -63.12011719 40.78662109 C-49.98344364 32.30550814 -37.44776933 23.10084817 -25.60571289 12.88549805 C-8.61586838 -1.6921255 -8.61586838 -1.6921255 0 0 Z " fill="#DE4743" transform="translate(653,287)"/>
<path d="M0 0 C6.77893474 3.64431131 10.70572189 9.32129726 14.8125 15.625 C29.64432313 37.5423425 47.60325003 52.78546345 74 58 C80.32346544 58.94851982 86.61509387 59.2938936 93 59.5625 C94.44826172 59.62727539 94.44826172 59.62727539 95.92578125 59.69335938 C98.28374425 59.79841713 100.64179416 59.90056914 103 60 C102.22856314 65.36499272 100.89274981 70.52121929 99.5 75.75 C99.27441406 76.61238281 99.04882812 77.47476563 98.81640625 78.36328125 C97.12982766 84.74034468 97.12982766 84.74034468 96 87 C83.76363157 87.56572251 71.71549954 86.06294889 60.1796875 81.796875 C58.57864324 81.21154699 56.95428006 80.68902789 55.3203125 80.203125 C28.58871032 72.11982885 6.41260733 53.25372696 -6.73046875 28.77734375 C-10.48125236 20.78080508 -13.21169932 12.93239887 -12 4 C-9.30631844 -0.71394273 -5.02835753 -1.18924372 0 0 Z " fill="#DC4241" transform="translate(348,306)"/>
<path d="M0 0 C0.33 0 0.66 0 1 0 C1.16604736 0.9065332 1.33209473 1.81306641 1.50317383 2.74707031 C2.13196075 6.16952065 2.76421259 9.59129559 3.39868164 13.01269531 C3.67054063 14.48249812 3.94108924 15.95254402 4.21020508 17.42285156 C4.60137603 19.5586304 4.99651339 21.69361183 5.39453125 23.828125 C5.52465607 24.52651489 5.65478088 25.22490479 5.78884888 25.94445801 C6.79690668 31.22585989 8.07843208 36.40084168 9.5534668 41.57324219 C10.02002536 44.10883108 9.8320843 45.58642779 9 48 C8.67 46.35 8.34 44.7 8 43 C7.34 43 6.68 43 6 43 C6 44.65 6 46.3 6 48 C3.86485134 44.35631607 3.12358237 40.50936738 2.30859375 36.41796875 C2.158423 35.68556473 2.00825226 34.95316071 1.85353088 34.19856262 C1.53747808 32.65171351 1.22413573 31.10430843 0.91333008 29.55639648 C0.4410082 27.2049654 -0.03947396 24.8553215 -0.52148438 22.50585938 C-0.82860762 20.99749402 -1.13526333 19.48903338 -1.44140625 17.98046875 C-1.65392784 16.93792183 -1.65392784 16.93792183 -1.8707428 15.87431335 C-2.72786593 11.59386594 -3.41993046 7.32431462 -4 3 C-2.68 3.33 -1.36 3.66 0 4 C0 2.68 0 1.36 0 0 Z " fill="#EAEDEF" transform="translate(553,364)"/>
<path d="M0 0 C1.6277833 6.14778871 2.20190089 11.64012196 2 18 C1.01 18.33 0.02 18.66 -1 19 C-3.1583195 12.92972642 -3.20852314 7.40629424 -3 1 C-1 0 -1 0 0 0 Z " fill="#F8F4F5" transform="translate(551,350)"/>
<path d="M0 0 C0 7.00564056 -8.12405456 13.22102194 -12.85449219 17.98852539 C-15.22088828 20.34193089 -17.60442441 22.67629167 -20 25 C-20.66 24.67 -21.32 24.34 -22 24 C-21.58226318 23.55720703 -21.16452637 23.11441406 -20.73413086 22.65820312 C-18.80044849 20.60685083 -16.86896851 18.55343683 -14.9375 16.5 C-13.95233398 15.45585938 -13.95233398 15.45585938 -12.94726562 14.390625 C-8.52379992 9.68388316 -4.21969846 4.89021011 0 0 Z " fill="#1E58A0" transform="translate(717,710)"/>
<path d="M0 0 C0 0.33 0 0.66 0 1 C-1.21901001 1.03758423 -1.21901001 1.03758423 -2.46264648 1.07592773 C-6.12110752 1.19149118 -9.77928528 1.31439584 -13.4375 1.4375 C-14.71689453 1.47681641 -15.99628906 1.51613281 -17.31445312 1.55664062 C-19.13686523 1.61948242 -19.13686523 1.61948242 -20.99609375 1.68359375 C-22.12200928 1.72025146 -23.2479248 1.75690918 -24.40795898 1.79467773 C-26.92853441 1.71218045 -26.92853441 1.71218045 -28 3 C-29.41570123 3.08651611 -30.835595 3.10704904 -32.25390625 3.09765625 C-33.10791016 3.09443359 -33.96191406 3.09121094 -34.84179688 3.08789062 C-35.73962891 3.07951172 -36.63746094 3.07113281 -37.5625 3.0625 C-38.46419922 3.05798828 -39.36589844 3.05347656 -40.29492188 3.04882812 C-42.53001314 3.03700225 -44.76497437 3.0205222 -47 3 C-47 2.67 -47 2.34 -47 2 C-31.35102403 -0.34629894 -15.79473295 -0.2109426 0 0 Z " fill="#55A1D2" transform="translate(520,159)"/>
<path d="M0 0 C0 0.33 0 0.66 0 1 C-0.90492188 1.09087891 -0.90492188 1.09087891 -1.828125 1.18359375 C-3.02695312 1.30927734 -3.02695312 1.30927734 -4.25 1.4375 C-5.03890625 1.51871094 -5.8278125 1.59992187 -6.640625 1.68359375 C-8.94356208 1.93968494 -8.94356208 1.93968494 -10.90679932 2.51841736 C-14.39439749 3.320809 -17.93035429 3.00073336 -21.484375 2.87890625 C-22.29996887 2.85529526 -23.11556274 2.83168427 -23.95587158 2.80735779 C-26.5541014 2.73094567 -29.15201614 2.64682516 -31.75 2.5625 C-33.51430764 2.50925681 -35.27863053 2.45651657 -37.04296875 2.40429688 C-41.36217769 2.27536101 -45.68112028 2.1395126 -50 2 C-50 1.67 -50 1.34 -50 1 C-45.12946809 0.85495644 -40.25886528 0.71267773 -35.38818359 0.57275391 C-33.73777182 0.5249763 -32.08738021 0.47649602 -30.43701172 0.42724609 C-20.28711077 0.12490862 -10.15541144 -0.07441376 0 0 Z " fill="#0C4396" transform="translate(547,808)"/>
<path d="M0 0 C0 3.67819168 -0.76843318 4.22382655 -3.1875 6.875 C-4.15236328 7.93460938 -4.15236328 7.93460938 -5.13671875 9.015625 C-9.51158471 13.67481139 -14.10802568 17.89750856 -19 22 C-19.66 21.67 -20.32 21.34 -21 21 C-14.07 14.07 -7.14 7.14 0 0 Z " fill="#D45C5E" transform="translate(468,615)"/>
<path d="M0 0 C4.28221163 1.48291403 7.5793718 3.67479012 11.25 6.3125 C16.32327619 9.91249273 21.45923404 13.15087228 27 16 C26.01 16.33 25.02 16.66 24 17 C21.32258417 15.56747829 18.84571561 14.09363308 16.3125 12.4375 C15.59513672 11.97802979 14.87777344 11.51855957 14.13867188 11.04516602 C9.26261281 7.89576774 4.50838377 4.66306181 0 1 C0 0.67 0 0.34 0 0 Z " fill="#205196" transform="translate(311,752)"/>
<path d="M0 0 C0.82193222 2.34057154 1.16347293 3.5589199 0.28735352 5.92285156 C-0.09493408 6.5722168 -0.47722168 7.22158203 -0.87109375 7.890625 C-1.28037109 8.59960938 -1.68964844 9.30859375 -2.11132812 10.0390625 C-2.54896484 10.76867187 -2.98660156 11.49828125 -3.4375 12.25 C-3.87126953 12.99507812 -4.30503906 13.74015625 -4.75195312 14.5078125 C-5.8236443 16.34499737 -6.91039977 18.17337974 -8 20 C-8.86866892 17.15900379 -9.11430047 16.2958365 -8.00390625 13.421875 C-7.29041016 12.09929688 -7.29041016 12.09929688 -6.5625 10.75 C-6.08941406 9.85796875 -5.61632812 8.9659375 -5.12890625 8.046875 C-4.75636719 7.37140625 -4.38382812 6.6959375 -4 6 C-3.34 6 -2.68 6 -2 6 C-1.34 4.02 -0.68 2.04 0 0 Z " fill="#4C4D7F" transform="translate(419,530)"/>
<path d="M0 0 C0.66 0 1.32 0 2 0 C-0.60512904 6.8134144 -4.07193639 12.88277842 -8 19 C-8.33 18.34 -8.66 17.68 -9 17 C-8.28735352 15.21240234 -8.28735352 15.21240234 -7.12890625 13.0859375 C-6.71962891 12.32539062 -6.31035156 11.56484375 -5.88867188 10.78125 C-5.45103516 9.9871875 -5.01339844 9.193125 -4.5625 8.375 C-4.12873047 7.57320312 -3.69496094 6.77140625 -3.24804688 5.9453125 C-2.17243012 3.95955849 -1.08952787 1.9781454 0 0 Z " fill="#234E90" transform="translate(397,576)"/>
<path d="M0 0 C0 0.99 0 1.98 0 3 C-1.90881434 4.03544174 -3.82739204 5.05290085 -5.75 6.0625 C-6.81734375 6.63097656 -7.8846875 7.19945312 -8.984375 7.78515625 C-12 9 -12 9 -16 8 C-10.72 5.36 -5.44 2.72 0 0 Z " fill="#2C5EA3" transform="translate(640,775)"/>
<path d="M0 0 C0 3.73928499 -0.91959602 4.40902253 -3.375 7.125 C-4.31472656 8.18074219 -4.31472656 8.18074219 -5.2734375 9.2578125 C-7 11 -7 11 -9 12 C-8.45015228 8.12488273 -6.72444669 6.40423494 -3.9375 3.75 C-3.20402344 3.04359375 -2.47054688 2.3371875 -1.71484375 1.609375 C-1.14894531 1.07828125 -0.58304687 0.5471875 0 0 Z " fill="#D65252" transform="translate(468,615)"/>
<path d="M0 0 C0.33 0.99 0.66 1.98 1 3 C-1.31 5.31 -3.62 7.62 -6 10 C-6.66 9.67 -7.32 9.34 -8 9 C-5.36 6.03 -2.72 3.06 0 0 Z " fill="#DA5F5B" transform="translate(492,588)"/>
<path d="M0 0 C0.66 0.33 1.32 0.66 2 1 C3.51415094 8.69693396 3.51415094 8.69693396 1 13 C0.63901937 11.02206479 0.28638652 9.04260427 -0.0625 7.0625 C-0.25972656 5.96035156 -0.45695313 4.85820312 -0.66015625 3.72265625 C-0.77230469 2.82417969 -0.88445313 1.92570312 -1 1 C-0.67 0.67 -0.34 0.34 0 0 Z " fill="#1686C7" transform="translate(793,410)"/>
<path d="M0 0 C0.33 0.99 0.66 1.98 1 3 C-0.43359375 5.04296875 -0.43359375 5.04296875 -2.4375 7.1875 C-3.09621094 7.90292969 -3.75492187 8.61835937 -4.43359375 9.35546875 C-4.95050781 9.89816406 -5.46742188 10.44085937 -6 11 C-6.66 10.67 -7.32 10.34 -8 10 C-5.36 6.7 -2.72 3.4 0 0 Z " fill="#D75D59" transform="translate(501,577)"/>
<path d="M0 0 C0.99 0 1.98 0 3 0 C2.52797514 4.24822374 0.03344482 6.19989709 -3 9 C-2.01 6.03 -1.02 3.06 0 0 Z " fill="#E0E7EC" transform="translate(433,498)"/>
<path d="M0 0 C4.62 0 9.24 0 14 0 C14 0.33 14 0.66 14 1 C13.09507812 1.09087891 13.09507812 1.09087891 12.171875 1.18359375 C10.97304688 1.30927734 10.97304688 1.30927734 9.75 1.4375 C8.96109375 1.51871094 8.1721875 1.59992187 7.359375 1.68359375 C5.17635361 1.97634993 3.1226818 2.42064419 1 3 C0.67 2.01 0.34 1.02 0 0 Z " fill="#144EA2" transform="translate(533,808)"/>
<path d="M0 0 C0.33 0.99 0.66 1.98 1 3 C-0.98 4.98 -2.96 6.96 -5 9 C-5.66 8.67 -6.32 8.34 -7 8 C-4.69 5.36 -2.38 2.72 0 0 Z " fill="#CF4D51" transform="translate(460,470)"/>
<path d="M0 0 C0.66 0.33 1.32 0.66 2 1 C-1.5 5.875 -1.5 5.875 -6 7 C-4.02 4.69 -2.04 2.38 0 0 Z " fill="#D45755" transform="translate(504,423)"/>
<path d="M0 0 C0 0.99 0 1.98 0 3 C-0.639375 3.268125 -1.27875 3.53625 -1.9375 3.8125 C-4.33131686 4.88667752 -4.33131686 4.88667752 -5 8 C-5.99 7.67 -6.98 7.34 -8 7 C-5.36 4.69 -2.72 2.38 0 0 Z " fill="#2678B5" transform="translate(283,249)"/>
<path d="M0 0 C0.66 0.66 1.32 1.32 2 2 C-0.31 3.65 -2.62 5.3 -5 7 C-5.66 6.67 -6.32 6.34 -7 6 C-4.69 4.02 -2.38 2.04 0 0 Z " fill="#237AB9" transform="translate(686,598)"/>
<path d="M0 0 C0.66 0.33 1.32 0.66 2 1 C0.37660195 2.70884005 -1.29319053 4.37446717 -3 6 C-3.66 6 -4.32 6 -5 6 C-5 4.35 -5 2.7 -5 1 C-4.67 1.66 -4.34 2.32 -4 3 C-2.68 2.01 -1.36 1.02 0 0 Z " fill="#C14240" transform="translate(568,406)"/>
</svg>
