<svg xmlns="http://www.w3.org/2000/svg" width="750" height="500" viewBox="0 0 750 500"><path d="M203.125 171.387h3.906v.977h2.93v1.953h1.465l.183 1.435.306 1.495.977.489v2.93l1.465.489v2.93l1.465.489v3.418h1.465v2.93h1.464v2.93h1.465v2.93l1.465.489v3.418h1.465v3.906h1.465v2.93h1.465v3.906h1.465v2.93h1.465v2.93h1.465v5.86h1.953v-.977h1.465v-.977h1.465v-1.953h1.465v-.977h1.465v-.977h1.465v-.977h1.465v-.977h1.465l.489-1.953h.977v-.977h1.465v-1.953h1.465V208.5h1.465v-1.953h1.465v-.977h1.465v-.977h2.442v.977h1.465v6.348l-1.465.489v3.906h-1.465v2.93l-1.465.489v2.442h-1.465v1.953h-1.465l-.489 1.953h-.977v.977h-1.465v1.953h-1.465v.977h-1.465v.977h-1.465l-.489 1.953h-.977v.977h-1.465v.977h-1.465l-.489 1.953h-.977v.977l1.099-.061c1.386.063 2.118.34 3.296 1.038v.977h1.465v3.906h1.465v2.93h1.465v3.906l1.465.489v3.418h1.465v2.93h1.465v2.93h1.465v3.906h1.465l.458 1.679c.337 1.636.337 1.636 1.007 2.227q.03 1.465 0 2.93h1.465v2.93h1.465v2.93h1.465v2.93l1.465.489v2.442h-1.465v1.953h-6.836v-.977q-1.938.102-3.875.214l-1.117.058c-1.804-.057-1.804-.057-3.308.705-.941.082-.941.082-2.105.092l-1.154.021c-1.234-.122-2.022-.472-3.087-1.089v-.977h-1.465v-1.465l-1.465-.489v-3.906h-1.465v-3.906h-1.465v-3.906h-1.465v-2.93h-1.465v-2.93h-1.465v-.977h-19.045v-.977h-1.465v-2.93h1.465v-.977h4.395v-.977h11.719v-2.93h-1.465v-4.883l1.465-.489v-1.465h1.465v-.977h1.465v-.977h1.465v-.977h1.465v-.977h1.465l.489-1.465h.977v-1.465h-1.953v.977h-1.465v.977h-1.465v.977h-1.465v.977h-1.465v.977h-1.465v.977h-1.465v.977h-1.465v.977h-1.465v.977h-1.465v.977h-1.465v.977h-1.465v.977q-1.418.719-2.837 1.435l-1.597.807c-1.425.685-1.425.685-2.89 1.173v1.465h-1.465v.977h-1.465v.977h-1.465v.977h-1.465v.977h-1.465v.977h-1.465v.977h-1.465v1.953h-1.465v.977h-1.465v1.953h-1.465v.977h-1.465v1.953h-1.465v1.953h-1.465v1.953h-1.465v1.953h-1.465v2.93h-1.468v2.442l-1.465.489v.977h-2.93v.977h-18.555v-.977h-1.465v-4.883h1.465v-.977h1.465v-.977h1.465v-1.953h1.465v-.977h1.465v-1.953h1.465v-1.953h1.465v-4.395h-.977v-.977h.977v-4.395h1.465v-3.906h1.465v-3.906h1.465v-3.906h1.465v-3.906h1.465v-3.906l.977-.489c.228-1.038.228-1.038.305-2.227l.111-1.223.072-.945h1.465v-3.906h-1.953v.977h-3.906v-.977h-1.465v-.977h-1.465v-.977h-1.465v-.977h-1.465v-.977h-1.465v-.977h-1.465c-.823-.64-.823-.64-1.465-1.465v-1.465h-1.465v-1.465l-1.465-.489v-.977h-1.465l-.183-1.19-.307-1.25-.977-.489v-1.953h-1.465v-3.906l-1.465-.489V198.25c1.465-.489 1.465-.489 2.746-.152 1.16.64 1.16.64 1.496 1.648l.152.945.977.489.489 3.418.977.489v2.442h1.465v1.953h1.465v1.953h1.465v1.953h1.465v.977h1.465v1.953h1.465v.977h1.465v.977h2.93v.977l1.099-.061c1.386.063 2.118.34 3.296 1.038v.977h1.465v.977h3.418v-2.93l.977-.489q.3-1.7.489-3.418h1.465v-3.418l1.465-.489v-3.418l1.465-.489v-3.906h1.465v-2.93h1.465v-3.906h1.465v-3.906h1.465v-3.906h1.465v-3.906h1.465v-2.93h1.465v-3.906h1.465v-4.395l1.465-.489v-.977h1.465zm-.489 36.133v.977h-1.465l-.183 1.923c-.102 1.081-.102 1.081-.305 1.983l-.977.489v4.395h-1.465v3.906h-1.465l-.183 1.923c-.102 1.081-.102 1.081-.305 1.983l-.977.489q-.248 1.708-.489 3.418l-.977.977c-.118.967-.118.967-.061 2.014l.061 1.891h-1.465v3.906h-1.465v3.906h-1.465v3.906h-1.465l-.489 5.86h2.442v-.977h1.465v-.977h1.465v-.977h1.465v-.977h1.465v-.977h1.465v-.977h1.465v-.977h1.465v-.977h1.465v-.977h1.465v-.977h1.465v-.977h1.465v-.977h1.465v-.977h1.465v-.977h1.465v-.977h1.465v-.977h1.465v-.977h1.465v-2.93h-1.465v-.977h-1.465v-3.906h-1.465v-3.906h-1.465v-2.442l-.977-.489c-.305-1.495-.305-1.495-.489-2.93h-1.465v-5.857h-1.465v-2.93h-1.465zm30.761 30.274.489.977Zm-1.465.977-.489.977h.977zm-45.41 12.695.489.977Z" fill="#d51c2b"/><path d="M192.871 158.692h20.019v.977l1.217-.051c3.215-.078 5.882.104 8.923 1.157 1.497.492 2.945.678 4.509.847v.977h2.93v.977h2.93v.977h2.93v.977h2.93v.977h1.465v.977h1.465v.977h2.93v.977h1.465v.977h1.465v.977h2.93v.977h1.465v.977h1.465v.977h1.465v.977h1.465v1.953h1.465v.977h1.465v.977h1.465v.977h1.465v1.953h1.465v.977h1.465v1.953h1.465v.977h1.465v1.953h1.465v1.953h1.465v1.953h1.465v.977l1.465.489v1.465h1.465v1.953h1.465v2.93h1.465v2.93h1.465v2.93h1.465v1.953l1.465.489v3.418h1.465v4.883h1.465v4.883h1.465v5.86h1.465v27.832l-1.465.489v6.836h-1.465v4.883h-1.465v3.906h-1.465v2.93h-1.465v3.418l-1.465.489v1.953h-1.465l-.489 2.442h-.977v2.442h-1.465v1.953h-1.465v1.953h-1.465v1.465c-.64.824-.64.824-1.465 1.465h-1.465v1.953h-1.465v1.465c-.64.824-.64.824-1.465 1.465h-1.465l-.489 1.465h-.977v1.465h-1.465v.977h-1.465v.977h-1.465l-.489 1.953h-.977v.977h-1.465v.977a275 275 0 0 1-2.105.977l-1.185.549c-1.103.419-1.103.419-2.568.419v.977h-1.465v.977h-2.93v.977h-1.465v.977h-1.465v.977h-2.93V313h-1.465v.977h-2.93v.977h-2.93v.977h-4.395v.977h-4.395v.977h-7.324v.977h-17.09v-.977h-7.324v-.977h-5.86v-.977h-4.395v-.977h-2.93v-.977L175.29 313v-.977h-2.93v-.977h-1.465v-.977h-2.93v-.977H166.5v-.977h-1.465v-.977h-1.465v-.977l-1.373-.213c-1.556-.275-1.556-.275-3.021-.763v-.977h-1.465v-.977h-1.465v-.977h-1.465v-.977h-1.465v-.977l-1.465-.489v-1.465h-1.465v-.977h-1.465v-.977h-1.465v-.977h-1.465v-1.953h-1.465v-.977l-1.465-.489v-1.465h-1.465v-1.953h-1.465v-1.953h-1.465v-1.96h-1.465v-1.953h-1.465v-1.953h-1.465v-1.953h-1.465v-2.93h-1.465v-1.953h-1.465v-2.93h-1.465v-3.906h-1.465v-3.906h-1.465v-3.906h-1.465v-5.86h-1.465v-9.765h-1.465v-12.207l1.465-.489V220.7l1.465-.489v-5.859h1.465v-3.906h1.465v-3.906h1.465v-3.906h1.465v-2.93h1.465v-1.953h1.465v-1.953h1.465v-2.442l1.465-.489v-1.953h1.465v-1.953h1.465l.489-1.465h.977v-1.465h1.465v-1.953h1.465v-.977h1.465v-1.953h1.465v-.977h1.465v-1.953h1.465v-.977h1.465v-.977h1.465v-.977h1.465v-.977h1.465v-.977h1.465v-.977h1.465v-.977h1.465v-.977h1.465v-.977h1.465v-.977c1.646-.731 2.541-.977 4.395-.977v-.977h1.465v-.977h2.93v-.977h2.93v-.977c1.904-1.269 3.649-1.05 5.86-.977v-.977h4.395v-.972c3.002-.795 5.684-1.075 8.789-.977zm3.906 4.883v.977h-7.324v.977h-4.395v.977h-4.395v.977h-2.93v.977h-2.93v.977h-1.465v.977h-1.465v.977h-2.93v.977h-1.465v.977h-1.465v.977h-1.465v.977h-1.465v.977h-1.465v.977h-1.465v.977h-1.465v.977h-1.465v.977h-1.465v1.953h-1.465v.977h-1.465v1.953h-1.465v.977h-1.465v.977h-1.465v1.953h-1.465v1.953h-1.465v1.953h-1.465v1.953h-1.465v1.953h-1.465v2.93h-1.465l-.183 1.191-.307 1.246-.977.489-.244 1.221-.244 1.221-.977.489v2.93h-1.465v4.395l-1.465.489v4.883h-1.465v9.277l-1.465.489v11.231l1.465.489v8.301l.977.489c.202 1.329.202 1.329.305 2.961l.111 1.634.072 1.263h1.465v3.906h1.465v2.93h1.465v2.93h1.465v2.93h1.465v2.93h1.465v1.953h1.465v2.442l1.465.489v1.953h1.465v1.953h1.465v.977h1.465l.489 1.953h.977v.977h1.465v1.953h1.465v.977h1.465v1.953h1.465v.977h1.465v.977h1.465v.977h1.465l.489 1.953h.977v.977h1.465v.977h1.465v.977h1.465v.977l4.395.977v.977h1.465v.977h1.465v.977h2.93v.977h1.465v.977l4.395.977v.977c2.478.617 4.75 1.109 7.324.977v.977h5.86v.977h22.461v-.977h5.86v-.977l1.221.092c1.795-.096 3.034-.508 4.673-1.188.955-.373 1.897-.628 2.896-.856v-.977h2.93v-.977h1.465v-.977h2.93v-.977h1.465v-.977h1.465v-.977h1.465v-.977h1.465v-.977h1.465v-.977H250v-.977h1.465v-.977h1.465v-.977h1.465v-.977h1.465v-1.953h1.465v-.977h1.465v-.977h1.465c1.185-1.279 1.185-1.279 1.465-2.93h1.465v-1.953h1.465v-2.93h1.465v-1.953h1.465v-1.953h1.465v-1.953h1.465l.183-1.19.308-1.253.977-.489v-1.953h1.465v-2.93h1.465v-3.906h1.465v-4.883h1.465v-6.835h1.465v-22.949l-.977-.489c-.202-1.543-.202-1.543-.305-3.448l-.111-1.909-.072-1.478h-1.465v-3.906l-1.465-.489v-3.418h-1.465v-3.906h-1.465v-2.942h-1.465v-1.953l-.977-.489c-.305-1.251-.305-1.251-.489-2.442h-1.465v-1.953l-.977-.489c-.305-1.251-.305-1.251-.489-2.442h-1.465v-.977h-1.465v-1.953h-1.465v-1.953h-1.465v-1.953h-1.465v-1.953h-1.465v-.977h-1.465v-.977h-1.465v-1.952h-1.465v-.977h-1.465v-.977h-1.465v-.977h-1.465v-.977h-1.465v-.977h-1.465v-.977h-1.465v-.977h-1.465v-.977h-1.465v-.977h-1.465v-.977h-1.465v-.977h-2.93v-.977h-1.465v-.977c-2.039-.776-3.678-1.08-5.86-.977v-.977h-2.93v-.977h-2.93v-.977h-4.395v-.977l-.889-.037a1442 1442 0 0 1-3.964-.177l-1.398-.058-1.33-.062-1.232-.054c-.954-.094-.954-.094-1.442-.583a41 41 0 0 0-2.398-.048l-1.464.005-1.54.012-1.546.006q-1.897.009-3.794.024" fill="#2569c2"/><path d="m330.766 205.511 1.542.008 1.664.005 1.752.012 1.758.007q2.158.009 4.315.024v.977h4.395v.977h1.465v1.953h1.465v4.883h1.465v3.418l1.465.489v3.906h1.465v2.93h1.465v2.93l1.465.489v3.418h1.465v3.906h1.465v3.906h1.465v3.418l1.465.489v2.93h1.465v3.906h1.465v2.93h1.465v3.906h1.465v2.93h1.465v2.93h1.465v.977h4.883v-2.934h1.465v-.977h1.465v-.977h1.465v-.977h1.465v-33.203h-6.348v.977h-1.465v.977h-1.465l-.489 1.953h-.977v1.953l-1.862.061-1.047.034c-.995-.097-.995-.097-2.46-1.073a35 35 0 0 1-.092-3.967l.021-1.116q.027-1.365.071-2.729h1.465v-1.953h1.465v-.977q2.167-.019 4.334-.031l1.245-.012 1.193-.005 1.101-.008c.917.056.917.056 1.894.544a31 31 0 0 0 2.03.064l1.269.004 1.372-.003 1.404.002q1.471 0 2.942-.003 2.259-.003 4.52.004l2.852-.002 1.375.003 1.264-.005 1.118-.001c.864.03.864.03 1.337-.55 1.317-.036 2.62-.045 3.936-.031l1.123.007q1.376.01 2.753.024v.977h2.93v4.883h-1.465c.17.964.17.964.489 1.953l.977.489v3.418h-1.465v.977h-2.442v-.977h-1.465v-3.906h-1.465v-.977h-1.465v-.977l-1.617.03c-1.801-.03-1.801-.03-3.266-.519l-.489.489h-2.442v31.25h-1.465v.977h1.465v1.953h1.465v.977h2.93v.977l1.465.489-.489 1.465h-14.16v.977l-4.395.489v4.395h-1.465v.977H367.19v-.977h-2.93v-.977h-1.465v-.977h-1.465v-.977h-1.465v-.977H358.4v-1.953h-1.465v-1.955l-1.465-.489v-3.418h-1.465v-2.93h-1.465v-3.906h-1.465v-2.93h-1.465v-.977q-1.572.103-3.144.213l-1.768.12c-1.381-.004-1.381-.004-1.925.643-.976.049-1.953.064-2.93.061l-1.617.004c-1.312-.064-1.312-.064-1.8-.552-1.709-.082-1.709-.082-3.418 0l-.489.489a49 49 0 0 1-2.442 0v.977h-1.465v3.906h-1.465v3.906h-1.465v.977h1.465v1.953h1.465v.977h1.465l.977 2.442c-.489.489-.489.489-2.023.544q-1.019 0-2.038-.008l-1.082-.003q-1.717-.005-3.433-.015l-2.322-.007q-2.852-.008-5.704-.024v-2.93h1.465v-.977h1.465v-1.953h1.465v-2.93h1.465v-2.93h1.465v-2.93l1.465-.489v-3.418h1.465v-2.93h1.465v-4.883h1.465v-3.906h1.465v-3.418l1.465-.489v-2.93l1.465-.489v-3.418h1.465v-3.906h1.465v-2.93h1.465v-2.93h-1.465v-.977h-1.465v-.977h-2.93v-.977h-1.465q-.03-1.709 0-3.418c.489-.489.489-.489 1.664-.544m9.569 19.589v.977h-1.465v.977h-1.465v2.93h-1.465v3.906h-1.465v3.906h-1.465v3.906h2.93l.489.977v-.977h10.254v-.977h1.465v-1.953h-1.465v-1.953h-1.465v-2.93h-1.465V229h-1.465v-2.93h-1.465z" fill="#215ab8"/><path d="m205.444 172.76 1.457.04 1.106.052c2.503 4.816 4.766 9.705 6.908 14.692a451 451 0 0 0 4.292 9.661 934 934 0 0 1 7.255 16.313q.578 1.304 1.195 2.589l.557 1.168.498 1.011c.365 1.19.283 1.761-.197 2.904-.679.653-.679.653-1.551 1.228l-.974.656-1.047.679-1.063.707a430 430 0 0 1-2.149 1.42 153 153 0 0 0-2.8 1.899l-1.556 1.07-1.383.951c-1.151.666-1.151.666-2.616.666-.713-1.292-.977-1.901-.977-3.418h-1.953v-3.906h-1.465V220.7l-1.465-.489v-2.93h-1.465v-5.86h-1.465l-.397-1.648c-.6-2.406-1.317-4.772-2.045-7.141h-.977l-.166.814a67 67 0 0 1-2.153 7.761l-.387 1.148a252 252 0 0 1-3.029 8.356c-1.895 4.988-3.646 10.024-5.312 15.093-.8 2.422-1.656 4.79-2.661 7.133-.49 1.215-.49 1.215-.767 2.61-1.127 4.701-3.822 6.551-7.6 9.195-1.284.915-2.496 1.909-3.712 2.913l-1.288 1.057a162 162 0 0 0-4.82 4.255c-.82.701-.82.701-1.308.701v-4.395h1.465v-3.906h1.465v-3.906h1.465v-3.906h1.465v-3.906h1.465v-3.906l.977-.489c.228-1.038.228-1.038.305-2.227l.111-1.223.073-.944h1.465v-3.906h-1.953v.977h-3.906v-.977h-1.465v-.977h-1.465V229h-1.465v-.977h-1.465v-.971h-1.465v-.977h-1.465c-.823-.64-.823-.64-1.465-1.465v-1.465h-1.465v-1.465l-1.465-.489v-.977h-1.465l-.183-1.19-.307-1.25-.977-.489v-1.953h-1.465v-3.906l-1.465-.489v-12.695c1.465-.489 1.465-.489 2.746-.152 1.16.64 1.16.64 1.496 1.648l.152.945.977.489.489 3.418.977.489v2.442h1.465v1.953h1.465v1.953h1.465v1.953h1.465v.977h1.465v1.953h1.465v.977h1.465v.977h2.93v.977l1.099-.061c1.386.063 2.118.34 3.296 1.038v.977h1.465v.977h3.418v-2.93l.977-.489q.3-1.7.489-3.418h1.465v-3.418l1.465-.489v-3.418l1.465-.489v-3.906h1.465v-2.93h1.465v-3.906h1.465v-3.906h1.465v-3.906h1.465v-3.906h1.465v-2.93h1.465v-3.906h1.465l.122-1.861c.091-1.383.215-1.889 1.191-2.899 1.407-.761 2.346-.759 3.936-.701" fill="#1c56ad"/><path d="m418.579 219.178 1.32.026.999.034v.977h6.348v-.977h3.906v.977h1.465v2.93h-1.465v.977h-1.465v1.953h-1.465v10.742l1.465.489v.977l3.418.489v-.977l.902.008q2.036.014 4.072.023l1.42.012 1.378.005 1.263.008c1.434-.035 1.434-.035 3.66-.544l.489-12.207h-1.465v-1.953h-1.465v-.977h-1.465v-1.953h2.93v-.977q1.069-.019 2.136-.03l1.201-.018c1.057.048 1.057.048 2.033.536a63 63 0 0 0 3.113.061l1.69.004c1.478-.004 1.478-.004 2.594-.356 1.201-.261 1.856.037 2.979.505l1.045.426.786.337-.489 2.442h-1.465v.977h-1.465v1.953h-1.465v8.301l1.465.489.489 23.926 3.906 1.465c.519 1.282.519 1.282.489 2.442-.489.489-.489.489-2.382.544q-1.267 0-2.534-.008l-1.344-.003a1758 1758 0 0 1-4.269-.015l-2.887-.007q-3.546-.008-7.092-.024v-.977h-1.465v-1.953h1.465v-.977h1.465v-1.953h1.465v-13.672h-1.465v-.977h-15.136v1.953h-1.465v12.695h1.465v1.953h1.465v.977h1.465v2.93h-20.019v-2.93h1.465v-.977h1.465v-1.953h1.465v-32.227h-1.465v-1.953h-1.465v-2.93c1.569-.93 2.705-1.086 4.517-1.038" fill="#1d57b8"/><path d="M236.603 237.915a124 124 0 0 1 2.655.854v.977h1.465v3.906h1.465v2.93h1.465v3.906l1.465.489v3.418h1.465v2.93h1.465v2.93h1.465v3.906h1.465l.458 1.679c.337 1.636.337 1.636 1.007 2.227q.03 1.465 0 2.93h1.465v2.93h1.465v2.93h1.465v2.93l1.465.489v2.442h-1.465v1.953h-6.836v-.977q-1.938.102-3.875.214l-1.117.058c-1.804-.057-1.804-.057-3.308.705-.941.082-.941.082-2.105.092l-1.154.021c-1.234-.122-2.022-.472-3.087-1.089v-.977h-1.465v-1.465l-1.465-.489v-3.906h-1.465v-3.906h-1.465v-3.906h-1.465v-2.93h-1.466v-2.93H225.1v-.977h-19.043v-.977h-1.465v-2.93h1.465v-.977h4.395v-.977h11.719v-2.93h-1.465v-4.883l1.465-.489v-1.465h1.465v-.977h1.465v-.977h1.465v-.977h1.465v-.977h1.465l.489-1.465a51 51 0 0 1 2.554-1.471c.937-.487.937-.487 1.902-1.367.916-.579.916-.579 2.167-.457" fill="#123d9e"/><path d="M586.914 219.239c3.004-.048 3.004-.048 3.906 0l.489.489a36 36 0 0 0 2.256.065l1.383.002 1.457-.006 1.45.006 1.386-.002 1.276-.002c1.07.004 1.07.004 2.021-.551a50 50 0 0 1 2.716-.061l1.466-.004c1.188.065 1.188.065 1.677.553q1.705.27 3.418.489v-.977h6.836v.977h1.465v2.442h.977v.977h-.977v7.324h-3.906v-.977l-1.465-.489v-3.418h-1.465v-.977h-12.207v8.789l-.977.489v1.953l.977.489v.977h7.813v-.977h1.465v-.977h1.465v-.977h1.465v-.977c2.807-.061 2.807-.061 3.906.489v5.86l-1.465.489v6.836h-1.465v.977h-2.442v-.977h-1.465v-2.93h-1.465v-.977h-7.813v11.719h-1.465v.977h1.465v1.953h12.207v-.977h1.465v-.977h1.465v-1.953h1.465v-1.465c1.675-.837 3.524-.515 5.371-.489v6.836h-1.465v3.906h-37.598c-.489-2.442-.489-2.442 0-3.906h1.465v-.977h1.465v-2.442l.977-.489.489-29.297-1.465-.489v-1.465h-1.465c-.823-.579-.823-.579-1.465-1.465-.091-1.312-.091-1.312 0-2.442h2.93z" fill="#225fbd"/><path d="m549.805 219.239.489.489a36 36 0 0 0 2.256.065l1.383.002 1.457-.006 1.45.006 1.386-.002 1.276-.002c1.07.004 1.07.004 2.021-.551a37 37 0 0 1 2.258-.03l1.21.013.927.017v.977h3.418v-.977h6.836v.977h1.465v.977h1.465v3.906l-1.465.489.489 1.465.977.489c0 .977 0 .977-.489 1.77-1.563 1.074-3.017.763-4.883.671v-1.953h-1.465v-1.953h-1.465v-.977h-2.93v-.977h-6.348v.977h-2.93v8.789l-.977.489c-.321 1.479-.321 1.479-.489 2.93l1.465.489v.977h4.883v-.977h2.93v-.977h1.465v-1.953h1.465v-.977h3.906v1.953h1.465v4.395l-.977.489c-.229 1.6-.229 1.6-.305 3.449l-.111 1.909-.071 1.477h-3.906v-2.93h-1.465v-.977h-1.465v-.977h-6.348v.977h-1.465v.977h-1.465q.084 1.191.183 2.381l.102 1.339c.102 1.251.102 1.251 1.179 2.14.071 1.344.091 2.626.061 3.967l-.062 3.846h12.207v-.977h1.465v-.977h1.465v-1.953h1.465v-.977h1.465v-.977q1.709-.03 3.418 0c.489.489.489.489.544 1.396l-.008 1.17-.005 1.263-.012 1.328-.007 1.335q-.009 1.637-.024 3.274h-1.465v.977h-37.598v-2.93h1.465v-.977h1.465v-1.953h1.465v-32.227h-1.465v-1.953h-1.465v-.977h-1.465v-1.953c2.782-.968 5.356-1.219 8.301-.977" fill="#225ebd"/><path d="m498.047 219.239.489.489c.821.114 1.646.201 2.472.275l1.36.124 1.05.09v-.977a347 347 0 0 1 3.327-.061l1.871-.034c1.639.096 1.639.096 3.103 1.072.092 1.526.092 1.526 0 2.93h-1.465v.977h-1.465v3.906h1.465v1.953h1.465v2.93h1.465v3.906h1.465v3.906h1.465v2.93l1.465.489v1.465h3.418v-3.906h1.465v-2.93h1.465v-3.418l.977-.489c.321-1.479.321-1.479.489-2.93h1.465v-3.906h1.465v-3.906h-1.465v-.977h-1.465v-.977h-1.465v-1.953h17.09v2.442c-.489.489-.489.489-1.739.519l-1.19-.031v1.465c-.64.824-.64.824-1.465 1.465h-1.465v2.93h-1.465v3.418l-1.465.489v2.93h-1.465v2.93l-.977.489a54 54 0 0 0-.489 3.418h-1.465v3.906h-1.465v3.906h-1.465v2.93h-1.465v2.93h-1.465v3.418l-.977.489c-.321 1.479-.321 1.479-.489 2.93h-1.465v.977h-5.371v-.977h-1.465v-2.93h-1.465v-2.93h-1.465v-3.906h-1.465v-2.93h-1.465v-2.93h-1.465v-2.93h-1.465v-2.93h-1.465v-3.906h-1.465l-.183-.945-.307-1.008-.977-.489v-2.442h-1.465v-3.906h-1.465v-2.442l-1.465-.489v-.977h-1.465v-.977h-1.465v-.977h-1.465v-2.93c2.632-.896 5.028-1.233 7.813-.977" fill="#2964bf"/><path d="M368.652 219.239q2.167-.019 4.334-.03l1.245-.012 1.193-.005 1.101-.008c.917.056.917.056 1.894.544a31 31 0 0 0 2.03.064l1.269.004 1.372-.003 1.404.002q1.471 0 2.942-.003 2.259-.003 4.52.004l2.852-.002 1.375.003 1.264-.005 1.118-.001c.864.03.864.03 1.337-.55 1.317-.036 2.62-.045 3.937-.03l1.122.006q1.377.01 2.754.024v.977h2.93v4.883h-1.466c.17.964.17.964.489 1.953l.977.489v3.418h-1.465v.977h-2.442v-.977h-1.465v-3.906h-1.465v-.977h-1.465v-.977l-1.617.031c-1.801-.031-1.801-.031-3.266-.519l-.489.489h-2.442v31.25h-1.465v.977h1.465v1.953h1.465v.977h1.953v1.465h-20.996l.489-1.465h1.465v-.977h1.465v-.977h1.465v-33.203h-6.348v.977h-1.465v.977h-1.465l-.489 1.953h-.977v1.953l-1.861.061-1.048.034c-.997-.096-.997-.096-2.462-1.072a35 35 0 0 1-.091-3.967l.019-1.116q.028-1.365.072-2.729h1.465v-1.953h1.465z" fill="#225ab9"/><path d="M473.633 219.727c1.298.048 2.579.069 3.876.061l1.059.006c1.693-.004 3.2-.105 4.83-.555l.489.489c.74.113 1.483.201 2.228.275l1.222.124.944.089v2.93h-1.465v.977h-1.465v.977h-1.465v33.203h1.465v1.953h1.465v2.93q-4.042.018-8.083.026l-2.751.01q-1.974.009-3.948.011l-1.247.008c-2.903 0-2.903 0-3.991-.543v-2.442h1.465v-.977h1.465v-1.953h1.465v-32.227h-1.465v-1.953h-1.465v-2.93c3.724-1.038 3.724-1.038 5.371-.489" fill="#205ab9"/><path d="M242.187 168.457h2.93v.977h1.465v.977h1.465v.977h2.93v.977h1.465v.977h1.465v.977h1.465v.977h1.465v1.953h1.465v.977h1.465v.977h1.465v.977h1.465v1.953h1.465v.977h1.465v1.953h1.465v.977h1.465v1.953h1.465v1.953h1.465v1.953h1.465v.977l1.465.489v1.465h1.465v1.953h1.465v2.93h1.465v2.93h1.465v2.93h1.465v1.953l1.465.489v3.418h1.465v4.883h1.465v4.883h1.465v5.86h1.465v27.832l-1.465.489v6.836h-1.465v4.883h-1.465v3.906h-1.465v2.93h-1.465v3.418l-1.465.489v1.953h-1.465l-.489 2.442h-.977v2.442h-1.465v1.953h-1.465v1.953h-1.465v1.465c-.64.824-.64.824-1.465 1.465h-1.465v1.953h-1.465v1.465c-.64.824-.64.824-1.465 1.465h-1.465l-.489 1.465h-.977v1.465h-1.465v.977h-1.465v.977h-1.465l-.489 1.953h-.977v.977h-1.465v.977a275 275 0 0 1-2.105.977l-1.185.549c-1.103.421-1.103.421-2.567.421v.977h-1.465v.977h-2.93v.977h-1.465v.977h-1.465v.977h-2.93v.977h-1.465v.977h-2.93v.977h-2.93v.977h-4.395v.977h-4.395v.977h-7.324v.977h-17.09v-.977h-7.324v-.977h-5.86v-.977h-4.395v-.977h-2.93v-.977l-4.395-.977v-.977h-2.93v-.977h-1.465v-.977h-2.93v-.977h-1.465v-.977h-1.465v-.977h-1.465v-.977l-1.373-.213c-1.556-.275-1.556-.275-3.021-.763v-.977h-1.465v-.977h-1.465v-.977h-1.465v-.977h-1.465v-.977l-1.465-.489v-1.465h-1.465v-.977h-1.465v-.977h-1.465v-.977h-1.465v-1.953h-1.465v-.977l-1.465-.489v-1.465h-1.465v-1.953h-1.465l.489-1.953 1.2 1.341c3.281 3.631 6.597 6.938 10.517 9.892l1.271.981c10.35 7.786 22.237 13.254 34.862 16.11l1.807.443c20.458 4.497 43.74.041 61.518-10.63 16.044-10.348 28.51-25.644 32.867-44.5l.408-1.614c2.731-11.059 3.17-22.901.569-34.031l-.269-1.174c-2.618-11.171-7.459-22.206-14.867-31.052l-1.042-1.335c-7.239-9.185-16.065-15.692-26.186-21.428l-1.093-.675z" fill="#f2f6fb"/><path d="M201.333 161.891a234 234 0 0 0 3.717-.025c8.521-.036 16.424 1.877 24.443 4.638l1.638.56c10.286 3.734 20.877 10.251 27.659 18.971h-1.465v-.977h-1.465v-.977h-1.465v-1.953h-1.465v-.977h-1.465v-.977H250v-.977h-1.465v-.977h-1.465v-.977h-1.465v-.977h-1.465v-.977h-1.465v-.977h-1.465v-.977h-1.465v-.977h-1.465v-.977h-2.93v-.977h-1.465v-.977l-1.007.061c-1.727-.073-3.208-.522-4.852-1.038v-.977h-2.93v-.977h-2.93v-.977h-4.395v-.977l-.889.008q-1.982.014-3.963.023l-1.399.012-1.33.005-1.232.008c-.953-.05-.953-.05-1.442-.539a43 43 0 0 0-2.398-.154l-1.464-.062-1.54-.058-1.546-.064q-1.897-.078-3.794-.15v.977h-7.324v.977h-4.395v.977h-4.395v.977h-2.93v.977h-2.93v.977h-1.465v.977h-1.462v.977h-2.93v.977h-1.465v.977h-1.465v.977h-1.465v.977h-1.465v.977h-1.465v.977h-1.465v.977h-1.465v.977h-1.465v.977h-1.465v1.953h-1.465v.977h-1.465v1.953h-1.465v.977h-1.465v.977h-1.465v1.953h-1.465v1.953h-1.465v1.953h-1.465v1.953h-1.465v1.953h-1.465v2.93h-1.465v2.442l-1.465.489v2.442l-1.465.489v2.93h-1.465v4.395l-.977.489c-.228 1.15-.228 1.15-.305 2.472l-.111 1.36-.075 1.044h-1.465v9.274l-.977.489v11.231l.977.489v8.301l1.465.489v5.86h1.465v3.906h1.465v2.93h1.465v2.93h1.465v2.93h1.465v2.93h1.465v1.953h1.465l.183 1.19.306 1.251.977.489v1.953h1.465v1.953h1.465v.977h1.465l.489 1.465.977.489v.977h1.465v1.953h1.465v.977h1.465v1.953h1.465v.977h1.465v.977h1.465v.977h1.465l.489 1.465.977.489v.977h1.465v.977h1.465v.977h1.465v.977l1.099-.061c1.386.063 2.118.34 3.296 1.038v.977h1.465v.977h1.465v.977h2.93v.977h1.465v.977l1.099-.061c1.386.063 2.118.34 3.296 1.038l-.489.977c-20.198-7.194-37.19-21.042-46.619-40.468a151 151 0 0 1-1.836-4.082 110 110 0 0 0-.975-2.171c-5.446-12.426-5.526-27.619-2.815-40.686l.223-1.093c2.733-12.762 9.812-23.847 18.82-33.087l.837-.929c7.493-8.103 18.897-13.996 29.344-16.985l.979-.282c6.731-1.813 13.314-2.565 20.269-2.53" fill="#f4f8fb"/><path d="m155.792 198.09 1.435.64c.367 1.008.367 1.008.489 1.953l.977.489.489 3.418.977.489v2.442h1.465v1.953h1.465v1.953h1.465v1.953h1.465v.977h1.465v1.953h1.465v.977h1.465v.977h2.93v.977l1.099-.061c1.386.063 2.118.34 3.296 1.038v.977h1.465v.977h3.418a334 334 0 0 1-2.472 8.087l-.475 1.497c-.471 1.156-.471 1.156-1.448 1.645v-2.442h-1.953v.977h-3.906v-.977h-1.465v-.977h-1.465v-.977h-1.465v-.977h-1.465v-.977h-1.465v-.977h-1.465c-.823-.64-.823-.64-1.465-1.465v-1.465h-1.465v-1.465l-1.465-.489v-.977h-1.465l-.183-1.19-.307-1.25-.977-.489v-1.953h-1.465v-3.906l-1.465-.489v-12.695c.977-.489.977-.489 2.472-.152" fill="#df1c2a"/><path d="M252.93 204.59h.977v.977h1.465v6.348l-1.465.489v3.906h-1.465v2.93l-1.465.489v2.442h-1.465v1.953h-1.465l-.489 1.953h-.977v.977h-1.465v1.953h-1.465v.977h-1.465v.977h-1.465l-.489 1.953h-.977v.977h-1.465v.977h-1.465l-.489 1.953h-.977l.489 1.465-4.395 2.93v-1.465H229v.977h-1.465v.977h-1.465v.977h-1.465v.977h-1.465v.977h-1.465v.977h-1.465v.977h-1.465v.977h-1.465v.977h-1.465v.977h-1.465v.977h-1.465v.977q-1.418.719-2.837 1.435l-1.597.807c-1.427.684-1.427.684-2.891 1.172v1.465h-1.465v.977h-1.465v.977h-1.465v.977H199.7v.977h-1.465v.977h-1.465v.977h-1.465v1.953h-1.465v.977h-1.465v1.953h-1.465v.977h-1.465v1.953h-1.465v1.953h-1.465v1.953h-1.465v1.953h-1.465v2.93h-1.465v2.442l-1.465.489v.977h-2.93v.977H159.17v-.977h-1.465v-.977l20.996-.489 2.442-4.883c8.409-13.897 22.343-22.91 35.923-31.195 8.224-5.045 16.294-10.396 23.646-16.659l1.039-.823c7.62-6.204 9.981-13.786 11.168-23.102m-19.531 33.203.489.977Zm-1.465.977-.489.977h.977z" fill="#fcf4f5"/><path d="M201.172 202.637h.977q.491 1.189.977 2.381l.549 1.339c.427 1.164.427 1.164.427 2.14h-2.93v3.906l-1.465.489v4.395h-1.465v3.906h-1.465v3.906l-1.465.489.061 1.648c-.062 1.769-.062 1.769-1.038 2.746-.224.963-.224.963-.305 2.014l-.184 1.892h-1.465v3.906h-1.465v3.906h-1.465v3.906h-1.465q-.057 1.312-.091 2.625l-.052 1.476.143 1.271 1.465.977-1.576 1.076c-4.772 3.292-9.249 6.769-13.561 10.643l-.742.667a448 448 0 0 0-3.169 2.876c-.972.852-.972.852-2.436 1.828v-4.395h-.977v-.977l1.465-.732c1.458-.832 2.538-1.746 3.693-2.96 1.751-1.826 3.625-3.391 5.616-4.944l.854-.668.841-.65.839-.653c.853-.622.853-.622 1.761-1.15 2.837-1.707 3.464-3.853 4.341-6.949l.816-2.68.39-1.31c.539-1.742 1.186-3.434 1.844-5.134q.379-1.016.754-2.033l.391-1.062 1.795-4.884q.705-1.914 1.414-3.828c2.61-7.081 5.01-14.227 7.364-21.397m-14.648 48.828.489.977Z" fill="#f3f5f9"/><path d="M203.125 171.387h3.906v.977h2.93v1.953h1.465l.183 1.435.306 1.495.977.489v2.93l1.465.489v2.93l1.465.489v3.418h1.465v2.93h1.464v2.93h1.465v2.93l1.465.489v3.418h1.465v3.906h1.465v2.93h1.465v3.906h1.465v2.93h1.465v2.93h1.465v5.86l1.465.489c-4.259 3.055-8.539 6.062-12.94 8.911l-1.087.707c-2.51 1.61-2.51 1.61-3.062 1.61v-2.93h-1.465v-.977h-1.465v-3.906c.852 1.279 1.165 1.972 1.465 3.418 3.519-1.845 6.775-3.997 10.04-6.256l1.492-1.025q1.804-1.24 3.604-2.484c-.322-2.094-1.039-3.848-1.898-5.779l-.435-.981a996 996 0 0 0-1.421-3.188l-.991-2.231a2908 2908 0 0 0-8.388-18.648 1373 1373 0 0 1-5.005-11.199q-1.184-2.67-2.37-5.337-1.282-.039-2.564-.061l-1.442-.034c-1.398.098-2.172.277-3.319 1.072l-.489 1.465.489-2.442h.977v-.977h1.465z" fill="#f8f7fa"/><path d="M538.086 220.215h2.93a49 49 0 0 1 0 2.442c-.489.489-.489.489-1.739.519l-1.191-.031v1.465c-.64.824-.64.824-1.465 1.465h-1.465v2.93h-1.465v3.418l-1.465.489v2.93h-1.465v2.93l-.977.489a54 54 0 0 0-.489 3.418h-1.465v3.906h-1.465v3.906H524.9v2.93h-1.465v2.93h-1.465v3.418l-.977.489c-.321 1.479-.321 1.479-.489 2.93h-1.465v.977h-5.371v-.977h-1.465v-2.442l.977 1.953c1.458-.026 2.54-.05 3.906-.489.863-1.205 1.295-2.016 1.791-3.367l.425-1.039a172 172 0 0 0 1.293-3.314 577 577 0 0 1 .873-2.174q.854-2.124 1.685-4.258c.839-2.15 1.724-4.281 2.618-6.41a737 737 0 0 0 1.903-4.588l1.344-3.231.668-1.631c3.852-9.211 3.852-9.211 7.418-11.004h.977z" fill="#f5f7fb"/><path d="M407.715 220.215h2.93v4.883h-1.465c.17.964.17.964.489 1.953l.977.489v3.418h-1.465v.977h-2.442v-.977h-1.465v-3.906h-1.465v-.977h-1.465v-.977l-1.617.031c-1.802-.03-1.802-.03-3.267-.519l-.489.489h-2.442v31.25h-1.465v.977h1.465v1.953h1.465v.977c-2.171.176-2.171.176-3.246-.523-1.006-1.434-.836-2.643-.827-4.38v-1.055c.001-1.149.012-2.299.023-3.447q.004-1.195.006-2.391.009-3.147.036-6.292c.015-2.14.022-4.281.029-6.421q.024-6.299.071-12.599 1.873-.033 3.746-.051l1.064-.021c3.524-.027 6.057.719 8.617 3.216.742 1.267 1.055 2.241 1.221 3.693h1.465z" fill="#edf1f7"/><path d="m236.816 237.793 2.442.977v.977h1.465v3.906h1.465v2.93h1.465v3.906l1.465.489v3.418h1.465v2.93h1.465v2.93h1.465v3.906h1.465l.458 1.679c.337 1.636.337 1.636 1.007 2.227q.03 1.465 0 2.93h1.465v2.93h1.465v2.93h1.465v2.93l1.465.489v2.442h-1.465v1.953h-6.836v-.977q-1.938.102-3.875.214l-1.117.058c-1.804-.057-1.804-.057-3.308.705-.941.082-.941.082-2.105.092l-1.154.021c-1.234-.122-2.022-.472-3.087-1.089v-.977h-1.465v-1.465l-1.465-.489v-3.418c1.208 1.481 1.696 2.532 2.442 4.395h20.996c-3.745-8.786-7.503-17.557-11.43-26.263a939 939 0 0 1-5.05-11.396l-.619-1.421c-1.393-3.213-1.393-3.213-1.944-4.866" fill="#f8f9fb"/><path d="M611.816 219.239h6.836v.977h1.465v2.442h.977v.977h-.977v7.324h-3.906v-.977l-1.465-.489v-3.418h-1.465v-.977h-12.207v8.789l-.977.489v1.953l.977.489v.977h7.813v-.977h1.465v-.977h1.465v-.977h.977c-.625 1.927-1.181 2.868-2.93 3.906-1.298.166-1.298.166-2.754.143l-1.584-.015-1.644-.037-1.667-.021a427 427 0 0 1-4.07-.071q-.036-3.207-.054-6.414-.008-1.091-.019-2.183a433 433 0 0 1-.022-3.133l-.016-1.906c.111-1.501.111-1.501 1.087-2.477 1.801-.224 3.619-.158 5.432-.152l1.511-.024c3.138-.002 6.502.026 8.918 2.334.604.72 1.163 1.478 1.717 2.238l1.465 1.465v-8.789h-6.348z" fill="#eaf0f8"/><path d="m461.426 220.215.977.489-.489 2.442h-1.465v.977h-1.465v1.953h-1.465v8.301l1.465.489.489 23.926 3.906 1.465c.519 1.282.519 1.282.489 2.442-.489.489-.489.489-2.382.544q-1.267 0-2.534-.008l-1.344-.003a1758 1758 0 0 1-4.269-.015l-2.887-.007q-3.546-.008-7.092-.024v-.977l-1.465-.489h19.531v-1.465l-1.892.061c-1.064.034-1.064.034-2.014-.061-1.183-1.183-1.094-1.798-1.109-3.411l.006-1.023-.005-1.078q-.006-1.769.002-3.537l-.003-2.452q-.003-2.571.005-5.142.008-3.301-.004-6.602-.004-2.532 0-5.064.002-1.217-.003-2.435a481 481 0 0 1 .007-3.398l-.006-1.023c.021-2.322.021-2.322 1.109-3.411 1.296-.276 2.584-.36 3.906-.489z" fill="#fafbfd"/><path d="M355.469 257.813c1.824 2.245 1.824 2.245 2.564 3.37 2.022 2.993 4.746 5.307 8.33 6.183 1.362.221 2.63.269 4.009.261l1.511-.005 1.561-.012 1.59-.007q1.936-.009 3.873-.024v-.977l-.93.086c-3.256.171-5.362-.376-7.859-2.527l-.489-.977h1.465v.977h4.883v-2.93l21.973.489v-1.465h.977v.977l1.465.489-.489 1.465h-14.16v.977l-4.395.489v4.395h-1.465v.977h-12.696v-.977h-2.93v-.977h-1.465v-.977h-1.465v-.977h-1.465v-.977h-1.465v-1.953h-1.465v-1.953l-1.465-.489z" fill="#f3f5fa"/><path d="M613.281 233.887c2.807-.061 2.807-.061 3.906.489v5.86l-1.465.489v6.836h-1.465v.977h-2.442v-.977h-1.465v-2.93h-1.465v-.977h-7.813v11.719h-1.465v.977h1.465v1.953h10.742v.489h-13.672v-17.09l5.738-.061 1.8-.026 1.427-.008 1.457-.016c1.358.117 2.12.337 3.251 1.087.977 1.465.977 1.465.977 3.418h1.465v-11.72z" fill="#f4f7fb"/><path d="M342.774 206.543h3.418v.977h1.465v1.953h1.465v4.883h1.465v3.418l1.465.489v3.906h1.465v2.93h1.465v2.93l1.465.489v3.418h1.465v3.906h1.465v3.906h1.465v3.418l1.465.489v2.93h1.465v3.906h1.465v2.93h1.465v3.906h1.465v2.93h1.465v2.93c-2.356-2.032-3.436-4.221-4.669-7.049l-.621-1.394c-2.32-5.274-4.433-10.632-6.544-15.99a381 381 0 0 0-3.08-7.557 868 868 0 0 1-2.172-5.273 3701 3701 0 0 0-2.186-5.317l-1.128-2.753q-.821-2.009-1.649-4.015l-.504-1.24c-1.07-2.582-1.913-4.463-4.299-6.053" fill="#f6f8fb"/><path d="m498.047 219.239.489.489c.821.114 1.646.201 2.472.275l1.36.124 1.05.09v-.977a347 347 0 0 1 3.327-.061l1.871-.034c1.639.096 1.639.096 3.103 1.072.092 1.526.092 1.526 0 2.93h-1.465v.977h-1.465v3.906h1.465v1.953h1.465v2.93h1.465v3.906h1.465v3.906h1.465v2.93l1.465.489v1.465h3.418l-1.953 5.371c-1.58-.79-1.929-2.467-2.594-4.028l-1.036-2.379-.589-1.356a605 605 0 0 0-2.299-5.164l-.429-.955-1.72-3.821-1.217-2.709-.715-1.589c-1.372-3.124-1.965-4.89-1.119-8.274l-14.16.489-.489.977.854.305c2.381 1.455 3.29 3.946 4.028 6.531h-1.465v-2.442l-1.465-.489v-.977h-1.465v-.977h-1.465v-.977h-1.465v-2.93c2.632-.896 5.028-1.233 7.813-.977" fill="#f2f5fa"/><path d="M569.336 233.887h3.906v1.953h1.465v4.395l-.977.489c-.229 1.6-.229 1.6-.305 3.449l-.111 1.909-.072 1.478h-3.906v-2.93h-1.465v-.977h-1.465v-.977h-6.348v.977h-1.465v.977h-1.465q.084 1.19.183 2.381c.034.442.069.883.102 1.339.102 1.251.102 1.251 1.179 2.14.071 1.344.091 2.626.061 3.967l-.062 3.846h10.742v.489h-13.184v-17.09l5.707-.152 1.786-.067c3.837-.05 3.837-.05 5.822 1.328.844 1.333.844 1.333.844 3.286h1.465v-11.719h-1.465l-.091 1.099c-.542 1.834-1.187 2.347-2.838 3.296-1.349.157-2.541.093-3.906 0v-.977h2.93v-.977h1.465v-1.953h1.465z" fill="#fafbfc"/><path d="M569.336 219.239h6.836v.977h1.465v.977h1.465v3.906l-1.465.489.489 1.465.977.489c0 .977 0 .977-.489 1.77-1.563 1.074-3.017.763-4.883.671v-1.953h-1.465v-1.953h-1.465v-.977h-2.93v-.977h-6.348v.977h-2.93v8.789l-.977.489c-.321 1.479-.321 1.479-.489 2.93l1.465.489v.489h-2.442q-.018-3.22-.026-6.441l-.01-2.193a882 882 0 0 1-.011-3.145l-.008-1.914c.056-1.446.056-1.446.544-1.935 1.694-.138 3.397-.113 5.097-.122l1.422-.03c3.139-.017 6.259.175 9.106 1.617.828.985 1.411 1.906 1.984 3.056.4.939.4.939 1.434 1.339v-8.301h-6.348z" fill="#eaf0f7"/><path d="M486.816 220.215h1.465v2.93h-1.465v.977h-1.465v.977h-1.465v33.203h1.465v1.953c-1.16.061-1.16.061-2.442 0-1.415-1.415-1.103-2.445-1.111-4.426l-.008-1.076a485 485 0 0 1-.005-3.53l-.007-2.448q-.005-2.568-.001-5.136.003-3.293-.017-6.587a853 853 0 0 1-.006-5.058q0-1.214-.008-2.429a329 329 0 0 1 .003-3.395l-.001-1.953c.184-1.56.184-1.56.815-2.506 1.357-.844 2.7-.606 4.252-.519z" fill="#fafbfc"/><path d="M156.25 215.332c1.255 1.158 2.258 2.363 3.235 3.754 3.829 5.147 9.627 9.541 15.808 11.383l.286-.875c.548-1.662 1.09-3.305 1.758-4.923.484-1.08.484-1.08.397-2.503l-1.478-.606-1.909-.798-.976-.398c-2.417-1.017-2.417-1.017-2.961-2.104h2.93v.977l1.099-.061c1.386.063 2.118.34 3.296 1.038v.977h1.465v.977h3.418a334 334 0 0 1-2.472 8.087l-.475 1.497c-.471 1.157-.471 1.157-1.447 1.645v-2.442h-1.953v.977h-3.906v-.977H170.9v-.977h-1.465v-.977h-1.465v-.977h-1.465v-.977h-1.465v-.977h-1.465c-.823-.64-.823-.64-1.465-1.465v-1.465h-1.465v-1.465l-1.465-.489v-.977h-1.465l-.183-1.19-.307-1.25-.977-.489z" fill="#f9f2f5"/><path d="m578.125 252.442 2.442.489v9.277h-1.465v.977h-37.598v-1.465h35.645z" fill="#eff2f9"/><path d="M621.094 252.442h1.953v6.836h-1.465v3.906h-37.598v-1.465h36.133v-4.883c.362-3.78.362-3.78.977-4.395" fill="#edf1f9"/><path d="M426.758 241.211h20.019l.122 8.423.054 2.65q.009 1.043.015 2.087l.031 1.087c.001 1.713-.091 2.664-1.118 4.064-1.057.731-1.057.731-2.522.731v-.977h1.465v-1.953h1.465v-13.672h-1.465v-.977h-15.137v1.953h-1.465v12.695h1.465v1.953h1.465v.977c-2.634.176-2.634.176-3.75-.489-1.019-1.544-.823-3.178-.788-4.964l.005-1.042c.008-1.284.028-2.567.047-3.85z" fill="#ecf2f9"/><path d="M338.379 218.261h.977l2.93 7.813h-3.418v.977h-1.465v2.93h-1.465v3.906h-1.465v3.906h-1.465v3.906h2.93v.489h-6.348c.719-3.916 2.087-7.452 3.571-11.139l.701-1.768a617 617 0 0 1 4.518-11.019" fill="#f1f5fa"/><path d="M365.723 222.168h1.465v7.324c1.245-.622 1.32-1.122 1.862-2.381.887-1.823 1.564-2.71 3.509-3.479 2.254-.517 4.404-.505 6.714-.498l1.732.004 1.32.005q.052 6.933.076 13.867.011 3.219.035 6.438.023 3.105.029 6.211.004 1.186.016 2.372c.011 1.106.012 2.211.011 3.317l.01 1.909c-.176 1.529-.176 1.529-.796 2.476-.844.518-.844.518-2.798.518v-.977h1.465v-.977h1.465v-33.2h-6.348v.977h-1.465v.977h-1.465l-.489 1.953h-.977v1.953l-1.861.061-1.048.034c-.997-.095-.997-.095-2.462-1.072a35 35 0 0 1-.091-3.967l.019-1.116q.029-1.365.072-2.729" fill="#f2f5fa"/><path d="M327.637 245.605h22.949l.489 1.953h-1.465v-.977q-1.572.102-3.143.214l-1.769.12c-1.381-.004-1.381-.004-1.924.643-.976.049-1.953.064-2.93.061l-1.617.004c-1.312-.064-1.312-.064-1.8-.552-1.709-.082-1.709-.082-3.418 0l-.489.489a49 49 0 0 1-2.442 0v.977h-1.465v3.906h-1.465v3.906h-1.465v.977h1.465v1.953h1.465v.977c-2.692.179-2.692.179-3.74-.612-1.413-1.841-.898-3.443-.654-5.735z" fill="#f7f9fc"/><path d="M204.59 259.766h20.996c2.442 5.371 2.442 5.371 2.442 6.348h-1.465v-2.93h-1.465v-.977h-19.043v-.977h-1.465z" fill="#eaeef7"/><path d="M145.508 276.855h1.465v1.953h1.465v.977h1.465l.489 1.465.977.489v.977h1.465v1.953h1.465v.977h1.465v1.953h1.465v.977h1.465v.977h1.465v.977h1.465l.489 1.465.977.489v.977h1.465v.977h1.465v.977h1.465v.977l1.099-.061c1.386.063 2.118.34 3.296 1.038v.977h1.465v.977h1.465v.977h2.93v.977h1.465v.977l1.099-.061c1.386.063 2.118.34 3.296 1.038l-.489.977c-14.204-5.058-28.839-13.739-37.598-26.367z" fill="#eef3f9"/><path d="M154.297 197.754c1.435.367 1.435.367 2.93.977.367 1.008.367 1.008.489 1.953l.977.489.489 3.418.977.489v2.442h1.465v1.953h1.465v1.953h1.465v1.953h1.465v.977h1.465v1.953h1.465v.977h1.465v.977c-2.712-.975-4.648-2.557-6.836-4.395l-.906-.744c-3.799-3.426-6.755-9.089-8.371-13.906z" fill="#fdf4f5"/><path d="M569.336 233.887h3.906v1.953h1.465v4.395l-.977.489c-.229 1.6-.229 1.6-.305 3.449l-.111 1.909-.072 1.478h-3.906l.489-3.418.489 1.953h1.465v-11.719h-1.465l-.091 1.099c-.542 1.834-1.187 2.347-2.838 3.296-1.349.157-2.541.093-3.906 0v-.977h2.93v-.977h1.465v-1.953h1.465z" fill="#f8f9fc"/><path d="m498.047 219.239.489.489c.821.114 1.646.201 2.472.275l1.36.124 1.05.09v-.977h6.836l.977 1.953-3.906.489v-.977l-14.16.489-.489.977.854.305c2.381 1.455 3.29 3.946 4.028 6.531h-1.465v-2.442l-1.465-.489v-.977h-1.465v-.977h-1.465v-.977h-1.465v-2.93c2.632-.896 5.028-1.233 7.813-.977" fill="#5a8bd0"/><path d="M431.64 220.215h.977v2.93h-1.465v.977h-1.465v1.953h-1.465v10.742l1.465.489v.977h-2.93q-.072-3.298-.107-6.595-.015-1.121-.04-2.244a230 230 0 0 1-.043-3.225l-.03-1.012c-.001-1.552.028-2.342 1.11-3.497 1.383-.671 2.477-.619 3.994-.516z" fill="#e3ecf6"/><path d="M157.715 281.739h20.508l-.489 1.953h-18.555v-.977h-1.465z" fill="#fdfcfd"/><path d="M583.984 221.192c2.646-.177 2.646-.177 3.815.549 1.283 2.026 1.132 4.617 1.147 6.947l.015 1.833.006 1.961.004 1.008q.011 2.637.013 5.274.006 2.712.028 5.425.012 2.096.012 4.193.002 1 .011 1.999c.06 6.742.06 6.742-1.634 9.387-1.8.458-1.8.458-3.418.489v-.977h1.465v-.977h1.465v-2.442l.977-.489.489-29.297-1.465-.489v-1.465h-1.465c-.823-.64-.823-.64-1.465-1.465z" fill="#2d6ac1"/><path d="M461.914 260.254h1.465a43 43 0 0 1 .489 2.442c-.489.489-.489.489-2.382.544q-1.267 0-2.534-.008l-1.344-.003a1758 1758 0 0 1-4.269-.015l-2.887-.007q-3.546-.008-7.092-.024v-.977l-1.465-.489h20.019z" fill="#f0f3fa"/><path d="M407.715 220.215h2.93v4.883h-1.465c.17.964.17.964.489 1.953l.977.489v3.418h-1.465v.977h-2.442v-.977h-1.465v-3.418h.977l.489 2.442h1.465z" fill="#f9fafc"/><path d="M431.64 260.254h.977v2.93h-20.019v-1.465h19.043z" fill="#eceff9"/><path d="M468.261 221.68c1.16-.061 1.16-.061 2.442 0 1.408 1.408 1.103 2.41 1.111 4.381l.008 1.062c.007 1.161.006 2.321.005 3.482l.007 2.416q.005 2.533.001 5.067-.003 3.25.017 6.499.01 2.496.006 4.99 0 1.198.008 2.396.007 1.675-.003 3.35l.001 1.926c-.184 1.541-.184 1.541-.806 2.489-.843.516-.843.516-2.796.516v-.977h1.465v-1.953h1.465v-32.227h-1.465v-1.953h-1.465z" fill="#fbfcfd"/><path d="M466.797 261.719h20.019v1.465q-4.042.018-8.083.026l-2.751.01q-1.974.008-3.948.011l-1.247.008c-2.903 0-2.903 0-3.991-.543z" fill="#eaeef8"/><path d="M441.895 221.68c3.134-.178 3.134-.178 4.253.523.962 1.437.803 2.666.79 4.379l-.003 1.008q-.005 1.053-.019 2.105a282 282 0 0 0-.023 3.234c-.034 5.273-.034 5.273-.602 5.84a61 61 0 0 1-2.931.048l-1.798-.005-1.893-.012-1.899-.006q-2.33-.009-4.663-.024v-.977l.902.008q2.036.014 4.072.023l1.42.012 1.378.005 1.263.008c1.434-.035 1.434-.035 3.66-.544l.489-12.207h-1.465v-1.953h-1.465v-.977z" fill="#80a0d6"/><path d="m330.766 205.511 1.542.008 1.664.005 1.752.012 1.758.007q2.158.009 4.315.024v.977H329.59v1.465l1.282-.122c2.072.153 2.997.746 4.578 2.075.671 1.343.671 1.343.977 2.442h-1.465v-.977h-1.465v-.977h-2.93v-.977h-1.465q-.03-1.709 0-3.418c.489-.489.489-.489 1.664-.544" fill="#f0f3f9"/><path d="M329.102 260.254h.977l.977 2.442c-.489.489-.489.489-2.023.544q-1.019 0-2.038-.008l-1.082-.003q-1.717-.005-3.433-.015l-2.322-.007q-2.853-.009-5.705-.024v-1.465h14.648z" fill="#eff2fa"/><path d="M220.703 248.535c1.522.761 1.666 2.013 2.258 3.571l.66 1.703c.499 1.562.499 1.562.499 3.515h-13.672v-.977h11.719v-2.93h-1.465z" fill="#ebeff7"/><path d="M541.504 221.192c2.607-.237 2.607-.237 3.992.78 1.183 1.557 1.127 2.498 1.113 4.443v.981a245 245 0 0 1-.031 3.202q-.006 1.112-.009 2.225a814 814 0 0 1-.048 5.847c-.02 1.99-.029 3.979-.039 5.97q-.032 5.854-.095 11.708h-.489v-31.25h-1.465v-1.953h-1.465v-.977h-1.465z" fill="#6792cf"/><path d="M576.172 220.215h1.465v.977h1.465v3.906l-1.465.489.489 1.465.977.489c0 .977 0 .977-.579 1.77-1.157.877-1.91.786-3.327.671l.977-.489z" fill="#fdfdfd"/><path d="M164.063 294.434h1.953v.977h1.465v.977l1.099-.061c1.386.063 2.118.34 3.296 1.038v.977h1.465v.977h1.465v.977h2.93v.977h1.465v.977l1.099-.061c1.386.063 2.118.34 3.296 1.038l-.489.977c-6.579-2.343-13.284-5.276-19.043-9.277z" fill="#e3eaf5"/><path d="M569.336 233.887h2.93v12.207h-.489v-11.719h-1.465l-.091 1.099c-.542 1.834-1.187 2.347-2.838 3.296-1.349.157-2.541.093-3.906 0v-.977h2.93v-.977h1.465v-1.953h1.465z" fill="#e3ebf6"/><path d="M232.422 277.344c1.208 1.481 1.696 2.532 2.442 4.395l21.484.489v.489h-22.461v-1.465l-1.465-.489z" fill="#bec7e7"/><path d="M441.895 260.254c2.807-.061 2.807-.061 3.906.489.915.048 1.832.064 2.748.065l1.653.002 1.732-.006 1.739.006 1.65-.002 1.523-.002c1.139.068 1.139.068 1.648-.551a72 72 0 0 1 2.93 0v1.465h-19.531z" fill="#2359b8"/><path d="m515.625 243.652 1.953.489v1.465h3.418l-1.953 5.371c-1.479-.74-1.646-1.882-2.258-3.387l-.66-1.601c-.499-1.36-.499-1.36-.499-2.336" fill="#ecf2f8"/><path d="M490.234 221.68c2.161.085 3.154.242 4.761 1.74 1.267 1.717 1.903 3.567 2.564 5.585h-1.465v-2.442l-1.465-.489v-.977h-1.465v-.977h-1.465v-.977h-1.465z" fill="#f6f8fb"/><path d="M446.289 241.211h.489q.072 3.597.107 7.194.015 1.224.04 2.446.033 1.76.043 3.521l.03 1.102c.001 1.708-.094 2.654-1.118 4.049-1.057.731-1.057.731-2.521.731v-.977h1.465v-1.953h1.465z" fill="#6a8fcf"/><path d="M258.789 186.035c2.084 1.517 3.518 3.203 5.036 5.249l.672.89a432 432 0 0 1 1.617 2.161l-1.465.489v-.977h-1.465v-1.953h-1.465v-1.953h-1.465v-1.953h-1.465z" fill="#f0f5fa"/><path d="M583.984 221.192c2.621-.175 2.621-.175 3.845.519.834 1.436.641 2.742.549 4.364l-1.465-.489v-1.465h-1.465c-.823-.64-.823-.64-1.465-1.465z" fill="#ebf0f8"/><path d="m523.926 220.215.489.977a57 57 0 0 0 2.974.321c.933.168.933.168 1.909 1.144-.011 1.057-.011 1.057-.183 2.258l-.164 1.21-.141.927h-.489v-2.93h-1.465v-.977h-1.465v-.977h-1.465z" fill="#f1f5fa"/><path d="M206.055 212.89c1.151 1.726 1.921 3.505 2.746 5.402l.481 1.084c1.167 2.671 1.167 2.671 1.167 3.768h-1.465v-2.442l-1.465-.489v-2.93h-1.465z" fill="#ecf1f7"/><path d="M230.469 163.574h2.93v.977h2.93v.977h2.93v.977h1.465v.977h1.465v.977a52 52 0 0 1-5.401-2.056c-1.439-.586-2.919-1.034-4.404-1.487-.937-.366-.937-.366-1.914-1.342" fill="#d5e5f4"/><path d="M170.41 218.261h2.93v.977l1.099-.061c1.386.063 2.118.34 3.296 1.038v1.465c-1.88-.295-3.35-.863-5.035-1.739l-1.307-.674-.983-.517z" fill="#fbedee"/><path d="m427.246 259.277 4.395.977v1.465h-9.277v-.489h4.883z" fill="#2d63c1"/><path d="M203.125 171.387h3.906v.977l.977.489-1.106.072-1.457.111-1.442.102c-1.338.199-2.201.425-3.319 1.179l-.489 1.465.489-2.442h.977v-.977h1.465z" fill="#99bae1"/><path d="M588.379 255.371c.159 1.747.21 2.634-.823 4.089-1.319.927-1.994.969-3.571.793v-.977h1.465v-.977h1.465v-2.442c.977-.489.977-.489 1.465-.489" fill="#f3f6fa"/><path d="M586.914 219.239c3.004-.048 3.004-.048 3.906 0l.489.489c1.396.116 2.783.206 4.181.275l1.193.064q1.463.078 2.927.15v.489q-2.487.02-4.974.031l-1.421.012-1.378.005-1.263.008c-1.263-.057-2.428-.265-3.66-.544z" fill="#5b8bd0"/><path d="M477.051 220.215v.489h-5.86l-.489 1.465-2.442-.489v-1.465c3.246-1.082 5.503-.875 8.789 0" fill="#3770c7"/><path d="M497.558 229.492c1.112 1.406 1.973 2.823 2.777 4.425l.647 1.268c.482 1.142.482 1.142.482 2.607h-.977l-.183-.945-.305-1.008-.977-.489v-2.442h-1.465z" fill="#eef2f9"/><path d="M541.504 221.192c2.651-.177 2.651-.177 3.845.58.719 1.158.658 1.988.549 3.326h-1.465v-1.953h-1.465v-.977h-1.465z" fill="#ebf0f9"/><path d="M374.024 266.602h4.883v.977c-1.767.589-3.382.541-5.218.519l-1.039-.007q-1.267-.01-2.532-.024v-.489h3.906z" fill="#1447b2"/><path d="M346.68 240.723h1.953v1.465h-12.208v-.489h10.254z" fill="#f2f6fa"/><path d="M132.813 254.395h2.442v3.906l-.977.489z" fill="#e5eef8"/><path d="M441.895 221.68c1.648-.061 1.648-.061 3.418 0 .977.977.977.977 1.038 2.258l-.061 1.16h-1.465v-1.953h-1.465v-.977z" fill="#f9fafc"/><path d="M343.75 229.981c.821 1.232 1.416 2.349 2.014 3.693l.523 1.161c.393 1.005.393 1.005.393 1.982h-1.465v-2.93h-1.465z" fill="#eaeff7"/><path d="M481.934 219.239a38 38 0 0 1 2.472.458l1.36.288 1.051.23v.977l-1.648.214c-1.683.169-1.683.169-2.746.762v-1.953l-.977-.489z" fill="#497cca"/><path d="M355.469 257.813c1.444 1.693 2.479 3.354 3.418 5.371h-1.953v-1.953l-1.465-.489z" fill="#ebf0f8"/><path d="M397.949 260.254v1.465h-5.859c2.158-1.438 3.261-1.513 5.86-1.465" fill="#2f63c1"/><path d="M327.637 232.91h.977q.039 1.053.061 2.106l.034 1.184c-.095 1.105-.095 1.105-1.072 2.57h-1.465v-1.953h1.465z" fill="#86a7d7"/><path d="M381.836 252.93h.489q.058 1.419.092 2.838l.051 1.596c-.144 1.425-.144 1.425-.76 2.346-.849.543-.849.543-2.802.543v-.977h1.465v-.977h1.465zm10.742 4.394h1.953v1.953h1.465v.977c-1.16.061-1.16.061-2.442 0l-.977-.977z" fill="#f2f5fa"/><path d="M414.063 221.68c2.381.428 2.381.428 2.93.977a49 49 0 0 1 0 2.442h-1.465v-1.953h-1.465z" fill="#eff2f8"/><path d="M329.59 206.543h4.395l-.489 1.953-3.906-.489z" fill="#3879ce"/><path d="M471.192 256.348h.489c.178 2.185.178 2.185-.61 3.327-.855.579-.855.579-2.808.579v-.977h1.465v-1.953h1.465z" fill="#edf1f8"/><path d="m250 205.566 1.465.489-3.906 4.395-.489-1.953h1.465v-1.953H250z" fill="#fde8e9"/><path d="M232.422 277.344c1.398 1.665 2.123 3.373 2.93 5.371h-1.465v-1.465l-1.465-.489z" fill="#e0e6f4"/><path d="m160.645 275.879.977.489-.489 1.465-1.465.489a44 44 0 0 0-1.953 1.953v-2.442h1.465v-.977h1.465z" fill="#f3d2d6"/><path d="m459.534 219.696 1.072.288.821.231v.977c-3.185.18-3.185.18-4.364-.732l-.519-.732c1.244-.622 1.674-.391 2.991-.03" fill="#4277c7"/><path d="M461.426 260.254v1.465h-4.883c2.058-1.543 2.471-1.63 4.883-1.465" fill="#376ac8"/><path d="M544.434 257.324h1.465c-.122 1.16-.122 1.16-.489 2.442-.884.671-.884.671-1.953.977-1.099-.183-1.099-.183-1.953-.489h1.465v-.977h1.465z" fill="#dde7f3"/><path d="M266.113 194.824c1.339 1.563 2.261 2.932 2.93 4.883h-1.465v-1.953l-1.465-.489z" fill="#edf4f9"/><path d="M441.895 260.254c2.807-.061 2.807-.061 3.906.489v.977h-3.906z" fill="#3067c8"/><path d="M329.102 260.254v1.465h-5.371c2.072-1.036 3.064-1.465 5.371-1.465" fill="#2c5fc1"/><path d="M320.313 251.465h.977c.153 1.313.153 1.313 0 2.93-1.221 1.404-1.221 1.404-2.442 2.442v-2.442h1.465z" fill="#a3bbe0"/><path d="M156.25 215.332c1.629 1.46 2.515 2.897 3.418 4.883h-1.953l-.183-1.19-.305-1.252-.977-.489z" fill="#fae8eb"/><path d="M269.043 199.707c1.644 1.33 2.169 2.963 2.93 4.883h-1.465v-1.953l-1.465-.489z" fill="#f0f5fa"/><path d="M192.871 192.871h.977l-.489 3.906h-.489zm-1.465 3.906h1.465l-.977 1.953z" fill="#85aad7"/><path d="M238.281 217.285h1.465c-.489 1.465-.489 1.465-1.39 2.035l-1.081.498-1.086.509-.837.376v-1.465h1.465v-.977h1.465z" fill="#f9c5c6"/><path d="m334.961 215.332.977.489v2.93l-.945.428c-1.082.465-1.082.465-1.496 1.526v-2.442h1.465z" fill="#adc5e7"/><path d="M444.824 257.324h1.465l-.489 2.442-2.442.489v-.977h1.465z" fill="#eef3f9"/><path d="M131.348 197.754h1.465c-.397 1.191-.397 1.191-.977 2.442l-1.465.489-.489.977v-1.953h1.465z" fill="#85b3e1"/><path d="M377.442 260.254h2.93v.977l-3.418.489z" fill="#3f71cc"/><path d="M317.383 257.324h1.465c-.091.915-.091.915-.489 1.953-1.251.61-1.251.61-2.442.977v-.977h1.465z" fill="#789bd4"/><path d="M415.527 257.324h1.465c-.091.915-.091.915-.489 1.953-1.251.61-1.251.61-2.442.977v-.977h1.465z" fill="#e3e9f4"/><path d="M170.41 218.261h2.93l.489 1.953a50 50 0 0 1-2.93-.977z" fill="#f9ddde"/></svg>